<?xml version="1.0" standalone="no"?>
<!DOCTYPE svg PUBLIC "-//W3C//DTD SVG 1.1//EN" "http://www.w3.org/Graphics/SVG/1.1/DTD/svg11.dtd" >
<svg>
<metadata>
Created by FontForge 20090914 at Sun Nov 22 16:55:09 2020
 By www-data
Digitized data copyright 2012-2016, The Mozilla Foundation and Telefonica S.A.
</metadata>
<defs>
<font id="FiraSansCondensed-Regular" horiz-adv-x="504" >
  <font-face 
    font-family="Fira Sans Condensed"
    font-weight="400"
    font-stretch="condensed"
    units-per-em="1000"
    panose-1="2 11 5 3 5 0 0 2 0 4"
    ascent="800"
    descent="-200"
    x-height="526"
    cap-height="688"
    bbox="-683 -350 1360 1101"
    underline-thickness="50"
    underline-position="-50"
    unicode-range="U+000D-U+FEFF"
  />
<missing-glyph horiz-adv-x="666" 
d="M543 1050v-1400h-420v1400h420zM489 998h-311v-1296h311v1296zM409.5 419c17 -21.333 25.4961 -49.002 25.4961 -83.002c0 -35.333 -7.5 -62.666 -22.5 -81.999s-39.167 -31.333 -72.5 -36v-45c0 -7.33301 -2.5 -13.166 -7.5 -17.499s-10.833 -6.5 -17.5 -6.5
s-12.5 2.16699 -17.5 6.5s-7.5 10.166 -7.5 17.499v84c35.333 2 59.333 8.5 72 19.5s19 30.167 19 57.5c0 22 -4.33301 39 -13 51s-24.667 18 -48 18c-19.333 0 -36.666 -3.66699 -51.999 -11c-5.33301 -2 -9.66602 -3 -12.999 -3c-7.33301 0 -13.166 2.16699 -17.499 6.5
s-6.5 9.83301 -6.5 16.5c0 12.667 9.83301 22.334 29.5 29.001s40.834 10 63.501 10c40 0 68.5 -10.667 85.5 -32zM339.996 109.998c6.66699 -6.66699 10 -15 10 -25c0 -10.667 -3.33301 -19.5 -10 -26.5s-15 -10.5 -25 -10.5s-18.333 3.5 -25 10.5s-10 15.833 -10 26.5
c0 10 3.33301 18.333 10 25s15 10 25 10s18.333 -3.33301 25 -10z" />
    <glyph glyph-name="fi" unicode="fi" horiz-adv-x="523" 
d="M395 712l-28.001 -61c-36 17.333 -72 26 -108 26c-28.667 0 -49.167 -5.83301 -61.5 -17.5s-18.5 -31.167 -18.5 -58.5v-75h263v-526h-90v458h-173v-458h-90v458h-76v68h76v77c0 44 13.667 79.333 41 106s68 40 122 40c50.667 0 98.334 -12.333 143.001 -37z" />
    <glyph glyph-name="fl" unicode="fl" horiz-adv-x="546" 
d="M528 4c-22.667 -11.333 -45.332 -16.998 -67.999 -16.998c-32 0 -57.167 9.66699 -75.5 29s-27.5 46.666 -27.5 81.999v565c-32 10 -64.667 15 -98 15c-28.667 0 -49.167 -5.83301 -61.5 -17.5s-18.5 -30.5 -18.5 -56.5v-78h110l-10 -68h-100v-458h-90v458h-76v68h76v79
c0 43.333 13.667 78.166 41 104.499s66.666 39.5 117.999 39.5c36.667 0 74.334 -7 113.001 -21l86 10v-638c0 -26 11 -39 33 -39c9.33301 0 18.666 2 27.999 6z" />
    <glyph glyph-name=".notdef" horiz-adv-x="666" 
d="M543 1050v-1400h-420v1400h420zM489 998h-311v-1296h311v1296zM409.5 419c17 -21.333 25.4961 -49.002 25.4961 -83.002c0 -35.333 -7.5 -62.666 -22.5 -81.999s-39.167 -31.333 -72.5 -36v-45c0 -7.33301 -2.5 -13.166 -7.5 -17.499s-10.833 -6.5 -17.5 -6.5
s-12.5 2.16699 -17.5 6.5s-7.5 10.166 -7.5 17.499v84c35.333 2 59.333 8.5 72 19.5s19 30.167 19 57.5c0 22 -4.33301 39 -13 51s-24.667 18 -48 18c-19.333 0 -36.666 -3.66699 -51.999 -11c-5.33301 -2 -9.66602 -3 -12.999 -3c-7.33301 0 -13.166 2.16699 -17.499 6.5
s-6.5 9.83301 -6.5 16.5c0 12.667 9.83301 22.334 29.5 29.001s40.834 10 63.501 10c40 0 68.5 -10.667 85.5 -32zM339.996 109.998c6.66699 -6.66699 10 -15 10 -25c0 -10.667 -3.33301 -19.5 -10 -26.5s-15 -10.5 -25 -10.5s-18.333 3.5 -25 10.5s-10 15.833 -10 26.5
c0 10 3.33301 18.333 10 25s15 10 25 10s18.333 -3.33301 25 -10z" />
    <glyph glyph-name="nonmarkingreturn" unicode="&#xd;" horiz-adv-x="235" 
 />
    <glyph glyph-name="space" unicode=" " horiz-adv-x="235" 
 />
    <glyph glyph-name="exclam" unicode="!" horiz-adv-x="229" 
d="M162 688l-11 -458h-74l-11 458h96zM159.5 95.5c11.667 -12.333 17.5 -27.166 17.5 -44.499s-5.83301 -32.333 -17.5 -45s-26.834 -19 -45.501 -19c-18 0 -32.833 6.33301 -44.5 19s-17.5 27.667 -17.5 45s5.83301 32.166 17.5 44.499s26.5 18.5 44.5 18.5
c18.667 0 33.834 -6.16699 45.501 -18.5z" />
    <glyph glyph-name="quotedbl" unicode="&#x22;" horiz-adv-x="378" 
d="M70 427l-12 261h86l-11 -261h-63zM246 427l-12 261h86l-11 -261h-63z" />
    <glyph glyph-name="numbersign" unicode="#" horiz-adv-x="472" 
d="M459 448h-66l-29 -216h62v-65h-71l-22 -167h-74l22 167h-136l-22 -167h-74l22 167h-58v65h67l28 216h-62v66h71l20 155h74l-20 -155h136l20 155h75l-21 -155h58v-66zM290 232l28 216h-136l-28 -216h136z" />
    <glyph glyph-name="dollar" unicode="$" horiz-adv-x="482" 
d="M400 60c-29.333 -35.333 -69.667 -57.668 -121 -67.001v-147h-71v144c-72 3.33301 -134 31.666 -186 84.999l48 52c23.333 -21.333 47.333 -37.666 72 -48.999s52.334 -17 83.001 -17c38.667 0 69.5 11 92.5 33s34.5 51.667 34.5 89c0 33.333 -9.33301 59.666 -28 78.999
s-52.667 37.333 -102 54c-62.667 22 -107.667 47.5 -135 76.5s-41 66.833 -41 113.5c0 44.667 15 82.667 45 114s69 50.333 117 57v146h71v-146c29.333 -4 55.833 -12.167 79.5 -24.5s46.5 -29.166 68.5 -50.499l-47 -52c-20.667 20 -42 34.667 -64 44s-45.667 14 -71 14
c-32.667 0 -58.834 -8.83301 -78.501 -26.5s-29.5 -41.167 -29.5 -70.5c0 -20 3.83301 -36.833 11.5 -50.5s21 -26.167 40 -37.5s45.833 -23 80.5 -35c59.333 -20.667 103.333 -45.667 132 -75s43 -71.333 43 -126c0 -49.333 -14.667 -91.666 -44 -126.999z" />
    <glyph glyph-name="percent" unicode="%" horiz-adv-x="748" 
d="M555 709l59 -35l-418 -703l-59 35zM293.5 635c27 -30 40.5 -71 40.5 -123c0 -52.667 -13.5 -94 -40.5 -124s-62.167 -45 -105.5 -45c-42.667 0 -77.5 15 -104.5 45s-40.5 71 -40.5 123c0 52.667 13.333 94 40 124s61.667 45 105 45s78.5 -15 105.5 -45zM114 511
c0 -72.667 24.667 -109 74 -109c26.667 0 45.667 9.66699 57 29s17 46.333 17 81c0 72.667 -24.667 109 -74 109s-74 -36.667 -74 -110zM664.5 279c27 -30 40.5 -71 40.5 -123c0 -52.667 -13.333 -94 -40 -124s-61.667 -45 -105 -45s-78.666 15 -105.999 45s-41 71 -41 123
c0 52.667 13.667 94 41 124s62.666 45 105.999 45c42.667 0 77.5 -15 104.5 -45zM485 155c0 -72.667 25 -109 75 -109c26.667 0 45.5 9.66699 56.5 29s16.5 46.333 16.5 81c0 72.667 -24.333 109 -73 109c-50 0 -75 -36.667 -75 -110z" />
    <glyph glyph-name="ampersand" unicode="&#x26;" horiz-adv-x="665" 
d="M400 658c30.667 -28.667 45.998 -65.3301 45.998 -109.997c0 -38.667 -11 -72 -33 -100s-54.667 -56.333 -98 -85l160 -169c23.333 55.333 41 112.333 53 171l77 -21c-20 -77.333 -46.333 -144 -79 -200l109 -110l-69 -47l-90 97
c-26.667 -32 -56.334 -56.167 -89.001 -72.5s-70 -24.5 -112 -24.5c-39.333 0 -74.166 7.83301 -104.499 23.5s-54.166 37.667 -71.499 66s-26 60.833 -26 97.5c0 41.333 10.333 77.166 31 107.499s52.667 60.166 96 89.499c-32.667 33.333 -55.834 62.5 -69.501 87.5
s-20.5 53.833 -20.5 86.5c0 45.333 14.833 82.666 44.5 111.999s70.834 44 123.501 44c50.667 0 91.334 -14.333 122.001 -43zM218.498 611.504c-14.333 -16.333 -21.502 -38.5 -21.502 -66.5c0 -24 4.83301 -45.5 14.5 -64.5s27.834 -42.5 54.501 -70.5
c32.667 22.667 56.334 44 71.001 64s22 43.667 22 71c0 30.667 -7.16699 53.5 -21.5 68.5s-33.833 22.5 -58.5 22.5c-26 0 -46.167 -8.16699 -60.5 -24.5zM186.496 256.004c-13.667 -22.667 -20.5 -49.001 -20.5 -79.001c0 -37.333 11 -66.666 33 -87.999s50.667 -32 86 -32
c30 0 56.333 6.16699 79 18.5s44 30.833 64 55.5l-177 191c-29.333 -21.333 -50.833 -43.333 -64.5 -66z" />
    <glyph glyph-name="quotesingle" unicode="'" horiz-adv-x="202" 
d="M70 427l-12 261h86l-11 -261h-63z" />
    <glyph glyph-name="parenleft" unicode="(" horiz-adv-x="295" 
d="M260 806c-31.333 -50.667 -56.333 -96.3291 -75 -136.996s-33.167 -86.834 -43.5 -138.501s-15.5 -111.834 -15.5 -180.501s5.16699 -128.667 15.5 -180s24.833 -97.5 43.5 -138.5s43.667 -86.833 75 -137.5l-58 -38c-36.667 55.333 -66.334 104.5 -89.001 147.5
s-41.334 93.167 -56.001 150.5s-22 122.666 -22 195.999s7.33301 138.666 22 195.999s33.334 107.5 56.001 150.5s52.334 92.167 89.001 147.5z" />
    <glyph glyph-name="parenright" unicode=")" horiz-adv-x="295" 
d="M182.5 695c22.333 -42.667 40.833 -92.498 55.5 -149.498s22 -122.167 22 -195.5s-7.33301 -138.5 -22 -195.5s-33.167 -106.833 -55.5 -149.5s-52.166 -92.334 -89.499 -149.001l-58 38c31.333 50.667 56.166 96.5 74.499 137.5s32.833 87.333 43.5 139
s16 111.5 16 179.5s-5.33301 127.833 -16 179.5s-25.167 98 -43.5 139s-43.166 86.833 -74.499 137.5l58 38c37.333 -56.667 67.166 -106.334 89.499 -149.001z" />
    <glyph glyph-name="asterisk" unicode="*" horiz-adv-x="408" 
d="M383 565l-134 -34l94 -117l-69 -43l-70 129l-70 -129l-68 43l93 117l-133 34l25 71l125 -55l-13 158h82l-13 -159l125 57z" />
    <glyph glyph-name="plus" unicode="+" horiz-adv-x="457" 
d="M267 518v-150h136v-74h-136v-149h-77v149h-136v74h136v150h77z" />
    <glyph glyph-name="comma" unicode="," horiz-adv-x="209" 
d="M148 96c11.333 -12 17.001 -26.668 17.001 -44.001c0 -9.33301 -1.5 -19 -4.5 -29s-7.83301 -24.333 -14.5 -43l-55 -141h-56l37 159c-19.333 12.667 -29 30.334 -29 53.001c0 18 5.83301 33 17.5 45s26.5 18 44.5 18c17.333 0 31.666 -6 42.999 -18z" />
    <glyph glyph-name="hyphen" unicode="-" horiz-adv-x="369" 
d="M55 276v74h259v-74h-259z" />
    <glyph glyph-name="period" unicode="." horiz-adv-x="212" 
d="M150.5 95.5c11.667 -12.333 17.5 -27.166 17.5 -44.499s-5.83301 -32.333 -17.5 -45s-26.834 -19 -45.501 -19c-18 0 -32.833 6.33301 -44.5 19s-17.5 27.667 -17.5 45s5.83301 32.166 17.5 44.499s26.5 18.5 44.5 18.5c18.667 0 33.834 -6.16699 45.501 -18.5z" />
    <glyph glyph-name="slash" unicode="/" horiz-adv-x="468" 
d="M302 807l76 -17l-212 -893l-76 17z" />
    <glyph glyph-name="zero" unicode="0" horiz-adv-x="521" 
d="M414 593c34.667 -58 52 -144.333 52 -259c0 -116 -17.333 -202.833 -52 -260.5s-85.667 -86.5 -153 -86.5c-68 0 -119.333 29 -154 87s-52 144.667 -52 260c0 230.667 68.667 346 206 346c67.333 0 118.333 -29 153 -87zM175.5 546.5
c-18.333 -42.333 -27.5 -113.167 -27.5 -212.5c0 -100 9.16699 -171 27.5 -213s46.833 -63 85.5 -63c38 0 66.167 21 84.5 63s27.5 113 27.5 213s-9 171 -27 213s-46.333 63 -85 63s-67.167 -21.167 -85.5 -63.5z" />
    <glyph glyph-name="one" unicode="1" horiz-adv-x="390" 
d="M294 669v-669h-89v575l-139 -94l-41 60l190 128h79z" />
    <glyph glyph-name="two" unicode="2" horiz-adv-x="441" 
d="M301.5 656.5c27.667 -15.667 48.834 -36.999 63.501 -63.999s22 -57.5 22 -91.5c0 -40.667 -7.83301 -79.167 -23.5 -115.5s-40.834 -76.833 -75.501 -121.5s-88 -108 -160 -190h274l-11 -74h-362v70c77.333 89.333 133.833 157 169.5 203s60.5 85.5 74.5 118.5
s21 67.833 21 104.5c0 35.333 -8.83301 62.666 -26.5 81.999s-41.5 29 -71.5 29c-25.333 0 -47.333 -5.66699 -66 -17s-38 -29.333 -58 -54l-56 43c48.667 67.333 111 101 187 101c38 0 70.833 -7.83301 98.5 -23.5z" />
    <glyph glyph-name="three" unicode="3" horiz-adv-x="451" 
d="M301 657.5c27.333 -15 48.333 -35.334 63 -61.001s22 -53.834 22 -84.501c0 -42.667 -11 -77.167 -33 -103.5s-53.333 -44.166 -94 -53.499c44 -4 79.333 -20 106 -48s40 -67 40 -117c0 -38 -8.5 -72.333 -25.5 -103s-41.333 -55 -73 -73s-68.5 -27 -110.5 -27
c-38.667 0 -73.167 7.5 -103.5 22.5s-58.166 37.833 -83.499 68.5l54 46c20.667 -22.667 41.167 -39.167 61.5 -49.5s43.166 -15.5 68.499 -15.5c36.667 0 65.834 11.833 87.501 35.5s32.5 56.167 32.5 97.5c0 44 -10.833 75.833 -32.5 95.5s-52.834 29.5 -93.501 29.5h-42
l11 67h28c33.333 0 60.833 10.333 82.5 31s32.5 50.334 32.5 89.001c0 33.333 -9.16699 59.333 -27.5 78s-43.5 28 -75.5 28c-23.333 0 -44.833 -4.66699 -64.5 -14s-39.5 -24 -59.5 -44l-47 48c52 53.333 112 80 180 80c36.667 0 68.667 -7.5 96 -22.5z" />
    <glyph glyph-name="four" unicode="4" horiz-adv-x="484" 
d="M458 237v-72h-76v-165h-86v165h-262v65l179 451l76 -29l-163 -415h171l9 182h76v-182h76z" />
    <glyph glyph-name="five" unicode="5" horiz-adv-x="459" 
d="M384 599l-233.999 -0.000976562v-200c31.333 18.667 64 28 98 28c51.333 0 92.666 -18.667 123.999 -56s47 -89 47 -155c0 -44.667 -8.83301 -84.334 -26.5 -119.001s-42.5 -61.667 -74.5 -81s-69.333 -29 -112 -29c-38 0 -71.5 7.33301 -100.5 22
s-56.5 36.334 -82.5 65.001l53 48c19.333 -20.667 39 -36.167 59 -46.5s43 -15.5 69 -15.5c38.667 0 68.667 13.5 90 40.5s32 65.833 32 116.5c0 95.333 -36 143 -108 143c-16 0 -30.667 -2.16699 -44 -6.5s-28.333 -11.166 -45 -20.499h-65v336h332z" />
    <glyph glyph-name="six" unicode="6" horiz-adv-x="496" 
d="M375.5 416c25 -16 44.832 -40.001 59.499 -72.001s22 -71 22 -117c0 -49.333 -8.16699 -92.166 -24.5 -128.499s-39.166 -64 -68.499 -83s-63 -28.5 -101 -28.5c-71.333 0 -123.833 28.167 -157.5 84.5s-50.5 134.833 -50.5 235.5c0 76.667 9.5 143 28.5 199
s46.333 99 82 129s77.5 45 125.5 45c46.667 0 88 -13.667 124 -41l-35 -57c-28 18.667 -57 28 -87 28c-43.333 0 -77.833 -22.667 -103.5 -68s-40.167 -108 -43.5 -188c38 57.333 86.667 86 146 86c30.667 0 58.5 -8 83.5 -24zM340.499 100.499
c17.667 29 26.502 70.501 26.502 124.501c0 51.333 -8.5 88.666 -25.5 111.999s-40.167 35 -69.5 35c-24.667 0 -47.834 -8.33301 -69.501 -25s-40.5 -39.667 -56.5 -69c1.33301 -76.667 11.166 -132.667 29.499 -168s47.166 -53 86.499 -53
c34.667 0 60.834 14.5 78.501 43.5z" />
    <glyph glyph-name="seven" unicode="7" horiz-adv-x="405" 
d="M379 669v-66l-229 -613l-81 26l220 581h-268v72h358z" />
    <glyph glyph-name="eight" unicode="8" horiz-adv-x="500" 
d="M429 283c21.333 -28.667 31.999 -64.0029 31.999 -106.003c0 -37.333 -8.66699 -70.333 -26 -99s-42.166 -51 -74.499 -67s-69.833 -24 -112.5 -24c-42 0 -78.833 7.83301 -110.5 23.5s-56 37.834 -73 66.501s-25.5 61.334 -25.5 98.001c0 82.667 42.333 142 127 178
c-36 19.333 -62 41.333 -78 66s-24 54.334 -24 89.001c0 36 8.33301 67 25 93s39.167 45.667 67.5 59s59.5 20 93.5 20c53.333 0 97.833 -14.667 133.5 -44s53.5 -70.666 53.5 -123.999c0 -34 -8.66699 -63.333 -26 -88s-45 -47 -83 -67
c46 -20.667 79.667 -45.334 101 -74.001zM177.999 587.497c-18 -17.667 -27.001 -44.501 -27.001 -80.501c0 -30 7.5 -53.5 22.5 -70.5s40.5 -32.833 76.5 -47.5l23 -10c28 18.667 47.833 37.834 59.5 57.501s17.5 43.5 17.5 71.5c0 35.333 -8.66699 61.833 -26 79.5
s-41.666 26.5 -72.999 26.5c-30.667 0 -55 -8.83301 -73 -26.5zM338.998 87.4961c21.333 20.333 32 50.166 32 89.499c0 35.333 -8.83301 62.833 -26.5 82.5s-49.167 38.834 -94.5 57.501l-28 11c-32 -16.667 -55.5 -37 -70.5 -61s-22.5 -54 -22.5 -90
c0 -40 10.667 -70 32 -90s51 -30 89 -30s67.667 10.167 89 30.5z" />
    <glyph glyph-name="nine" unicode="9" horiz-adv-x="486" 
d="M388.5 611c33.667 -46 50.501 -110.996 50.501 -194.996c0 -88.667 -12 -161.167 -36 -217.5s-59.833 -101.333 -107.5 -135s-110.834 -62.167 -189.501 -85.5l-20 66c81.333 25.333 143.166 59.166 185.499 101.499s66.833 100.833 73.5 175.5
c-16.667 -24 -36.5 -42.833 -59.5 -56.5s-48.833 -20.5 -77.5 -20.5c-30.667 0 -59 8.66699 -85 26s-46.5 42.166 -61.5 74.499s-22.5 70.166 -22.5 113.499c0 46.667 8.66699 86.667 26 120s41 58.666 71 75.999s64 26 102 26c66.667 0 116.834 -23 150.501 -69z
M347.001 397.004c0.666992 76.667 -7.5 131.5 -24.5 164.5s-44.833 49.5 -83.5 49.5c-34.667 0 -61.667 -12.833 -81 -38.5s-29 -64.167 -29 -115.5c0 -47.333 9 -83.333 27 -108s42.667 -37 74 -37c45.333 0 84.333 28.333 117 85z" />
    <glyph glyph-name="colon" unicode=":" horiz-adv-x="212" 
d="M150.5 95.5c11.667 -12.333 17.5 -27.166 17.5 -44.499s-5.83301 -32.333 -17.5 -45s-26.834 -19 -45.501 -19c-18 0 -32.833 6.33301 -44.5 19s-17.5 27.667 -17.5 45s5.83301 32.166 17.5 44.499s26.5 18.5 44.5 18.5c18.667 0 33.834 -6.16699 45.501 -18.5z
M150.5 467.5c11.667 -12.333 17.5 -27.166 17.5 -44.499s-5.83301 -32.333 -17.5 -45s-26.834 -19 -45.501 -19c-18 0 -32.833 6.33301 -44.5 19s-17.5 27.667 -17.5 45s5.83301 32.166 17.5 44.499s26.5 18.5 44.5 18.5c18.667 0 33.834 -6.16699 45.501 -18.5z" />
    <glyph glyph-name="semicolon" unicode=";" horiz-adv-x="212" 
d="M148 96c11.333 -12 17.001 -26.668 17.001 -44.001c0 -9.33301 -1.5 -19 -4.5 -29s-7.83301 -24.333 -14.5 -43l-55 -141h-56l37 159c-19.333 12.667 -29 30.334 -29 53.001c0 18 5.83301 33 17.5 45s26.5 18 44.5 18c17.333 0 31.666 -6 42.999 -18zM150.501 467.499
c11.667 -12.333 17.5 -27.166 17.5 -44.499s-5.83301 -32.333 -17.5 -45s-26.834 -19 -45.501 -19c-18 0 -32.833 6.33301 -44.5 19s-17.5 27.667 -17.5 45s5.83301 32.166 17.5 44.499s26.5 18.5 44.5 18.5c18.667 0 33.834 -6.16699 45.501 -18.5z" />
    <glyph glyph-name="less" unicode="&#x3c;" horiz-adv-x="455" 
d="M378 543l32 -68l-291 -142l291 -144l-32 -67l-333 169v84z" />
    <glyph glyph-name="equal" unicode="=" horiz-adv-x="453" 
d="M54 389v72h345v-72h-345zM54 200v72h345v-72h-345z" />
    <glyph glyph-name="greater" unicode="&#x3e;" horiz-adv-x="455" 
d="M77 543l333 -168v-84l-333 -169l-32 67l291 144l-291 142z" />
    <glyph glyph-name="question" unicode="?" horiz-adv-x="422" 
d="M312.5 679.5c26.333 -14.333 46.168 -33.165 59.501 -56.498s20 -48.666 20 -75.999c0 -24.667 -3.83301 -45.834 -11.5 -63.501s-17.334 -32.167 -29.001 -43.5s-26.834 -24.333 -45.501 -39c-26 -20.667 -45.333 -39.667 -58 -57s-19 -40.333 -19 -69v-45h-85v50
c0 28 4.16699 51.833 12.5 71.5s18.333 35.5 30 47.5s27.167 25.667 46.5 41c22.667 17.333 39.5 33.166 50.5 47.499s16.5 33.166 16.5 56.499c0 26 -8 46.333 -24 61s-37.667 22 -65 22c-23.333 0 -45 -5.5 -65 -16.5s-40 -28.167 -60 -51.5l-56 44
c25.333 32.667 53.333 57.167 84 73.5s65.334 24.5 104.001 24.5c36.667 0 68.167 -7.16699 94.5 -21.5zM233.502 95.501c11.667 -12.333 17.5 -27.166 17.5 -44.499s-5.83301 -32.333 -17.5 -45s-26.834 -19 -45.501 -19c-18 0 -32.833 6.33301 -44.5 19
s-17.5 27.667 -17.5 45s5.83301 32.166 17.5 44.499s26.5 18.5 44.5 18.5c18.667 0 33.834 -6.16699 45.501 -18.5z" />
    <glyph glyph-name="at" unicode="@" horiz-adv-x="924" 
d="M683.5 648.5c57.667 -35 101.331 -82.167 130.998 -141.5s44.5 -125.333 44.5 -198c0 -60 -7.33301 -112.667 -22 -158s-35.5 -80.333 -62.5 -105s-58.167 -37 -93.5 -37c-31.333 0 -56.666 9.83301 -75.999 29.5s-32 43.5 -38 71.5c-12 -29.333 -28.833 -53 -50.5 -71
s-48.167 -27 -79.5 -27c-48.667 0 -87.167 19.333 -115.5 58s-42.5 92.667 -42.5 162c0 84.667 17.833 149 53.5 193s83.5 66 143.5 66c48.667 0 96 -13.333 142 -40v-256c0 -43.333 5 -74.166 15 -92.499s25.333 -27.5 46 -27.5c29.333 0 52.5 18.5 69.5 55.5
s25.5 95.833 25.5 176.5c0 99.333 -25.5 177.833 -76.5 235.5s-124.5 86.5 -220.5 86.5c-66.667 0 -124.667 -16.5 -174 -49.5s-87.166 -78.833 -113.499 -137.5s-39.5 -126 -39.5 -202c0 -78.667 13 -146.334 39 -203.001s63.5 -100.167 112.5 -130.5
s107.5 -45.5 175.5 -45.5c59.333 0 116.666 11 171.999 33l23 -67c-31.333 -12 -62.5 -21.333 -93.5 -28s-65.167 -10 -102.5 -10c-81.333 0 -153 18 -215 54s-110.167 88 -144.5 156s-51.5 148.333 -51.5 241c0 88 17.333 167 52 237s83.334 124.833 146.001 164.5
s134 59.5 214 59.5s148.833 -17.5 206.5 -52.5zM500.997 96c15.333 14 28 31.333 38 52v267c-20.667 8.66699 -42 13 -64 13c-36.667 0 -64.5 -16 -83.5 -48s-28.5 -81.667 -28.5 -149c0 -104 28 -156 84 -156c20.667 0 38.667 7 54 21z" />
    <glyph glyph-name="A" unicode="A" horiz-adv-x="526" 
d="M423 0l-46 175h-231l-46 -175h-93l199 688h114l199 -688h-96zM165 248h193l-96 366z" />
    <glyph glyph-name="B" unicode="B" horiz-adv-x="547" 
d="M509 194c0 -65.333 -22 -113.998 -66 -145.998s-104.667 -48 -182 -48h-176v688h149c79.333 0 140.333 -14.667 183 -44s64 -72.333 64 -129c0 -40.667 -11.167 -73.834 -33.5 -99.501s-51.833 -42.834 -88.5 -51.501c100 -17.333 150 -74 150 -170zM178 617.002v-222h86
c38.667 0 68.834 9.83301 90.501 29.5s32.5 47.167 32.5 82.5c0 38.667 -11.833 66.667 -35.5 84s-59.834 26 -108.501 26h-65zM374 101.502c26 19 39 50.5 39 94.5c0 86.667 -47 130 -141 130h-94v-253h84c48.667 0 86 9.5 112 28.5z" />
    <glyph glyph-name="C" unicode="C" horiz-adv-x="508" 
d="M407 684.5c26.667 -11 53 -28.167 79 -51.5l-48 -56c-19.333 16.667 -38.5 29 -57.5 37s-39.833 12 -62.5 12c-52 0 -93.333 -22.167 -124 -66.5s-46 -115.833 -46 -214.5c0 -96 15.333 -166.833 46 -212.5s72 -68.5 124 -68.5c26 0 48.333 4.66699 67 14s39 23 61 41
l47 -55c-50 -51.333 -110 -77 -180 -77c-51.333 0 -96.833 13.333 -136.5 40s-70.667 66.834 -93 120.501s-33.5 119.5 -33.5 197.5c0 77.333 11.5 142.666 34.5 195.999s54.333 93.333 94 120s84.5 40 134.5 40c36 0 67.333 -5.5 94 -16.5z" />
    <glyph glyph-name="D" unicode="D" horiz-adv-x="581" 
d="M382 661c44 -18 79.833 -52.001 107.5 -102.001s41.5 -120.333 41.5 -211c0 -129.333 -27.5 -219.666 -82.5 -270.999s-124.5 -77 -208.5 -77h-155v688h142c59.333 0 111 -9 155 -27zM178 614.999l0.000976562 -543h68c57.333 0 103 19.833 137 59.5
s51 111.834 51 216.501c0 73.333 -8.83301 129.666 -26.5 168.999s-40.334 65.5 -68.001 78.5s-60.5 19.5 -98.5 19.5h-63z" />
    <glyph glyph-name="E" unicode="E" horiz-adv-x="469" 
d="M427 688l-11 -72h-238v-227h207v-72h-207v-244h252v-73h-345v688h342z" />
    <glyph glyph-name="F" unicode="F" horiz-adv-x="438" 
d="M85 0v688h334l-10 -72h-231v-240h200v-72h-200v-304h-93z" />
    <glyph glyph-name="G" unicode="G" horiz-adv-x="573" 
d="M425.5 682.5c29 -12.333 57.5 -31.166 85.5 -56.499l-50 -52c-22.667 18.667 -44.334 32.167 -65.001 40.5s-44 12.5 -70 12.5c-52 0 -94.667 -22.167 -128 -66.5s-50 -116.166 -50 -215.499c0 -101.333 14 -173.833 42 -217.5s70 -65.5 126 -65.5
c41.333 0 78.666 10 111.999 30v215h-105l-10 73h205v-331c-63.333 -41.333 -130.666 -62 -201.999 -62c-85.333 0 -151 29.833 -197 89.5s-69 149.5 -69 269.5c0 77.333 12.333 142.666 37 195.999s57.834 93.166 99.501 119.499s87.5 39.5 137.5 39.5
c38.667 0 72.5 -6.16699 101.5 -18.5z" />
    <glyph glyph-name="H" unicode="H" horiz-adv-x="606" 
d="M428 0v323h-250v-323h-93v688h93v-289h250v289h93v-688h-93z" />
    <glyph glyph-name="I" unicode="I" horiz-adv-x="262" 
d="M178 688v-688h-93v688h93z" />
    <glyph glyph-name="J" unicode="J" horiz-adv-x="273" 
d="M193 96c0 -45.333 -6.5 -82.6689 -19.5 -112.002s-31.333 -53 -55 -71s-54.167 -34 -91.5 -48l-25 66c27.333 13.333 47.833 26.833 61.5 40.5s23.167 30.334 28.5 50.001s8 45.834 8 78.501v588h93v-592z" />
    <glyph glyph-name="K" unicode="K" horiz-adv-x="529" 
d="M178 688v-688h-93v688h93zM516 688l-233 -314l249 -374h-107l-243 368l235 320h99z" />
    <glyph glyph-name="L" unicode="L" horiz-adv-x="443" 
d="M178 688v-609h251l-10 -79h-334v688h93z" />
    <glyph glyph-name="M" unicode="M" horiz-adv-x="711" 
d="M656 0h-89l-21 311c-9.33301 139.333 -14.333 235.333 -15 288l-132 -521h-87l-138 521c0.666992 -58 -3 -154.667 -11 -290l-20 -309h-88l53 688h121l128 -509l123 509h123z" />
    <glyph glyph-name="N" unicode="N" horiz-adv-x="607" 
d="M522 0h-120l-245 591c8 -88 12 -173.667 12 -257v-334h-84v688h119l246 -592c-2.66699 23.333 -5.5 55.333 -8.5 96s-4.5 81 -4.5 121v375h85v-688z" />
    <glyph glyph-name="O" unicode="O" horiz-adv-x="628" 
d="M507.5 610.5c47 -60.333 70.5 -149.169 70.5 -266.502c0 -115.333 -23.333 -203.666 -70 -264.999s-111.334 -92 -194.001 -92c-82 0 -146.5 30.167 -193.5 90.5s-70.5 148.833 -70.5 265.5c0 76.667 10.833 141.834 32.5 195.501s52.334 94.167 92.001 121.5
s86.167 41 139.5 41c82 0 146.5 -30.167 193.5 -90.5zM148 342.997c0 -187.333 55.333 -281.001 166 -281.001c54.667 0 96 22.333 124 67s42 116.334 42 215.001c0 98 -14.167 169.667 -42.5 215s-69.5 68 -123.5 68c-110.667 0 -166 -94.667 -166 -284z" />
    <glyph glyph-name="P" unicode="P" horiz-adv-x="523" 
d="M430 635c43.333 -35.333 65 -88.333 65 -159c0 -74.667 -22.167 -130.167 -66.5 -166.5s-105.833 -54.5 -184.5 -54.5h-66v-255h-93v688h156c82.667 0 145.667 -17.667 189 -53zM359 360c26 22 39.001 60.333 39.001 115c0 50 -12.833 86.167 -38.5 108.5
s-64.834 33.5 -117.501 33.5h-64v-290h63c52.667 0 92 11 118 33z" />
    <glyph glyph-name="Q" unicode="Q" horiz-adv-x="628" 
d="M608 -34l-60.001 -73.001c-32.667 34.667 -66.667 59.5 -102 74.5s-80.666 22.5 -135.999 22.5c-52 0 -97.5 13.333 -136.5 40s-69.333 66.334 -91 119.001s-32.5 117.334 -32.5 194.001s10.833 141.834 32.5 195.501s52.334 94.167 92.001 121.5s86.167 41 139.5 41
c82 0 146.5 -30.333 193.5 -91s70.5 -149.334 70.5 -266.001c0 -86 -13.333 -153.167 -40 -201.5s-64.334 -84.5 -113.001 -108.5c70 -0.666992 131 -23.334 183 -68.001zM313.999 61.999c54.667 0 96 22.332 124 66.999s42 116.334 42 215.001s-14.167 170.5 -42.5 215.5
s-69.5 67.5 -123.5 67.5c-110.667 0 -166 -94.667 -166 -284c0 -187.333 55.333 -281 166 -281z" />
    <glyph glyph-name="R" unicode="R" horiz-adv-x="545" 
d="M423 0l-148 292.999h-6h-91v-293h-93v688h161c164 0 246 -64.667 246 -194c0 -45.333 -11 -83.666 -33 -114.999s-54.333 -54.333 -97 -69l164 -310h-103zM360 395.499c23.333 21 35 53.833 35 98.5c0 42 -11.833 73 -35.5 93s-62.167 30 -115.5 30h-66v-253h75
c48 0 83.667 10.5 107 31.5z" />
    <glyph glyph-name="S" unicode="S" horiz-adv-x="496" 
d="M354.5 681c30.333 -13.333 58.8311 -33.3311 85.498 -59.998l-47 -53c-22.667 20 -45.167 34.833 -67.5 44.5s-46.5 14.5 -72.5 14.5c-33.333 0 -60.166 -9.16699 -80.499 -27.5s-30.5 -42.5 -30.5 -72.5c0 -20 4 -37.167 12 -51.5s21.667 -27.333 41 -39
s46.666 -23.5 81.999 -35.5c40.667 -14.667 74 -30.334 100 -47.001s46 -38 60 -64s21 -58.667 21 -98s-9 -74.5 -27 -105.5s-43.833 -55.333 -77.5 -73s-73.167 -26.5 -118.5 -26.5c-83.333 0 -154.333 30 -213 90l49 53c24.667 -22 49.834 -38.833 75.501 -50.5
s54.167 -17.5 85.5 -17.5c39.333 0 70.833 11.167 94.5 33.5s35.5 53.166 35.5 92.499c0 34 -9.5 61 -28.5 81s-53.833 38.667 -104.5 56c-64.667 22.667 -111.167 49 -139.5 79s-42.5 69 -42.5 117c0 34 8.5 64.833 25.5 92.5s40.833 49.167 71.5 64.5
s65.334 23 104.001 23c40.667 0 76.167 -6.66699 106.5 -20z" />
    <glyph glyph-name="T" unicode="T" horiz-adv-x="463" 
d="M458 688l-11 -76h-169v-612h-93v612h-174v76h447z" />
    <glyph glyph-name="U" unicode="U" horiz-adv-x="588" 
d="M514 202c0 -63.333 -19.001 -115 -57.001 -155s-92.333 -60 -163 -60c-71.333 0 -125.666 19.833 -162.999 59.5s-56 91.5 -56 155.5v486h93v-480c0 -96.667 42 -145 126 -145s126 48.333 126 145v480h94v-486z" />
    <glyph glyph-name="V" unicode="V" horiz-adv-x="509" 
d="M501 688l-190 -688h-111l-193 688h96l154 -598l152 598h92z" />
    <glyph glyph-name="W" unicode="W" horiz-adv-x="749" 
d="M726 688l-122 -688h-120l-110 586l-112 -586h-118l-121 688h90l96 -609l115 609h101l115 -609l99 609h87z" />
    <glyph glyph-name="X" unicode="X" horiz-adv-x="488" 
d="M297 372l187 -372h-100l-143 309l-141 -309h-96l182 368l-166 320h100l123 -261l124 261h96z" />
    <glyph glyph-name="Y" unicode="Y" horiz-adv-x="498" 
d="M494 688l-198 -423v-265h-94v264l-198 424h100l147 -344l146 344h97z" />
    <glyph glyph-name="Z" unicode="Z" horiz-adv-x="472" 
d="M437 688v-74l-310 -535h309l-10 -79h-401v74l312 537h-281v77h381z" />
    <glyph glyph-name="bracketleft" unicode="[" horiz-adv-x="289" 
d="M245 813v-72h-103v-786h103v-71h-188v929h188z" />
    <glyph glyph-name="backslash" unicode="\" horiz-adv-x="468" 
d="M166 805l212 -891l-76 -17l-212 892z" />
    <glyph glyph-name="bracketright" unicode="]" horiz-adv-x="289" 
d="M232 813v-929h-188v71h103v786h-103v72h188z" />
    <glyph glyph-name="asciicircum" unicode="^" horiz-adv-x="489" 
d="M284 837l169 -310h-93l-116 233l-115 -233h-92l167 310h80z" />
    <glyph glyph-name="underscore" unicode="_" horiz-adv-x="471" 
d="M19 -139v76h433v-76h-433z" />
    <glyph glyph-name="grave" unicode="`" horiz-adv-x="278" 
d="M71 797l180 -113l-26 -46l-192 87z" />
    <glyph glyph-name="a" unicode="a" horiz-adv-x="490" 
d="M418 72.5c6 -10.333 15.333 -18.168 28 -23.501l-19 -61c-26 4 -46.333 12 -61 24s-25 30.333 -31 55c-34 -53.333 -81.667 -80 -143 -80c-46.667 0 -83.667 14.5 -111 43.5s-41 67.833 -41 116.5c0 56 18.333 98.667 55 128s89 44 157 44h68v45
c0 36.667 -7.5 63.167 -22.5 79.5s-39.5 24.5 -73.5 24.5c-36.667 0 -79.334 -9.33301 -128.001 -28l-22 63c58.667 24 113.334 36 164.001 36c114 0 171 -57 171 -171v-248c0 -21.333 3 -37.166 9 -47.499zM320 136.998l-0.000976562 124h-58
c-86.667 0 -130 -36.333 -130 -109c0 -31.333 7 -55.333 21 -72s34 -25 60 -25c46.667 0 82.334 27.333 107.001 82z" />
    <glyph glyph-name="b" unicode="b" horiz-adv-x="532" 
d="M435.5 468.5c30.333 -47 45.501 -115.167 45.501 -204.5c0 -85.333 -16.5 -152.833 -49.5 -202.5s-77.833 -74.5 -134.5 -74.5c-26.667 0 -51 6.16699 -73 18.5s-41 29.833 -57 52.5l-6 -58h-80v738l90 10v-286c16.667 24 36.5 42.833 59.5 56.5s48.5 20.5 76.5 20.5
c55.333 0 98.166 -23.5 128.499 -70.5zM387.001 264c0 74 -9 126.501 -27 157.501s-43.667 46.5 -77 46.5c-23.333 0 -43.833 -7 -61.5 -21s-34.5 -33.667 -50.5 -59v-261c12.667 -20.667 28 -37.334 46 -50.001s37.667 -19 59 -19c74 0 111 68.667 111 206z" />
    <glyph glyph-name="c" unicode="c" horiz-adv-x="428" 
d="M341 525c23.333 -9.33301 45.668 -23.667 67.001 -43l-40 -54c-16 12.667 -32 22.167 -48 28.5s-33.333 9.5 -52 9.5c-39.333 0 -69.833 -16.667 -91.5 -50s-32.5 -85.333 -32.5 -156c0 -132 41.333 -198 124 -198c18.667 0 35.667 3.16699 51 9.5
s31.666 15.833 48.999 28.5l42 -55c-42.667 -38.667 -91 -58 -145 -58c-67.333 0 -120.166 23.333 -158.499 70s-57.5 114 -57.5 202c0 57.333 8.83301 107 26.5 149s42.667 74.333 75 97s70.166 34 113.499 34c28 0 53.667 -4.66699 77 -14z" />
    <glyph glyph-name="d" unicode="d" horiz-adv-x="536" 
d="M455 739l-0.000976562 -739h-80l-6 69c-34 -54.667 -79.667 -82 -137 -82s-101.833 24.333 -133.5 73s-47.5 115.667 -47.5 201c0 55.333 7.83301 104 23.5 146s37.834 74.5 66.501 97.5s61.667 34.5 99 34.5c50 0 91.667 -21 125 -63v273zM315.499 78
c17.667 13.333 34.167 33 49.5 59v264c-30 44.667 -65 67 -105 67c-35.333 0 -63.333 -17 -84 -51s-30.667 -85.333 -30 -154c0 -70 9.33301 -121.667 28 -155s45 -50 79 -50c24 0 44.833 6.66699 62.5 20z" />
    <glyph glyph-name="e" unicode="e" horiz-adv-x="494" 
d="M448 232h-305.999c2.66699 -61.333 15 -105.5 37 -132.5s52 -40.5 90 -40.5c24 0 45.5 3.66699 64.5 11s38.833 19.333 59.5 36l40 -53c-49.333 -44 -105.333 -66 -168 -66c-68.667 0 -121.834 23.833 -159.501 71.5s-56.5 114.5 -56.5 200.5s18 154.167 54 204.5
s86 75.5 150 75.5c63.333 0 112 -22.5 146 -67.5s51 -109.167 51 -192.5c0 -14 -0.666992 -29.667 -2 -47zM363.001 306c0 110 -36.334 165 -109.001 165c-33.333 0 -59.666 -13.833 -78.999 -41.5s-30.333 -72.5 -33 -134.5h221v11z" />
    <glyph glyph-name="f" unicode="f" horiz-adv-x="306" 
d="M198.5 660c-11.667 -12 -17.5 -30.667 -17.5 -56v-78h118l-10 -68h-108v-458h-90v458h-78v68h78v77c0 44 13.5 79.333 40.5 106s64.5 40 112.5 40c40 0 79.333 -9.66699 118 -29l-27 -62c-27.333 13.333 -54.666 20 -81.999 20c-24.667 0 -42.834 -6 -54.501 -18z" />
    <glyph glyph-name="g" unicode="g" horiz-adv-x="470" 
d="M467 507c-28.667 -11.333 -73.002 -16.999 -133.002 -16.999c56 -28 84 -74 84 -138c0 -52.667 -16.5 -95.167 -49.5 -127.5s-77.833 -48.5 -134.5 -48.5c-21.333 0 -40.666 3.33301 -57.999 10c-18.667 -13.333 -28 -30.333 -28 -51c0 -31.333 22 -47 66 -47h69
c52 0 93.333 -13.167 124 -39.5s46 -59.833 46 -100.5c0 -49.333 -19 -88.166 -57 -116.499s-93.667 -42.5 -167 -42.5c-76 0 -129.833 13 -161.5 39s-47.5 65.667 -47.5 119h81c0 -22 3.83301 -39.5 11.5 -52.5s20.667 -22.667 39 -29s44.5 -9.5 78.5 -9.5
c47.333 0 81.333 7.33301 102 22s31 35.667 31 63c0 25.333 -8.5 44.666 -25.5 57.999s-41.167 20 -72.5 20h-59c-46 0 -80.333 8.83301 -103 26.5s-34 41.167 -34 70.5c0 34 18.333 64.333 55 91c-28 16 -48.833 36.167 -62.5 60.5s-20.5 53.833 -20.5 88.5
c0 54.667 17.333 98.667 52 132s80.334 50 137.001 50c52.667 0 93.5 3.66699 122.5 11s58.833 18.666 89.5 33.999zM156.498 444.501c-17 -20.333 -25.499 -49.833 -25.499 -88.5c0 -37.333 8.83301 -66.5 26.5 -87.5s42.167 -31.5 73.5 -31.5c66 0 99 40 99 120
c0 38.667 -8.33301 68 -25 88s-41.334 30 -74.001 30s-57.5 -10.167 -74.5 -30.5z" />
    <glyph glyph-name="h" unicode="h" horiz-adv-x="527" 
d="M414.5 497c23.667 -28 35.502 -66 35.502 -114v-383h-90v372c0 34 -5.83301 58.5 -17.5 73.5s-28.834 22.5 -51.501 22.5c-44 0 -84 -31.333 -120 -94v-374h-90v738l90 10v-297c19.333 28.667 40.666 50.5 63.999 65.5s50.333 22.5 81 22.5c42 0 74.833 -14 98.5 -42z
" />
    <glyph glyph-name="i" unicode="i" horiz-adv-x="252" 
d="M171 526v-526h-90v526h90zM168.5 757c11 -11.333 16.5 -25.333 16.5 -42s-5.33301 -30.5 -16 -41.5s-25 -16.5 -43 -16.5c-17.333 0 -31.5 5.5 -42.5 16.5s-16.5 24.833 -16.5 41.5s5.5 30.667 16.5 42s25.167 17 42.5 17s31.5 -5.66699 42.5 -17z" />
    <glyph glyph-name="j" unicode="j" horiz-adv-x="252" 
d="M171 21c0 -44.667 -5.83203 -81.167 -17.499 -109.5s-28.334 -51.333 -50.001 -69s-50.834 -35.167 -87.501 -52.5l-28 65c23.333 12 41.333 24 54 36s22.334 28 29.001 48s10 46.667 10 80v507h90v-505zM168.501 757c11 -11.333 16.5 -25.333 16.5 -42
s-5.33301 -30.5 -16 -41.5s-25 -16.5 -43 -16.5c-17.333 0 -31.5 5.5 -42.5 16.5s-16.5 24.833 -16.5 41.5s5.5 30.667 16.5 42s25.167 17 42.5 17s31.5 -5.66699 42.5 -17z" />
    <glyph glyph-name="k" unicode="k" horiz-adv-x="466" 
d="M171 749v-749h-90v739zM448 526l-178 -234l195 -292h-100l-189 288l178 238h94z" />
    <glyph glyph-name="l" unicode="l" horiz-adv-x="264" 
d="M104 16c-18.667 19.333 -28.002 46.333 -28.002 81v642l90 10v-649c0 -26 10.667 -39 32 -39c8.66699 0 18.334 2 29.001 6l20 -63c-21.333 -11.333 -43.666 -17 -66.999 -17c-32 0 -57.333 9.66699 -76 29z" />
    <glyph glyph-name="m" unicode="m" horiz-adv-x="769" 
d="M658 496.5c22.667 -28.333 34 -66.166 34 -113.499v-383h-89v373c0 64 -20.667 96 -62 96c-40 0 -76.667 -30.667 -110 -92v-377h-89v373c0 64 -20.667 96 -62 96c-40.667 0 -77.334 -30.667 -110.001 -92v-377h-89v526h78l7 -77c38.667 60 85.334 90 140.001 90
c28.667 0 53 -8.33301 73 -25s34.333 -40.334 43 -71.001c40.667 64 89 96 145 96c38 0 68.333 -14.167 91 -42.5z" />
    <glyph glyph-name="n" unicode="n" horiz-adv-x="527" 
d="M414.5 497.5c23.667 -27.667 35.499 -65.833 35.499 -114.5v-383h-90v372c0 34 -5.66699 58.5 -17 73.5s-28.666 22.5 -51.999 22.5c-44 0 -84 -31.333 -120 -94v-374h-90v526h78l7 -78c40.667 60.667 90.667 91 150 91c42 0 74.833 -13.833 98.5 -41.5z" />
    <glyph glyph-name="o" unicode="o" horiz-adv-x="526" 
d="M421 468c37.333 -47.333 56.001 -115.333 56.001 -204c0 -85.333 -19 -152.833 -57 -202.5s-90.333 -74.5 -157 -74.5c-67.333 0 -119.833 24.333 -157.5 73s-56.5 116.334 -56.5 203.001c0 87.333 19 155.166 57 203.499s90.667 72.5 158 72.5
s119.666 -23.667 156.999 -71zM174.001 417.5c-20.667 -33 -31 -84.5 -31 -154.5c0 -136.667 40 -205 120 -205s120 68.667 120 206c0 70 -10 121.333 -30 154s-49.667 49 -89 49s-69.333 -16.5 -90 -49.5z" />
    <glyph glyph-name="p" unicode="p" horiz-adv-x="532" 
d="M437.5 468c29 -47.333 43.5 -115 43.5 -203c0 -85.333 -16.167 -153 -48.5 -203s-77.5 -75 -135.5 -75c-52 0 -94 21 -126 63v-250l-90 -11v737h79l5 -71c36 56 83.667 84 143 84c57.333 0 100.5 -23.667 129.5 -71zM387 264c0 71.333 -8.5 123.167 -25.5 155.5
s-42.833 48.5 -77.5 48.5c-23.333 0 -44 -7 -62 -21s-35 -33 -51 -57v-266c27.333 -43.333 62.333 -65 105 -65c74 0 111 68.333 111 205z" />
    <glyph glyph-name="q" unicode="q" horiz-adv-x="536" 
d="M455 526l0.00195312 -737l-90 11v266c-14.667 -24.667 -33.334 -44 -56.001 -58s-48.667 -21 -78 -21c-56.667 0 -100.834 24.167 -132.501 72.5s-47.5 115.5 -47.5 201.5c0 55.333 7.83301 104 23.5 146s37.667 74.5 66 97.5s61.5 34.5 99.5 34.5
c52.667 0 96.667 -23.667 132 -71l5 58h78zM316.002 78c17.333 13.333 33.667 33.667 49 61v261c-29.333 45.333 -64.333 68 -105 68c-35.333 0 -63.333 -17 -84 -51s-30.667 -85.333 -30 -154c0 -136.667 35.667 -205 107 -205c24.667 0 45.667 6.66699 63 20z" />
    <glyph glyph-name="r" unicode="r" horiz-adv-x="349" 
d="M342 532l-15 -87c-12.667 4 -26.334 6 -41.001 6c-29.333 0 -53.166 -11.667 -71.499 -35s-32.833 -59 -43.5 -107v-309h-90v526h78l7 -104c26 77.333 69.667 116 131 116c17.333 0 32.333 -2 45 -6z" />
    <glyph glyph-name="s" unicode="s" horiz-adv-x="427" 
d="M379 479l-38.002 -53.001c-21.333 14.667 -41.333 25.667 -60 33s-38.334 11 -59.001 11c-27.333 0 -48.833 -6.5 -64.5 -19.5s-23.5 -30.833 -23.5 -53.5c0 -22 7.5 -39.333 22.5 -52s43.5 -25.667 85.5 -39c52.667 -16.667 91 -37 115 -61s36 -57 36 -99
c0 -49.333 -18 -88.166 -54 -116.499s-81 -42.5 -135 -42.5c-71.333 0 -131.666 23.667 -180.999 71l46 50c42 -34 86.333 -51 133 -51c29.333 0 53 7.33301 71 22s27 35 27 61c0 18.667 -3.16699 33.667 -9.5 45s-17.666 21.5 -33.999 30.5s-40.166 18.5 -71.499 28.5
c-50 16.667 -86 36.667 -108 60s-33 53 -33 89c0 28 7.33301 53 22 75s35 39.333 61 52s56 19 90 19c60.667 0 114.667 -20 162 -60z" />
    <glyph glyph-name="t" unicode="t" horiz-adv-x="327" 
d="M330 23c-33.333 -24 -70.333 -36.001 -111 -36.001c-42.667 0 -75.5 12.333 -98.5 37s-34.5 59.334 -34.5 104.001v330h-75v68h75v121l90 11v-132h116l-10 -68h-106v-329c0 -45.333 19 -68 57 -68c11.333 0 21.833 1.66699 31.5 5s20.5 8.33301 32.5 15z" />
    <glyph glyph-name="u" unicode="u" horiz-adv-x="523" 
d="M442 0h-78l-5 79c-36.667 -61.333 -85.667 -92 -147 -92c-42 0 -75 13.667 -99 41s-36 64.333 -36 111v387h90v-379c0 -30.667 5.83301 -53.167 17.5 -67.5s29.167 -21.5 52.5 -21.5c44.667 0 83 29.333 115 88v380h90v-526z" />
    <glyph glyph-name="v" unicode="v" horiz-adv-x="445" 
d="M436 526l-157 -526h-108l-162 526h94l122 -450l121 450h90z" />
    <glyph glyph-name="w" unicode="w" horiz-adv-x="655" 
d="M636 526l-108 -526h-114l-86 444l-85 -444h-114l-110 526h89l82 -458l92 458h97l89 -459l83 459h85z" />
    <glyph glyph-name="x" unicode="x" horiz-adv-x="438" 
d="M272 282l162 -282h-99l-118 228l-117 -228h-96l162 278l-144 248h98l99 -196l99 196h95z" />
    <glyph glyph-name="y" unicode="y" horiz-adv-x="446" 
d="M279 -2c-18.667 -62 -45 -110 -79 -144s-82.333 -55.667 -145 -65l-10 67c31.333 6.66699 56.333 15.667 75 27s33.667 26 45 44s22.333 42.333 33 73h-33l-156 526h93l122 -463l122 463h92z" />
    <glyph glyph-name="z" unicode="z" horiz-adv-x="395" 
d="M368 526v-67l-249 -385h250l-9 -74h-340v67l249 385h-228v74h327z" />
    <glyph glyph-name="braceleft" unicode="{" horiz-adv-x="292" 
d="M250 767c-28 0 -47.832 -5.50293 -59.499 -16.5029s-17.5 -29.167 -17.5 -54.5v-236c0 -35.333 -6 -60.666 -18 -75.999s-31.667 -27 -59 -35c27.333 -7.33301 47.166 -18.666 59.499 -33.999s18.5 -40.666 18.5 -75.999v-235c0 -26 5.66699 -44.333 17 -55
s31 -16 59 -16v-67c-58 0 -99 11.333 -123 34s-36 58.667 -36 108v230c0 26.667 -5 45.667 -15 57s-26.333 17 -49 17v75c23.333 0 39.833 5.83301 49.5 17.5s14.5 30.834 14.5 57.501v230c0 49.333 12 85.166 36 107.499s65 33.5 123 33.5v-66z" />
    <glyph glyph-name="bar" unicode="|" horiz-adv-x="355" 
d="M220 807v-909h-84v909h84z" />
    <glyph glyph-name="braceright" unicode="}" horiz-adv-x="292" 
d="M165.5 799.5c24.333 -22.333 36.5 -58.165 36.5 -107.498v-230c0 -26.667 4.83301 -45.834 14.5 -57.501s26.167 -17.5 49.5 -17.5v-75c-22.667 0 -39 -5.66699 -49 -17s-15 -30.333 -15 -57v-230c0 -49.333 -12.167 -85.333 -36.5 -108s-65.5 -34 -123.5 -34v67
c28 0 47.833 5.33301 59.5 16s17.5 29 17.5 55v235c0 35.333 6 60.5 18 75.5s32 26.5 60 34.5c-28 8 -48 19.667 -60 35s-18 40.666 -18 75.999v236c0 25.333 -5.83301 43.5 -17.5 54.5s-31.167 16.5 -58.5 16.5l-1 66c58 0 99.167 -11.167 123.5 -33.5z" />
    <glyph glyph-name="asciitilde" unicode="~" horiz-adv-x="443" 
d="M250.5 262.5c-13 5.66699 -28.1689 14.166 -45.502 25.499c-2.66699 1.33301 -8.16699 4.5 -16.5 9.5s-15.833 8.66699 -22.5 11s-13 3.5 -19 3.5c-13.333 0 -24.666 -4.33301 -33.999 -13s-19 -20.667 -29 -36l-50 27c14 27.333 30.333 49.5 49 66.5
s41.667 25.5 69 25.5c16 0 30 -2.66699 42 -8s27.333 -13.666 46 -24.999c13.333 -8.66699 24 -15 32 -19s16.333 -6 25 -6c12.667 0 23.834 4 33.501 12s19.167 19.333 28.5 34l50 -27c-14 -26.667 -30.167 -48.167 -48.5 -64.5s-40.5 -24.5 -66.5 -24.5
c-16 0 -30.5 2.83301 -43.5 8.5z" />
    <glyph glyph-name="uni00A0" unicode="&#xa0;" horiz-adv-x="236" 
 />
    <glyph glyph-name="exclamdown" unicode="&#xa1;" horiz-adv-x="229" 
d="M159.5 470.5c11.667 -12.333 17.5 -27.5 17.5 -45.5c0 -17.333 -5.83301 -32.166 -17.5 -44.499s-26.5 -18.5 -44.5 -18.5c-18.667 0 -33.834 6.16699 -45.501 18.5s-17.5 27.166 -17.5 44.499c0 18 5.83301 33.167 17.5 45.5s26.834 18.5 45.501 18.5
c18 0 32.833 -6.16699 44.5 -18.5zM152 248l11 -450h-96l11 450h74z" />
    <glyph glyph-name="cent" unicode="&#xa2;" horiz-adv-x="428" 
d="M294 -11l0.00292969 -143h-71v144c-54.667 9.33301 -97.334 37 -128.001 83s-46 108 -46 186c0 77.333 15.5 140.333 46.5 189s73.833 77.667 128.5 87v149h70v-147c41.333 -4.66699 79.333 -23 114 -55l-40 -54c-16 12.667 -32 22.167 -48 28.5s-33.333 9.5 -52 9.5
c-39.333 0 -69.833 -16.667 -91.5 -50s-32.5 -85.333 -32.5 -156c0 -132 41.333 -198 124 -198c18.667 0 35.667 3.16699 51 9.5s31.666 15.833 48.999 28.5l42 -55c-34.667 -31.333 -73.334 -50 -116.001 -56z" />
    <glyph glyph-name="sterling" unicode="&#xa3;" horiz-adv-x="472" 
d="M186.5 121c-9 -18 -25.835 -33.668 -50.502 -47.001h293l-10 -74h-382v70c30.667 12.667 50.834 27.334 60.501 44.001s14.5 43.667 14.5 81v129h-60v56h60v119c0 53.333 15 96.833 45 130.5s72 50.5 126 50.5c34 0 64.167 -6.83301 90.5 -20.5s49.833 -34.5 70.5 -62.5
l-56 -42c-14.667 18.667 -29.5 32.334 -44.5 41.001s-32.833 13 -53.5 13c-29.333 0 -51.666 -9.33301 -66.999 -28s-23 -45.334 -23 -80.001v-121h182v-56h-182v-127c0 -32.667 -4.5 -58 -13.5 -76z" />
    <glyph glyph-name="currency" unicode="&#xa4;" 
d="M427 92l-69.001 76.999c-29.333 -21.333 -65 -32 -107 -32c-39.333 0 -74.333 11 -105 33l-70 -78l-48 45l74 81c-22 34.667 -33 75.667 -33 123c0 45.333 10.667 86 32 122l-75 83l51 44l69 -78c30.667 22 65.667 33 105 33c40.667 0 76.334 -11 107.001 -33l70 78
l48 -45l-73 -80c22.667 -35.333 34 -76.666 34 -123.999s-11 -88.333 -33 -123l74 -82zM331.999 238.999c18 23.333 27 57.666 27 102.999s-9 79.5 -27 102.5s-44.667 34.5 -80 34.5s-62 -11.667 -80 -35s-27 -57.333 -27 -102c0 -45.333 9 -79.666 27 -102.999
s44.667 -35 80 -35s62 11.667 80 35z" />
    <glyph glyph-name="yen" unicode="&#xa5;" horiz-adv-x="483" 
d="M479 669l-170 -325h100v-58h-122v-92h122v-57h-122v-137h-91v137h-121v57h121v92h-121v58h99l-170 325h95l144 -301l144 301h92z" />
    <glyph glyph-name="brokenbar" unicode="&#xa6;" horiz-adv-x="355" 
d="M220 807v-364h-84v364h84zM220 262v-364h-84v364h84z" />
    <glyph glyph-name="section" unicode="&#xa7;" horiz-adv-x="486" 
d="M389 128.5c8 -15.667 11.998 -34.166 11.998 -55.499c0 -44 -16 -79.167 -48 -105.5s-73.667 -39.5 -125 -39.5c-60 0 -113 16.333 -159 49l34 57c37.333 -25.333 78 -38 122 -38c27.333 0 49 6.33301 65 19s24 30 24 52c0 15.333 -2.83301 27.833 -8.5 37.5
s-16.167 19 -31.5 28s-38.666 19.167 -69.999 30.5c-50.667 18.667 -86.834 38.5 -108.501 59.5s-32.5 50.5 -32.5 88.5c0 24.667 6.33301 47.5 19 68.5s30.667 39.167 54 54.5c-17.333 12.667 -30 27.167 -38 43.5s-12 35.5 -12 57.5c0 43.333 15.833 78.166 47.5 104.499
s71.834 39.5 120.501 39.5c32 0 60.5 -4.5 85.5 -13.5s48.5 -22.167 70.5 -39.5l-34 -53c-38 25.333 -77 38 -117 38c-27.333 0 -48.5 -6.5 -63.5 -19.5s-22.5 -30.167 -22.5 -51.5c0 -16 2.83301 -29 8.5 -39s16.167 -19.667 31.5 -29s39 -20 71 -32
c48.667 -18 83.834 -37.667 105.501 -59s32.5 -49.666 32.5 -84.999c0 -50 -23.333 -91.667 -70 -125c16.667 -12.667 29 -26.834 37 -42.501zM163.998 266.501c12.667 -13 37.999 -26.5 75.999 -40.5c30.667 -12 51.334 -20.667 62.001 -26c26 25.333 39 53 39 83
c0 22.667 -6.66699 40.834 -20 54.501s-40 28.167 -80 43.5c-14 5.33301 -33.333 13.666 -58 24.999c-25.333 -25.333 -38 -53 -38 -83c0 -24.667 6.33301 -43.5 19 -56.5z" />
    <glyph glyph-name="dieresis" unicode="&#xa8;" horiz-adv-x="352" 
d="M123 747c10 -10 15 -22.667 15 -38s-5 -28.166 -15 -38.499s-22.333 -15.5 -37 -15.5c-15.333 0 -28 5.16699 -38 15.5s-15 23.166 -15 38.499s5 28 15 38s22.667 15 38 15c14.667 0 27 -5 37 -15zM310 747c10 -10 15 -22.667 15 -38s-5 -28.166 -15 -38.499
s-22.333 -15.5 -37 -15.5s-27.167 5.16699 -37.5 15.5s-15.5 23.166 -15.5 38.499s5 28 15 38s22.667 15 38 15c14.667 0 27 -5 37 -15z" />
    <glyph glyph-name="copyright" unicode="&#xa9;" horiz-adv-x="729" 
d="M508.5 707c43 -26 76.833 -62.667 101.5 -110s37 -101.666 37 -162.999s-12.333 -115.666 -37 -162.999s-58.5 -84 -101.5 -110s-90.833 -39 -143.5 -39s-100.5 13 -143.5 39s-77 62.667 -102 110s-37.5 101.666 -37.5 162.999s12.5 115.666 37.5 162.999s59 84 102 110
s90.833 39 143.5 39s100.5 -13 143.5 -39zM249.5 663c-34.333 -21.333 -61.167 -51.832 -80.5 -91.499s-29 -85.5 -29 -137.5s9.66699 -97.667 29 -137s46 -69.5 80 -90.5s72.667 -31.5 116 -31.5s82 10.5 116 31.5s60.667 51.167 80 90.5s29 85 29 137
c0 52.667 -9.66699 98.667 -29 138s-46 69.666 -80 90.999s-72.667 32 -116 32c-42.667 0 -81.167 -10.667 -115.5 -32zM422.499 612.001c16.333 -6.66699 32.1641 -16.6689 47.4971 -30.002l-31 -42c-11.333 8.66699 -22.166 14.834 -32.499 18.501
s-22.166 5.5 -35.499 5.5c-22.667 0 -41.5 -10.167 -56.5 -30.5s-22.5 -53.166 -22.5 -98.499c0 -44 7.33301 -76.333 22 -97s34.334 -31 59.001 -31c14 0 26.5 2.33301 37.5 7s22.5 11.667 34.5 21l29 -43c-31.333 -30 -67 -45 -107 -45c-43.333 0 -78.333 16.333 -105 49
s-40 79 -40 139s13.833 106.167 41.5 138.5s62.5 48.5 104.5 48.5c20 0 38.167 -3.33301 54.5 -10z" />
    <glyph glyph-name="ordfeminine" unicode="&#xaa;" horiz-adv-x="455" 
d="M281 524l-0.000976562 29.998c0 24.667 -5.66699 42.334 -17 53.001s-30.333 16 -57 16s-60 -7 -100 -21l-21 59c46.667 18 91.334 27 134.001 27c95.333 0 143 -42.333 143 -127v-182c0 -14.667 2.16699 -25.667 6.5 -33s11.5 -13 21.5 -17l-17 -57
c-20.667 2.66699 -37.5 8.5 -50.5 17.5s-22.5 22.167 -28.5 39.5c-26 -38.667 -63.667 -58 -113 -58c-38 0 -68.167 11.167 -90.5 33.5s-33.5 51.5 -33.5 87.5c0 42.667 14.833 75.334 44.5 98.001s71.167 34 124.5 34h54zM280.999 385.998l0.000976562 86h-47
c-30.667 0 -53.5 -6 -68.5 -18s-22.5 -30.667 -22.5 -56c0 -20.667 5.16699 -36.5 15.5 -47.5s24.833 -16.5 43.5 -16.5c33.333 0 59.666 17.333 78.999 52zM61 72.998h342v-72h-342v72z" />
    <glyph glyph-name="guillemotleft" unicode="&#xab;" horiz-adv-x="538" 
d="M212 532l55 -36l-124 -209l124 -209l-55 -37l-157 215v60zM428 532l55 -36l-124 -209l124 -209l-55 -37l-157 215v60z" />
    <glyph glyph-name="logicalnot" unicode="&#xac;" horiz-adv-x="460" 
d="M406 359v-211h-79v139h-273v72h352z" />
    <glyph glyph-name="uni00AD" unicode="&#xad;" horiz-adv-x="369" 
d="M55 276v74h259v-74h-259z" />
    <glyph glyph-name="registered" unicode="&#xae;" horiz-adv-x="575" 
d="M404.5 713.5c35 -21.667 62.5 -51.666 82.5 -89.999s30 -81.833 30 -130.5c0 -48 -10 -91.167 -30 -129.5s-47.5 -68.333 -82.5 -90s-74.167 -32.5 -117.5 -32.5c-42.667 0 -81.5 10.667 -116.5 32s-62.5 51.166 -82.5 89.499s-30 81.5 -30 129.5s10 91.333 30 130
s47.5 69 82.5 91s73.833 33 116.5 33c43.333 0 82.5 -10.833 117.5 -32.5zM379.5 313.501c27 17 48.1689 41 63.502 72s23 66.833 23 107.5s-7.66699 76.667 -23 108s-36.5 55.5 -63.5 72.5s-57.833 25.5 -92.5 25.5c-33.333 0 -63.5 -8.66699 -90.5 -26
s-48.333 -41.666 -64 -72.999s-23.5 -67.333 -23.5 -108s7.66699 -76.334 23 -107.001s36.666 -54.5 63.999 -71.5s57.666 -25.5 90.999 -25.5c34.667 0 65.5 8.5 92.5 25.5zM368.002 504.501c-10 -12.333 -23.667 -21.5 -41 -27.5l66 -117h-57l-54 107h-28v-107h-49v275h68
c73.333 0 110 -28 110 -84c0 -18.667 -5 -34.167 -15 -46.5zM254.002 510.001h30.999c31.333 0 47 14 47 42c0 14.667 -4.16699 25.167 -12.5 31.5s-21.166 9.5 -38.499 9.5h-27v-83z" />
    <glyph glyph-name="macron" unicode="&#xaf;" horiz-adv-x="302" 
d="M275 669h-242v66h242v-66z" />
    <glyph glyph-name="degree" unicode="&#xb0;" horiz-adv-x="469" 
d="M124.5 403.5c-22.333 12.333 -40.333 30.333 -54 54s-20.5 52.167 -20.5 85.5c0 32.667 6.83301 61 20.5 85s31.667 42.167 54 54.5s46.5 18.5 72.5 18.5s50.167 -6.16699 72.5 -18.5s40.166 -30.333 53.499 -54s20 -52.167 20 -85.5s-6.66699 -61.833 -20 -85.5
s-31.166 -41.667 -53.499 -54s-46.5 -18.5 -72.5 -18.5s-50.167 6.16699 -72.5 18.5zM253.5 469c14.333 16.667 21.5 41.334 21.5 74.001c0 32 -7.16699 56.333 -21.5 73s-33.166 25 -56.499 25s-42.166 -8.16699 -56.499 -24.5s-21.5 -40.833 -21.5 -73.5
s7.16699 -57.334 21.5 -74.001s33.166 -25 56.499 -25s42.166 8.33301 56.499 25z" />
    <glyph glyph-name="plusminus" unicode="&#xb1;" horiz-adv-x="457" 
d="M56 0v72h345v-72h-345zM267 547v-150h136v-74h-136v-149h-77v149h-136v74h136v150h77z" />
    <glyph glyph-name="uni00B2" unicode="&#xb2;" horiz-adv-x="362" 
d="M268 712c22.667 -22 33.998 -49.999 33.998 -83.999c0 -24 -4.83301 -46.5 -14.5 -67.5s-25.667 -44.833 -48 -71.5s-56.166 -62.667 -101.499 -108h174l-8 -59h-244v55c50 53.333 86 93.166 108 119.499s37.667 49 47 68s14 38.833 14 59.5c0 20 -5.33301 35.5 -16 46.5
s-25 16.5 -43 16.5c-15.333 0 -29.166 -3.5 -41.499 -10.5s-24.833 -17.5 -37.5 -31.5l-42 33c33.333 44.667 76 67 128 67c38 0 68.333 -11 91 -33z" />
    <glyph glyph-name="uni00B3" unicode="&#xb3;" horiz-adv-x="362" 
d="M269.5 716c21.667 -20 32.502 -45.668 32.502 -77.001c0 -25.333 -7 -46.166 -21 -62.499s-34.333 -27.5 -61 -33.5c28.667 -2 51.667 -11.667 69 -29s26 -42 26 -74c0 -36.667 -12.833 -67 -38.5 -91s-60.5 -36 -104.5 -36c-52 0 -94.333 20 -127 60l40 36
c13.333 -13.333 26.666 -23.166 39.999 -29.499s27.666 -9.5 42.999 -9.5c22.667 0 40.5 6.66699 53.5 20s19.5 31.333 19.5 54c0 24.667 -6.33301 42.5 -19 53.5s-31.334 16.5 -56.001 16.5h-28l8 52h19c20 0 36.167 5.66699 48.5 17s18.5 27.333 18.5 48
c0 19.333 -5.5 34.166 -16.5 44.499s-25.833 15.5 -44.5 15.5c-14.667 0 -28.5 -2.83301 -41.5 -8.5s-26.5 -14.5 -40.5 -26.5l-35 38c18 18 37.167 31.167 57.5 39.5s42.833 12.5 67.5 12.5c38.667 0 68.834 -10 90.501 -30z" />
    <glyph glyph-name="acute" unicode="&#xb4;" horiz-adv-x="278" 
d="M213 797l38 -72l-192 -87l-26 46z" />
    <glyph glyph-name="uni00B5" unicode="&#xb5;" horiz-adv-x="528" 
d="M383 -12c-6.66699 17.333 -11.498 32.8311 -14.498 46.498s-5.83301 31.5 -8.5 53.5c-15.333 -29.333 -33.333 -53.166 -54 -71.499s-44.334 -27.5 -71.001 -27.5c-20.667 0 -37.834 4.33301 -51.501 13s-25.5 22.667 -35.5 42c7.33301 -22 12.5 -43 15.5 -63
s4.5 -45 4.5 -75v-107l-87 -9v736h90v-373c0 -31.333 6.33301 -54.166 19 -68.499s29.667 -21.5 51 -21.5c45.333 0 82.333 32.333 111 97v366h90v-347c0 -66.667 7.66699 -126.667 23 -180z" />
    <glyph glyph-name="paragraph" unicode="&#xb6;" horiz-adv-x="668" 
d="M545 688v-888.001l-80 -13v832h-102v-819l-80 -13v496c-68.667 3.33301 -120 23.333 -154 60s-51 84.334 -51 143.001c0 64.667 19.5 114.5 58.5 149.5s93.833 52.5 164.5 52.5h244z" />
    <glyph glyph-name="periodcentered" unicode="&#xb7;" horiz-adv-x="212" 
d="M150.5 357.5c11.667 -12.333 17.5 -27.166 17.5 -44.499s-5.83301 -32.333 -17.5 -45s-26.834 -19 -45.501 -19c-18 0 -32.833 6.33301 -44.5 19s-17.5 27.667 -17.5 45s5.83301 32.166 17.5 44.499s26.5 18.5 44.5 18.5c18.667 0 33.834 -6.16699 45.501 -18.5z" />
    <glyph glyph-name="cedilla" unicode="&#xb8;" horiz-adv-x="256" 
d="M142 -60c29.333 -3.33301 51.168 -12.1689 65.501 -26.502s21.5 -33.166 21.5 -56.499c0 -30 -10.5 -53.5 -31.5 -70.5s-47.833 -25.5 -80.5 -25.5c-33.333 0 -61.333 8 -84 24l24 46c17.333 -8.66699 35.666 -13 54.999 -13c14 0 25.167 3.33301 33.5 10
s12.5 16.334 12.5 29.001c0 14.667 -6.5 25.5 -19.5 32.5s-33.5 10.5 -61.5 10.5l12 116h53v-76z" />
    <glyph glyph-name="uni00B9" unicode="&#xb9;" horiz-adv-x="362" 
d="M248 738v-416h-70v343l-88 -56l-33 47l128 82h63z" />
    <glyph glyph-name="ordmasculine" unicode="&#xba;" horiz-adv-x="454" 
d="M356 634.5c30.667 -35.667 46 -87.167 46 -154.5c0 -65.333 -15.5 -116.5 -46.5 -153.5s-73.833 -55.5 -128.5 -55.5c-55.333 0 -98.5 18 -129.5 54s-46.5 87.667 -46.5 155c0 65.333 15.667 116.333 47 153s74.333 55 129 55c55.333 0 98.333 -17.833 129 -53.5z
M159.5 589.5c-15 -22.333 -22.5 -58.833 -22.5 -109.5s7.5 -87.334 22.5 -110.001s37.5 -34 67.5 -34c29.333 0 51.5 11.333 66.5 34s22.5 59.334 22.5 110.001c0 51.333 -7.33301 88 -22 110s-37 33 -67 33s-52.5 -11.167 -67.5 -33.5zM54 0v72h345v-72h-345z" />
    <glyph glyph-name="guillemotright" unicode="&#xbb;" horiz-adv-x="534" 
d="M110 532l157 -216v-60l-157 -215l-55 37l124 209l-124 209zM322 532l157 -216v-60l-157 -215l-55 37l124 209l-124 209z" />
    <glyph glyph-name="onequarter" unicode="&#xbc;" horiz-adv-x="847" 
d="M248 688v-416h-70v343l-88 -56l-33 47l128 82h63zM579 751l57 -26l-367 -801l-57 25zM809 153v-56h-48v-97h-68v97h-171v51l114 276l60 -23l-101 -248h99l11 108h56v-108h48z" />
    <glyph glyph-name="onehalf" unicode="&#xbd;" horiz-adv-x="847" 
d="M248 688v-416h-70v343l-88 -56l-33 47l128 82h63zM579 751l57 -26l-367 -801l-57 25zM753 390c22.667 -22 33.998 -49.999 33.998 -83.999c0 -24 -4.83301 -46.5 -14.5 -67.5s-25.667 -44.833 -48 -71.5s-56.166 -62.667 -101.499 -108h174l-8 -59h-244v55
c50 53.333 86 93.166 108 119.499s37.667 49 47 68s14 38.833 14 59.5c0 20 -5.33301 35.5 -16 46.5s-25 16.5 -43 16.5c-15.333 0 -29.166 -3.5 -41.499 -10.5s-24.833 -17.5 -37.5 -31.5l-42 33c33.333 44.667 76 67 128 67c38 0 68.333 -11 91 -33z" />
    <glyph glyph-name="threequarters" unicode="&#xbe;" horiz-adv-x="847" 
d="M269.5 666c21.667 -20 32.502 -45.668 32.502 -77.001c0 -25.333 -7 -46.166 -21 -62.499s-34.333 -27.5 -61 -33.5c28.667 -2 51.667 -11.667 69 -29s26 -42 26 -74c0 -36.667 -12.833 -67 -38.5 -91s-60.5 -36 -104.5 -36c-52 0 -94.333 20 -127 60l40 36
c13.333 -13.333 26.666 -23.166 39.999 -29.499s27.666 -9.5 42.999 -9.5c22.667 0 40.5 6.66699 53.5 20s19.5 31.333 19.5 54c0 24.667 -6.33301 42.5 -19 53.5s-31.334 16.5 -56.001 16.5h-28l8 52h19c20 0 36.167 5.66699 48.5 17s18.5 27.333 18.5 48
c0 19.333 -5.5 34.166 -16.5 44.499s-25.833 15.5 -44.5 15.5c-14.667 0 -28.5 -2.83301 -41.5 -8.5s-26.5 -14.5 -40.5 -26.5l-35 38c18 18 37.167 31.167 57.5 39.5s42.833 12.5 67.5 12.5c38.667 0 68.834 -10 90.501 -30zM579.002 750.999l57 -26l-367 -801l-57 25z
M809.002 152.999v-56h-48v-97h-68v97h-171v51l114 276l60 -23l-101 -248h99l11 108h56v-108h48z" />
    <glyph glyph-name="questiondown" unicode="&#xbf;" horiz-adv-x="422" 
d="M188.5 380.5c-11.667 12.333 -17.5 27.166 -17.5 44.499s5.83301 32.166 17.5 44.499s26.834 18.5 45.501 18.5c18 0 32.833 -6.16699 44.5 -18.5s17.5 -27.166 17.5 -44.499s-5.83301 -32.166 -17.5 -44.499s-26.5 -18.5 -44.5 -18.5
c-18.667 0 -33.834 6.16699 -45.501 18.5zM109.5 -193c-26.333 14 -46.1689 32.665 -59.502 55.998s-20 48.333 -20 75c0 24.667 4 46 12 64s17.833 32.833 29.5 44.5s26.834 24.834 45.501 39.501c25.333 19.333 44.333 37.5 57 54.5s19 39.167 19 66.5v38h85v-42
c0 -27.333 -4.16699 -50.5 -12.5 -69.5s-18.166 -34.333 -29.499 -46s-26.666 -25.167 -45.999 -40.5c-22.667 -17.333 -39.667 -33.5 -51 -48.5s-17 -34.167 -17 -57.5c0 -25.333 8 -45.166 24 -59.499s37.667 -21.5 65 -21.5c23.333 0 45 5.5 65 16.5
s39.667 28.167 59 51.5l57 -44c-25.333 -32.667 -53.333 -57.167 -84 -73.5s-65.334 -24.5 -104.001 -24.5c-36.667 0 -68.167 7 -94.5 21z" />
    <glyph glyph-name="Agrave" unicode="&#xc0;" horiz-adv-x="526" 
d="M423 0l-46 175h-231l-46 -175h-93l199 688h114l199 -688h-96zM165 248h193l-96 366zM187 908l181 -105l-24 -48l-194 80z" />
    <glyph glyph-name="Aacute" unicode="&#xc1;" horiz-adv-x="526" 
d="M423 0l-46 175h-231l-46 -175h-93l199 688h114l199 -688h-96zM165 248h193l-96 366zM334 908l38 -73l-194 -79l-24 47z" />
    <glyph glyph-name="Acircumflex" unicode="&#xc2;" horiz-adv-x="526" 
d="M423 0l-46 175h-231l-46 -175h-93l199 688h114l199 -688h-96zM165 248h193l-96 366zM148 761l-35 39l122 112h55l121 -112l-35 -39l-114 81z" />
    <glyph glyph-name="Atilde" unicode="&#xc3;" horiz-adv-x="526" 
d="M423 0l-46 175h-231l-46 -175h-93l199 688h114l199 -688h-96zM165 248h193l-96 366zM285 791.5c-9.33301 4.33301 -20.3291 10.833 -32.9961 19.5c-6.66699 4.66699 -13.667 8.83398 -21 12.501s-14 5.5 -20 5.5c-10 0 -18.667 -3.33301 -26 -10
s-15.333 -17.334 -24 -32.001l-48 23c11.333 26 25.166 46.5 41.499 61.5s34.5 22.5 54.5 22.5c11.333 0 21.666 -2.16699 30.999 -6.5s19.666 -10.5 30.999 -18.5c9.33301 -6.66699 17.333 -11.5 24 -14.5s13.667 -4.5 21 -4.5c9.33301 0 17.666 3.33301 24.999 10
s15 17.667 23 33l49 -23c-21.333 -56.667 -53.333 -85 -96 -85c-12 0 -22.667 2.16699 -32 6.5z" />
    <glyph glyph-name="Adieresis" unicode="&#xc4;" horiz-adv-x="526" 
d="M423 0l-46 175h-231l-46 -175h-93l199 688h114l199 -688h-96zM165 248h193l-96 366zM209 873c10 -10 15 -22.667 15 -38s-5 -28.166 -15 -38.499s-22.333 -15.5 -37 -15.5c-15.333 0 -28 5.16699 -38 15.5s-15 23.166 -15 38.499s5 28 15 38s22.667 15 38 15
c14.667 0 27 -5 37 -15zM396 873c10 -10 15 -22.667 15 -38s-5 -28.166 -15 -38.499s-22.333 -15.5 -37 -15.5s-27.167 5.16699 -37.5 15.5s-15.5 23.166 -15.5 38.499s5 28 15 38s22.667 15 38 15c14.667 0 27 -5 37 -15z" />
    <glyph glyph-name="Aring" unicode="&#xc5;" horiz-adv-x="526" 
d="M423 0l-46 175h-231l-46 -175h-93l199 688h114l199 -688h-96zM165 248h193l-96 366zM338.5 932c19 -19.333 28.5 -44.666 28.5 -75.999s-9.5 -56.833 -28.5 -76.5s-44.167 -29.5 -75.5 -29.5s-56.5 9.83301 -75.5 29.5s-28.5 45.167 -28.5 76.5s9.5 56.666 28.5 75.999
s44.167 29 75.5 29s56.5 -9.66699 75.5 -29zM217 856c0 -38 15.333 -57 46 -57c31.333 0 47 19 47 57s-15.667 57 -47 57c-30.667 0 -46 -19 -46 -57z" />
    <glyph glyph-name="AE" unicode="&#xc6;" horiz-adv-x="730" 
d="M486 73h207v-73h-283l-34 173h-232l-57 -173h-96l244 688h419l-11 -72h-271l48 -228h226v-72h-211zM168 246h194l-73 370z" />
    <glyph glyph-name="Ccedilla" unicode="&#xc7;" horiz-adv-x="508" 
d="M337 -12l0.00195312 -48.0029c29.333 -3.33301 51.166 -12.166 65.499 -26.499s21.5 -33.166 21.5 -56.499c0 -30 -10.5 -53.5 -31.5 -70.5s-47.833 -25.5 -80.5 -25.5c-33.333 0 -61.333 8 -84 24l24 46c17.333 -8.66699 35.666 -13 54.999 -13
c14 0 25.167 3.33301 33.5 10s12.5 16.334 12.5 29.001c0 14.667 -6.5 25.5 -19.5 32.5s-33.5 10.5 -61.5 10.5l9 89c-70 8 -126 42.333 -168 103s-63 145 -63 253c0 77.333 11.5 142.666 34.5 195.999s54.333 93.333 94 120s84.5 40 134.5 40c36 0 67.333 -5.5 94 -16.5
s53 -28.167 79 -51.5l-48 -56c-19.333 16.667 -38.5 29 -57.5 37s-39.833 12 -62.5 12c-52 0 -93.333 -22.167 -124 -66.5s-46 -115.833 -46 -214.5c0 -96 15.333 -166.833 46 -212.5s72 -68.5 124 -68.5c26 0 48.333 4.66699 67 14s39 23 61 41l47 -55
c-44 -45.333 -96 -70.666 -156 -75.999z" />
    <glyph glyph-name="Egrave" unicode="&#xc8;" horiz-adv-x="469" 
d="M427 688l-11 -72h-238v-227h207v-72h-207v-244h252v-73h-345v688h342zM182 908l181 -105l-24 -48l-194 80z" />
    <glyph glyph-name="Eacute" unicode="&#xc9;" horiz-adv-x="469" 
d="M427 688l-11 -72h-238v-227h207v-72h-207v-244h252v-73h-345v688h342zM329 908l38 -73l-194 -79l-24 47z" />
    <glyph glyph-name="Ecircumflex" unicode="&#xca;" horiz-adv-x="469" 
d="M427 688l-11 -72h-238v-227h207v-72h-207v-244h252v-73h-345v688h342zM143 761l-35 39l122 112h55l121 -112l-35 -39l-114 81z" />
    <glyph glyph-name="Edieresis" unicode="&#xcb;" horiz-adv-x="469" 
d="M427 688l-11 -72h-238v-227h207v-72h-207v-244h252v-73h-345v688h342zM204 873c10 -10 15 -22.667 15 -38s-5 -28.166 -15 -38.499s-22.333 -15.5 -37 -15.5c-15.333 0 -28 5.16699 -38 15.5s-15 23.166 -15 38.499s5 28 15 38s22.667 15 38 15c14.667 0 27 -5 37 -15z
M391 873c10 -10 15 -22.667 15 -38s-5 -28.166 -15 -38.499s-22.333 -15.5 -37 -15.5s-27.167 5.16699 -37.5 15.5s-15.5 23.166 -15.5 38.499s5 28 15 38s22.667 15 38 15c14.667 0 27 -5 37 -15z" />
    <glyph glyph-name="Igrave" unicode="&#xcc;" horiz-adv-x="262" 
d="M178 688v-688h-93v688h93zM55 908l181 -105l-24 -48l-194 80z" />
    <glyph glyph-name="Iacute" unicode="&#xcd;" horiz-adv-x="262" 
d="M178 688v-688h-93v688h93zM202 908l38 -73l-194 -79l-24 47z" />
    <glyph glyph-name="Icircumflex" unicode="&#xce;" horiz-adv-x="262" 
d="M178 688v-688h-93v688h93zM16 761l-35 39l122 112h55l121 -112l-35 -39l-114 81z" />
    <glyph glyph-name="Idieresis" unicode="&#xcf;" horiz-adv-x="262" 
d="M178 688v-688h-93v688h93zM77 873c10 -10 15 -22.667 15 -38s-5 -28.166 -15 -38.499s-22.333 -15.5 -37 -15.5c-15.333 0 -28 5.16699 -38 15.5s-15 23.166 -15 38.499s5 28 15 38s22.667 15 38 15c14.667 0 27 -5 37 -15zM264 873c10 -10 15 -22.667 15 -38
s-5 -28.166 -15 -38.499s-22.333 -15.5 -37 -15.5s-27.167 5.16699 -37.5 15.5s-15.5 23.166 -15.5 38.499s5 28 15 38s22.667 15 38 15c14.667 0 27 -5 37 -15z" />
    <glyph glyph-name="Eth" unicode="&#xd0;" horiz-adv-x="593" 
d="M393 661c44 -18 79.833 -52.001 107.5 -102.001s41.5 -120.333 41.5 -211c0 -129.333 -27.5 -219.666 -82.5 -270.999s-124.5 -77 -208.5 -77h-155v320h-76v66h76v302h142c59.333 0 111 -9 155 -27zM394 131.499c34 39.667 51.001 111.834 51.001 216.501
c0 73.333 -8.83301 129.666 -26.5 168.999s-40.334 65.5 -68.001 78.5s-60.5 19.5 -98.5 19.5h-63v-229h134v-66h-134v-248h68c57.333 0 103 19.833 137 59.5z" />
    <glyph glyph-name="Ntilde" unicode="&#xd1;" horiz-adv-x="607" 
d="M522 0h-120l-245 591c8 -88 12 -173.667 12 -257v-334h-84v688h119l246 -592c-2.66699 23.333 -5.5 55.333 -8.5 96s-4.5 81 -4.5 121v375h85v-688zM332 791.5c-9.33301 4.33301 -20.3291 10.833 -32.9961 19.5c-6.66699 4.66699 -13.667 8.83398 -21 12.501
s-14 5.5 -20 5.5c-10 0 -18.667 -3.33301 -26 -10s-15.333 -17.334 -24 -32.001l-48 23c11.333 26 25.166 46.5 41.499 61.5s34.5 22.5 54.5 22.5c11.333 0 21.666 -2.16699 30.999 -6.5s19.666 -10.5 30.999 -18.5c9.33301 -6.66699 17.333 -11.5 24 -14.5
s13.667 -4.5 21 -4.5c9.33301 0 17.666 3.33301 24.999 10s15 17.667 23 33l49 -23c-21.333 -56.667 -53.333 -85 -96 -85c-12 0 -22.667 2.16699 -32 6.5z" />
    <glyph glyph-name="Ograve" unicode="&#xd2;" horiz-adv-x="628" 
d="M507.5 610.5c47 -60.333 70.5 -149.169 70.5 -266.502c0 -115.333 -23.333 -203.666 -70 -264.999s-111.334 -92 -194.001 -92c-82 0 -146.5 30.167 -193.5 90.5s-70.5 148.833 -70.5 265.5c0 76.667 10.833 141.834 32.5 195.501s52.334 94.167 92.001 121.5
s86.167 41 139.5 41c82 0 146.5 -30.167 193.5 -90.5zM148 342.997c0 -187.333 55.333 -281.001 166 -281.001c54.667 0 96 22.333 124 67s42 116.334 42 215.001c0 98 -14.167 169.667 -42.5 215s-69.5 68 -123.5 68c-110.667 0 -166 -94.667 -166 -284zM238 907.996
l181 -105l-24 -48l-194 80z" />
    <glyph glyph-name="Oacute" unicode="&#xd3;" horiz-adv-x="628" 
d="M507.5 610.5c47 -60.333 70.5 -149.169 70.5 -266.502c0 -115.333 -23.333 -203.666 -70 -264.999s-111.334 -92 -194.001 -92c-82 0 -146.5 30.167 -193.5 90.5s-70.5 148.833 -70.5 265.5c0 76.667 10.833 141.834 32.5 195.501s52.334 94.167 92.001 121.5
s86.167 41 139.5 41c82 0 146.5 -30.167 193.5 -90.5zM148 342.997c0 -187.333 55.333 -281.001 166 -281.001c54.667 0 96 22.333 124 67s42 116.334 42 215.001c0 98 -14.167 169.667 -42.5 215s-69.5 68 -123.5 68c-110.667 0 -166 -94.667 -166 -284zM385 907.996
l38 -73l-194 -79l-24 47z" />
    <glyph glyph-name="Ocircumflex" unicode="&#xd4;" horiz-adv-x="628" 
d="M507.5 610.5c47 -60.333 70.5 -149.169 70.5 -266.502c0 -115.333 -23.333 -203.666 -70 -264.999s-111.334 -92 -194.001 -92c-82 0 -146.5 30.167 -193.5 90.5s-70.5 148.833 -70.5 265.5c0 76.667 10.833 141.834 32.5 195.501s52.334 94.167 92.001 121.5
s86.167 41 139.5 41c82 0 146.5 -30.167 193.5 -90.5zM148 342.997c0 -187.333 55.333 -281.001 166 -281.001c54.667 0 96 22.333 124 67s42 116.334 42 215.001c0 98 -14.167 169.667 -42.5 215s-69.5 68 -123.5 68c-110.667 0 -166 -94.667 -166 -284zM199 760.996
l-35 39l122 112h55l121 -112l-35 -39l-114 81z" />
    <glyph glyph-name="Otilde" unicode="&#xd5;" horiz-adv-x="628" 
d="M507.5 610.5c47 -60.333 70.5 -149.169 70.5 -266.502c0 -115.333 -23.333 -203.666 -70 -264.999s-111.334 -92 -194.001 -92c-82 0 -146.5 30.167 -193.5 90.5s-70.5 148.833 -70.5 265.5c0 76.667 10.833 141.834 32.5 195.501s52.334 94.167 92.001 121.5
s86.167 41 139.5 41c82 0 146.5 -30.167 193.5 -90.5zM148 342.997c0 -187.333 55.333 -281.001 166 -281.001c54.667 0 96 22.333 124 67s42 116.334 42 215.001c0 98 -14.167 169.667 -42.5 215s-69.5 68 -123.5 68c-110.667 0 -166 -94.667 -166 -284zM336 791.496
c-9.33301 4.33301 -20.3291 10.833 -32.9961 19.5c-6.66699 4.66699 -13.667 8.83398 -21 12.501s-14 5.5 -20 5.5c-10 0 -18.667 -3.33301 -26 -10s-15.333 -17.334 -24 -32.001l-48 23c11.333 26 25.166 46.5 41.499 61.5s34.5 22.5 54.5 22.5
c11.333 0 21.666 -2.16699 30.999 -6.5s19.666 -10.5 30.999 -18.5c9.33301 -6.66699 17.333 -11.5 24 -14.5s13.667 -4.5 21 -4.5c9.33301 0 17.666 3.33301 24.999 10s15 17.667 23 33l49 -23c-21.333 -56.667 -53.333 -85 -96 -85c-12 0 -22.667 2.16699 -32 6.5z" />
    <glyph glyph-name="Odieresis" unicode="&#xd6;" horiz-adv-x="628" 
d="M507.5 610.5c47 -60.333 70.5 -149.169 70.5 -266.502c0 -115.333 -23.333 -203.666 -70 -264.999s-111.334 -92 -194.001 -92c-82 0 -146.5 30.167 -193.5 90.5s-70.5 148.833 -70.5 265.5c0 76.667 10.833 141.834 32.5 195.501s52.334 94.167 92.001 121.5
s86.167 41 139.5 41c82 0 146.5 -30.167 193.5 -90.5zM148 342.997c0 -187.333 55.333 -281.001 166 -281.001c54.667 0 96 22.333 124 67s42 116.334 42 215.001c0 98 -14.167 169.667 -42.5 215s-69.5 68 -123.5 68c-110.667 0 -166 -94.667 -166 -284zM260 872.996
c10 -10 15 -22.667 15 -38s-5 -28.166 -15 -38.499s-22.333 -15.5 -37 -15.5c-15.333 0 -28 5.16699 -38 15.5s-15 23.166 -15 38.499s5 28 15 38s22.667 15 38 15c14.667 0 27 -5 37 -15zM447 872.996c10 -10 15 -22.667 15 -38s-5 -28.166 -15 -38.499
s-22.333 -15.5 -37 -15.5s-27.167 5.16699 -37.5 15.5s-15.5 23.166 -15.5 38.499s5 28 15 38s22.667 15 38 15c14.667 0 27 -5 37 -15z" />
    <glyph glyph-name="multiply" unicode="&#xd7;" horiz-adv-x="453" 
d="M336 484l56 -47l-114 -129l114 -131l-56 -47l-109 128l-110 -128l-56 47l113 129l-113 131l56 47l108 -129z" />
    <glyph glyph-name="Oslash" unicode="&#xd8;" horiz-adv-x="628" 
d="M542.5 549.5c23.667 -54.333 35.5 -122.836 35.5 -205.503c0 -115.333 -23.333 -203.666 -70 -264.999s-111.334 -92 -194.001 -92c-20 0 -39.667 2 -59 6l-30 -118l-74 20l35 124c-43.333 25.333 -76.833 65.333 -100.5 120s-35.5 122.667 -35.5 204
c0 76.667 10.833 141.834 32.5 195.501s52.334 94.167 92.001 121.5s86.167 41 139.5 41c18 0 37 -1.66699 57 -5l32 121l74 -20l-36 -128c44 -25.333 77.833 -65.166 101.5 -119.499zM188.5 558.997c-29 -45.333 -43.5 -117.334 -43.5 -216.001
c0 -129.333 25 -213.666 75 -252.999l139 532c-15.333 3.33301 -30.333 5 -45 5c-54.667 0 -96.5 -22.667 -125.5 -68zM407 598.996l-138.999 -533.001c15.333 -3.33301 30.666 -5 45.999 -5c56 0 98 22.833 126 68.5s42 119.5 42 221.5c0 126.667 -25 209.334 -75 248.001z
" />
    <glyph glyph-name="Ugrave" unicode="&#xd9;" horiz-adv-x="588" 
d="M514 202c0 -63.333 -19.001 -115 -57.001 -155s-92.333 -60 -163 -60c-71.333 0 -125.666 19.833 -162.999 59.5s-56 91.5 -56 155.5v486h93v-480c0 -96.667 42 -145 126 -145s126 48.333 126 145v480h94v-486zM217.999 908l181 -105l-24 -48l-194 80z" />
    <glyph glyph-name="Uacute" unicode="&#xda;" horiz-adv-x="588" 
d="M514 202c0 -63.333 -19.001 -115 -57.001 -155s-92.333 -60 -163 -60c-71.333 0 -125.666 19.833 -162.999 59.5s-56 91.5 -56 155.5v486h93v-480c0 -96.667 42 -145 126 -145s126 48.333 126 145v480h94v-486zM364.999 908l38 -73l-194 -79l-24 47z" />
    <glyph glyph-name="Ucircumflex" unicode="&#xdb;" horiz-adv-x="588" 
d="M514 202c0 -63.333 -19.001 -115 -57.001 -155s-92.333 -60 -163 -60c-71.333 0 -125.666 19.833 -162.999 59.5s-56 91.5 -56 155.5v486h93v-480c0 -96.667 42 -145 126 -145s126 48.333 126 145v480h94v-486zM178.999 761l-35 39l122 112h55l121 -112l-35 -39l-114 81z
" />
    <glyph glyph-name="Udieresis" unicode="&#xdc;" horiz-adv-x="588" 
d="M514 202c0 -63.333 -19.001 -115 -57.001 -155s-92.333 -60 -163 -60c-71.333 0 -125.666 19.833 -162.999 59.5s-56 91.5 -56 155.5v486h93v-480c0 -96.667 42 -145 126 -145s126 48.333 126 145v480h94v-486zM239.999 873c10 -10 15 -22.667 15 -38
s-5 -28.166 -15 -38.499s-22.333 -15.5 -37 -15.5c-15.333 0 -28 5.16699 -38 15.5s-15 23.166 -15 38.499s5 28 15 38s22.667 15 38 15c14.667 0 27 -5 37 -15zM426.999 873c10 -10 15 -22.667 15 -38s-5 -28.166 -15 -38.499s-22.333 -15.5 -37 -15.5
s-27.167 5.16699 -37.5 15.5s-15.5 23.166 -15.5 38.499s5 28 15 38s22.667 15 38 15c14.667 0 27 -5 37 -15z" />
    <glyph glyph-name="Yacute" unicode="&#xdd;" horiz-adv-x="498" 
d="M494 688l-198 -423v-265h-94v264l-198 424h100l147 -344l146 344h97zM320 908l38 -73l-194 -79l-24 47z" />
    <glyph glyph-name="Thorn" unicode="&#xde;" horiz-adv-x="523" 
d="M430.5 516.5c43 -35.667 64.5 -89.5 64.5 -161.5c0 -76.667 -21.833 -133.5 -65.5 -170.5s-104.167 -55.5 -181.5 -55.5h-70v-129h-93v688h93v-118h67c80.667 0 142.5 -17.833 185.5 -53.5zM359.5 235.5c26.333 23 39.5 62.5 39.5 118.5c0 51.333 -13 88.333 -39 111
s-65 34 -117 34h-65v-298h64c52 0 91.167 11.5 117.5 34.5z" />
    <glyph glyph-name="germandbls" unicode="&#xdf;" horiz-adv-x="535" 
d="M354.5 730.5c25 -12.333 44.167 -29.167 57.5 -50.5s20 -45 20 -71s-4.83301 -47 -14.5 -63s-23.834 -33.667 -42.501 -53c-13.333 -12.667 -23.333 -23.834 -30 -33.501s-10 -20.834 -10 -33.501c0 -14.667 4.83301 -27.667 14.5 -39s25.167 -25.333 46.5 -42
c22 -17.333 40.167 -33.333 54.5 -48s26.666 -33.5 36.999 -56.5s15.5 -49.833 15.5 -80.5c0 -34.667 -7 -65 -21 -91s-33.333 -46.167 -58 -60.5s-52 -21.5 -82 -21.5c-36 0 -67.667 8 -95 24l28 61c17.333 -8 36 -12 56 -12c24.667 0 44.334 8.66699 59.001 26
s22 42.333 22 75c0 31.333 -7 56.666 -21 75.999s-35 41 -63 65c-24.667 20 -43.167 38.333 -55.5 55s-18.5 37 -18.5 61c0 18.667 3.83301 34.334 11.5 47.001s18.834 26.334 33.501 41.001c16 16.667 28 31.834 36 45.501s12 30.834 12 51.501
c0 24.667 -7.5 43.667 -22.5 57s-34.5 20 -58.5 20c-30 0 -53.333 -10.5 -70 -31.5s-25 -52.167 -25 -93.5v-555h-90v554c0 59.333 16.833 106.666 50.5 141.999s79.167 53 136.5 53c32.667 0 61.5 -6.16699 86.5 -18.5z" />
    <glyph glyph-name="agrave" unicode="&#xe0;" horiz-adv-x="490" 
d="M418 72.5c6 -10.333 15.333 -18.168 28 -23.501l-19 -61c-26 4 -46.333 12 -61 24s-25 30.333 -31 55c-34 -53.333 -81.667 -80 -143 -80c-46.667 0 -83.667 14.5 -111 43.5s-41 67.833 -41 116.5c0 56 18.333 98.667 55 128s89 44 157 44h68v45
c0 36.667 -7.5 63.167 -22.5 79.5s-39.5 24.5 -73.5 24.5c-36.667 0 -79.334 -9.33301 -128.001 -28l-22 63c58.667 24 113.334 36 164.001 36c114 0 171 -57 171 -171v-248c0 -21.333 3 -37.166 9 -47.499zM320 136.998l-0.000976562 124h-58
c-86.667 0 -130 -36.333 -130 -109c0 -31.333 7 -55.333 21 -72s34 -25 60 -25c46.667 0 82.334 27.333 107.001 82zM172.999 796.998l180 -113l-26 -46l-192 87z" />
    <glyph glyph-name="aacute" unicode="&#xe1;" horiz-adv-x="490" 
d="M418 72.5c6 -10.333 15.333 -18.168 28 -23.501l-19 -61c-26 4 -46.333 12 -61 24s-25 30.333 -31 55c-34 -53.333 -81.667 -80 -143 -80c-46.667 0 -83.667 14.5 -111 43.5s-41 67.833 -41 116.5c0 56 18.333 98.667 55 128s89 44 157 44h68v45
c0 36.667 -7.5 63.167 -22.5 79.5s-39.5 24.5 -73.5 24.5c-36.667 0 -79.334 -9.33301 -128.001 -28l-22 63c58.667 24 113.334 36 164.001 36c114 0 171 -57 171 -171v-248c0 -21.333 3 -37.166 9 -47.499zM320 136.998l-0.000976562 124h-58
c-86.667 0 -130 -36.333 -130 -109c0 -31.333 7 -55.333 21 -72s34 -25 60 -25c46.667 0 82.334 27.333 107.001 82zM302.999 796.998l38 -72l-192 -87l-26 46z" />
    <glyph glyph-name="acircumflex" unicode="&#xe2;" horiz-adv-x="490" 
d="M418 72.5c6 -10.333 15.333 -18.168 28 -23.501l-19 -61c-26 4 -46.333 12 -61 24s-25 30.333 -31 55c-34 -53.333 -81.667 -80 -143 -80c-46.667 0 -83.667 14.5 -111 43.5s-41 67.833 -41 116.5c0 56 18.333 98.667 55 128s89 44 157 44h68v45
c0 36.667 -7.5 63.167 -22.5 79.5s-39.5 24.5 -73.5 24.5c-36.667 0 -79.334 -9.33301 -128.001 -28l-22 63c58.667 24 113.334 36 164.001 36c114 0 171 -57 171 -171v-248c0 -21.333 3 -37.166 9 -47.499zM320 136.998l-0.000976562 124h-58
c-86.667 0 -130 -36.333 -130 -109c0 -31.333 7 -55.333 21 -72s34 -25 60 -25c46.667 0 82.334 27.333 107.001 82zM122.999 636.998l-35 39l121 117h56l121 -117l-35 -39l-114 86z" />
    <glyph glyph-name="atilde" unicode="&#xe3;" horiz-adv-x="490" 
d="M418 72.5c6 -10.333 15.333 -18.168 28 -23.501l-19 -61c-26 4 -46.333 12 -61 24s-25 30.333 -31 55c-34 -53.333 -81.667 -80 -143 -80c-46.667 0 -83.667 14.5 -111 43.5s-41 67.833 -41 116.5c0 56 18.333 98.667 55 128s89 44 157 44h68v45
c0 36.667 -7.5 63.167 -22.5 79.5s-39.5 24.5 -73.5 24.5c-36.667 0 -79.334 -9.33301 -128.001 -28l-22 63c58.667 24 113.334 36 164.001 36c114 0 171 -57 171 -171v-248c0 -21.333 3 -37.166 9 -47.499zM320 136.998l-0.000976562 124h-58
c-86.667 0 -130 -36.333 -130 -109c0 -31.333 7 -55.333 21 -72s34 -25 60 -25c46.667 0 82.334 27.333 107.001 82zM258.999 665.498c-9.33301 4.33301 -20.3291 10.833 -32.9961 19.5c-6.66699 4.66699 -13.667 8.83398 -21 12.501s-14 5.5 -20 5.5
c-10 0 -18.667 -3.33301 -26 -10s-15.333 -17.334 -24 -32.001l-48 23c11.333 26 25.166 46.5 41.499 61.5s34.5 22.5 54.5 22.5c11.333 0 21.666 -2.16699 30.999 -6.5s19.666 -10.5 30.999 -18.5c9.33301 -6.66699 17.333 -11.5 24 -14.5s13.667 -4.5 21 -4.5
c9.33301 0 17.666 3.33301 24.999 10s15 17.667 23 33l49 -23c-21.333 -56.667 -53.333 -85 -96 -85c-12 0 -22.667 2.16699 -32 6.5z" />
    <glyph glyph-name="adieresis" unicode="&#xe4;" horiz-adv-x="490" 
d="M418 72.5c6 -10.333 15.333 -18.168 28 -23.501l-19 -61c-26 4 -46.333 12 -61 24s-25 30.333 -31 55c-34 -53.333 -81.667 -80 -143 -80c-46.667 0 -83.667 14.5 -111 43.5s-41 67.833 -41 116.5c0 56 18.333 98.667 55 128s89 44 157 44h68v45
c0 36.667 -7.5 63.167 -22.5 79.5s-39.5 24.5 -73.5 24.5c-36.667 0 -79.334 -9.33301 -128.001 -28l-22 63c58.667 24 113.334 36 164.001 36c114 0 171 -57 171 -171v-248c0 -21.333 3 -37.166 9 -47.499zM320 136.998l-0.000976562 124h-58
c-86.667 0 -130 -36.333 -130 -109c0 -31.333 7 -55.333 21 -72s34 -25 60 -25c46.667 0 82.334 27.333 107.001 82zM179.999 746.998c10 -10 15 -22.667 15 -38s-5 -28.166 -15 -38.499s-22.333 -15.5 -37 -15.5c-15.333 0 -28 5.16699 -38 15.5s-15 23.166 -15 38.499
s5 28 15 38s22.667 15 38 15c14.667 0 27 -5 37 -15zM366.999 746.998c10 -10 15 -22.667 15 -38s-5 -28.166 -15 -38.499s-22.333 -15.5 -37 -15.5s-27.167 5.16699 -37.5 15.5s-15.5 23.166 -15.5 38.499s5 28 15 38s22.667 15 38 15c14.667 0 27 -5 37 -15z" />
    <glyph glyph-name="aring" unicode="&#xe5;" horiz-adv-x="490" 
d="M418 72.5c6 -10.333 15.333 -18.168 28 -23.501l-19 -61c-26 4 -46.333 12 -61 24s-25 30.333 -31 55c-34 -53.333 -81.667 -80 -143 -80c-46.667 0 -83.667 14.5 -111 43.5s-41 67.833 -41 116.5c0 56 18.333 98.667 55 128s89 44 157 44h68v45
c0 36.667 -7.5 63.167 -22.5 79.5s-39.5 24.5 -73.5 24.5c-36.667 0 -79.334 -9.33301 -128.001 -28l-22 63c58.667 24 113.334 36 164.001 36c114 0 171 -57 171 -171v-248c0 -21.333 3 -37.166 9 -47.499zM320 136.998l-0.000976562 124h-58
c-86.667 0 -130 -36.333 -130 -109c0 -31.333 7 -55.333 21 -72s34 -25 60 -25c46.667 0 82.334 27.333 107.001 82zM312.499 805.998c19 -19.333 28.5 -44.666 28.5 -75.999s-9.5 -56.833 -28.5 -76.5s-44.167 -29.5 -75.5 -29.5s-56.5 9.83301 -75.5 29.5
s-28.5 45.167 -28.5 76.5s9.5 56.666 28.5 75.999s44.167 29 75.5 29s56.5 -9.66699 75.5 -29zM190.999 729.998c0 -38 15.333 -57 46 -57c31.333 0 47 19 47 57s-15.667 57 -47 57c-30.667 0 -46 -19 -46 -57z" />
    <glyph glyph-name="ae" unicode="&#xe6;" horiz-adv-x="769" 
d="M723 232l-307.003 -0.00195312c4 -60 17.333 -103.833 40 -131.5s52.667 -41.5 90 -41.5c22.667 0 43.334 3.66699 62.001 11s38.334 19.333 59.001 36l40 -52c-50 -44.667 -106 -67 -168 -67c-39.333 0 -74 8.5 -104 25.5s-54 41.5 -72 73.5
c-22.667 -35.333 -47.5 -60.666 -74.5 -75.999s-57.833 -23 -92.5 -23c-47.333 0 -85.166 14.667 -113.499 44s-42.5 68 -42.5 116c0 54.667 18.833 97 56.5 127s90.5 45 158.5 45h68v41c0 38.667 -7.5 66.334 -22.5 83.001s-39.833 25 -74.5 25s-77 -9.33301 -127 -28
l-21 63c58.667 24 112.667 36 162 36c38 0 68.5 -7.16699 91.5 -21.5s40.5 -35.5 52.5 -63.5c35.333 56.667 85.333 85 150 85c60 0 106.833 -22.667 140.5 -68s50.5 -109.333 50.5 -192c0 -14 -0.666992 -29.667 -2 -47zM636.997 305.998c0 110 -35.667 165 -107 165
c-70.667 0 -108.667 -58.667 -114 -176h221v11zM282.497 76.998c19.667 14.667 38.166 38 55.499 70c-9.33301 33.333 -14 68.666 -14 105.999v7h-58c-87.333 0 -131 -36.333 -131 -109c0 -31.333 7 -55.166 21 -71.499s34 -24.5 60 -24.5
c24.667 0 46.834 7.33301 66.501 22z" />
    <glyph glyph-name="ccedilla" unicode="&#xe7;" horiz-adv-x="428" 
d="M346.5 -86.5c14.333 -14.333 21.5049 -33.1699 21.5049 -56.5029c0 -30 -10.5 -53.5 -31.5 -70.5s-47.833 -25.5 -80.5 -25.5c-33.333 0 -61.333 8 -84 24l24 46c17.333 -8.66699 35.666 -13 54.999 -13c14 0 25.167 3.33301 33.5 10s12.5 16.334 12.5 29.001
c0 14.667 -6.5 25.5 -19.5 32.5s-33.5 10.5 -61.5 10.5l9 90c-55.333 8.66699 -98.5 36 -129.5 82s-46.5 108.333 -46.5 187c0 57.333 8.83301 107 26.5 149s42.667 74.333 75 97s70.166 34 113.499 34c28 0 53.667 -4.66699 77 -14s45.666 -23.666 66.999 -42.999l-40 -54
c-16 12.667 -32 22.167 -48 28.5s-33.333 9.5 -52 9.5c-39.333 0 -69.833 -16.667 -91.5 -50s-32.5 -85.333 -32.5 -156c0 -132 41.333 -198 124 -198c18.667 0 35.667 3.16699 51 9.5s31.666 15.833 48.999 28.5l42 -55c-38.667 -35.333 -81.667 -54.333 -129 -57v-48
c29.333 -3.33301 51.166 -12.166 65.499 -26.499z" />
    <glyph glyph-name="egrave" unicode="&#xe8;" horiz-adv-x="494" 
d="M448 232h-305.999c2.66699 -61.333 15 -105.5 37 -132.5s52 -40.5 90 -40.5c24 0 45.5 3.66699 64.5 11s38.833 19.333 59.5 36l40 -53c-49.333 -44 -105.333 -66 -168 -66c-68.667 0 -121.834 23.833 -159.501 71.5s-56.5 114.5 -56.5 200.5s18 154.167 54 204.5
s86 75.5 150 75.5c63.333 0 112 -22.5 146 -67.5s51 -109.167 51 -192.5c0 -14 -0.666992 -29.667 -2 -47zM363.001 306c0 110 -36.334 165 -109.001 165c-33.333 0 -59.666 -13.833 -78.999 -41.5s-30.333 -72.5 -33 -134.5h221v11zM190 797l180 -113l-26 -46l-192 87z" />
    <glyph glyph-name="eacute" unicode="&#xe9;" horiz-adv-x="494" 
d="M448 232h-305.999c2.66699 -61.333 15 -105.5 37 -132.5s52 -40.5 90 -40.5c24 0 45.5 3.66699 64.5 11s38.833 19.333 59.5 36l40 -53c-49.333 -44 -105.333 -66 -168 -66c-68.667 0 -121.834 23.833 -159.501 71.5s-56.5 114.5 -56.5 200.5s18 154.167 54 204.5
s86 75.5 150 75.5c63.333 0 112 -22.5 146 -67.5s51 -109.167 51 -192.5c0 -14 -0.666992 -29.667 -2 -47zM363.001 306c0 110 -36.334 165 -109.001 165c-33.333 0 -59.666 -13.833 -78.999 -41.5s-30.333 -72.5 -33 -134.5h221v11zM320 797l38 -72l-192 -87l-26 46z" />
    <glyph glyph-name="ecircumflex" unicode="&#xea;" horiz-adv-x="494" 
d="M448 232h-305.999c2.66699 -61.333 15 -105.5 37 -132.5s52 -40.5 90 -40.5c24 0 45.5 3.66699 64.5 11s38.833 19.333 59.5 36l40 -53c-49.333 -44 -105.333 -66 -168 -66c-68.667 0 -121.834 23.833 -159.501 71.5s-56.5 114.5 -56.5 200.5s18 154.167 54 204.5
s86 75.5 150 75.5c63.333 0 112 -22.5 146 -67.5s51 -109.167 51 -192.5c0 -14 -0.666992 -29.667 -2 -47zM363.001 306c0 110 -36.334 165 -109.001 165c-33.333 0 -59.666 -13.833 -78.999 -41.5s-30.333 -72.5 -33 -134.5h221v11zM140 637l-35 39l121 117h56l121 -117
l-35 -39l-114 86z" />
    <glyph glyph-name="edieresis" unicode="&#xeb;" horiz-adv-x="494" 
d="M448 232h-305.999c2.66699 -61.333 15 -105.5 37 -132.5s52 -40.5 90 -40.5c24 0 45.5 3.66699 64.5 11s38.833 19.333 59.5 36l40 -53c-49.333 -44 -105.333 -66 -168 -66c-68.667 0 -121.834 23.833 -159.501 71.5s-56.5 114.5 -56.5 200.5s18 154.167 54 204.5
s86 75.5 150 75.5c63.333 0 112 -22.5 146 -67.5s51 -109.167 51 -192.5c0 -14 -0.666992 -29.667 -2 -47zM363.001 306c0 110 -36.334 165 -109.001 165c-33.333 0 -59.666 -13.833 -78.999 -41.5s-30.333 -72.5 -33 -134.5h221v11zM197 747c10 -10 15 -22.667 15 -38
s-5 -28.166 -15 -38.499s-22.333 -15.5 -37 -15.5c-15.333 0 -28 5.16699 -38 15.5s-15 23.166 -15 38.499s5 28 15 38s22.667 15 38 15c14.667 0 27 -5 37 -15zM384 747c10 -10 15 -22.667 15 -38s-5 -28.166 -15 -38.499s-22.333 -15.5 -37 -15.5
s-27.167 5.16699 -37.5 15.5s-15.5 23.166 -15.5 38.499s5 28 15 38s22.667 15 38 15c14.667 0 27 -5 37 -15z" />
    <glyph glyph-name="igrave" unicode="&#xec;" horiz-adv-x="252" 
d="M171 526v-526h-90v526h90zM62 797l180 -113l-26 -46l-192 87z" />
    <glyph glyph-name="iacute" unicode="&#xed;" horiz-adv-x="252" 
d="M171 526v-526h-90v526h90zM192 797l38 -72l-192 -87l-26 46z" />
    <glyph glyph-name="icircumflex" unicode="&#xee;" horiz-adv-x="252" 
d="M171 526v-526h-90v526h90zM12 637l-35 39l121 117h56l121 -117l-35 -39l-114 86z" />
    <glyph glyph-name="idieresis" unicode="&#xef;" horiz-adv-x="252" 
d="M171 526v-526h-90v526h90zM69 747c10 -10 15 -22.667 15 -38s-5 -28.166 -15 -38.499s-22.333 -15.5 -37 -15.5c-15.333 0 -28 5.16699 -38 15.5s-15 23.166 -15 38.499s5 28 15 38s22.667 15 38 15c14.667 0 27 -5 37 -15zM256 747c10 -10 15 -22.667 15 -38
s-5 -28.166 -15 -38.499s-22.333 -15.5 -37 -15.5s-27.167 5.16699 -37.5 15.5s-15.5 23.166 -15.5 38.499s5 28 15 38s22.667 15 38 15c14.667 0 27 -5 37 -15z" />
    <glyph glyph-name="eth" unicode="&#xf0;" horiz-adv-x="516" 
d="M426 505c24 -62.667 36.001 -139.666 36.001 -230.999c0 -90 -18.667 -160.333 -56 -211s-88.333 -76 -153 -76c-40 0 -75.333 9.66699 -106 29s-54.667 47.5 -72 84.5s-26 81.5 -26 133.5c0 44 7.33301 84.167 22 120.5s35.667 65.166 63 86.499s59 32 95 32
c54 0 99 -22.333 135 -67c-7.33301 44.667 -19.333 83.667 -36 117s-40.667 63 -72 89l-65 -71l-59 29l71 78c-34.667 16.667 -68.334 28.667 -101.001 36l17 65c46.667 -10 91 -26 133 -48l64 73l52 -41l-60 -68c54.667 -44 94 -97.333 118 -160zM340.001 110.501
c20.667 35 31 87.834 31 158.501l-1 59c-32 50.667 -72.333 76 -121 76c-36.667 0 -64 -14.833 -82 -44.5s-27 -70.834 -27 -123.501c0 -60 9.83301 -104.667 29.5 -134s47.5 -44 83.5 -44c37.333 0 66.333 17.5 87 52.5z" />
    <glyph glyph-name="ntilde" unicode="&#xf1;" horiz-adv-x="527" 
d="M414.5 497.5c23.667 -27.667 35.499 -65.833 35.499 -114.5v-383h-90v372c0 34 -5.66699 58.5 -17 73.5s-28.666 22.5 -51.999 22.5c-44 0 -84 -31.333 -120 -94v-374h-90v526h78l7 -78c40.667 60.667 90.667 91 150 91c42 0 74.833 -13.833 98.5 -41.5zM289.999 665.501
c-9.33301 4.33301 -20.3291 10.833 -32.9961 19.5c-6.66699 4.66699 -13.667 8.83398 -21 12.501s-14 5.5 -20 5.5c-10 0 -18.667 -3.33301 -26 -10s-15.333 -17.334 -24 -32.001l-48 23c11.333 26 25.166 46.5 41.499 61.5s34.5 22.5 54.5 22.5
c11.333 0 21.666 -2.16699 30.999 -6.5s19.666 -10.5 30.999 -18.5c9.33301 -6.66699 17.333 -11.5 24 -14.5s13.667 -4.5 21 -4.5c9.33301 0 17.666 3.33301 24.999 10s15 17.667 23 33l49 -23c-21.333 -56.667 -53.333 -85 -96 -85c-12 0 -22.667 2.16699 -32 6.5z" />
    <glyph glyph-name="ograve" unicode="&#xf2;" horiz-adv-x="526" 
d="M421 468c37.333 -47.333 56.001 -115.333 56.001 -204c0 -85.333 -19 -152.833 -57 -202.5s-90.333 -74.5 -157 -74.5c-67.333 0 -119.833 24.333 -157.5 73s-56.5 116.334 -56.5 203.001c0 87.333 19 155.166 57 203.499s90.667 72.5 158 72.5
s119.666 -23.667 156.999 -71zM174.001 417.5c-20.667 -33 -31 -84.5 -31 -154.5c0 -136.667 40 -205 120 -205s120 68.667 120 206c0 70 -10 121.333 -30 154s-49.667 49 -89 49s-69.333 -16.5 -90 -49.5zM199.001 797l180 -113l-26 -46l-192 87z" />
    <glyph glyph-name="oacute" unicode="&#xf3;" horiz-adv-x="526" 
d="M421 468c37.333 -47.333 56.001 -115.333 56.001 -204c0 -85.333 -19 -152.833 -57 -202.5s-90.333 -74.5 -157 -74.5c-67.333 0 -119.833 24.333 -157.5 73s-56.5 116.334 -56.5 203.001c0 87.333 19 155.166 57 203.499s90.667 72.5 158 72.5
s119.666 -23.667 156.999 -71zM174.001 417.5c-20.667 -33 -31 -84.5 -31 -154.5c0 -136.667 40 -205 120 -205s120 68.667 120 206c0 70 -10 121.333 -30 154s-49.667 49 -89 49s-69.333 -16.5 -90 -49.5zM329.001 797l38 -72l-192 -87l-26 46z" />
    <glyph glyph-name="ocircumflex" unicode="&#xf4;" horiz-adv-x="526" 
d="M421 468c37.333 -47.333 56.001 -115.333 56.001 -204c0 -85.333 -19 -152.833 -57 -202.5s-90.333 -74.5 -157 -74.5c-67.333 0 -119.833 24.333 -157.5 73s-56.5 116.334 -56.5 203.001c0 87.333 19 155.166 57 203.499s90.667 72.5 158 72.5
s119.666 -23.667 156.999 -71zM174.001 417.5c-20.667 -33 -31 -84.5 -31 -154.5c0 -136.667 40 -205 120 -205s120 68.667 120 206c0 70 -10 121.333 -30 154s-49.667 49 -89 49s-69.333 -16.5 -90 -49.5zM149.001 637l-35 39l121 117h56l121 -117l-35 -39l-114 86z" />
    <glyph glyph-name="otilde" unicode="&#xf5;" horiz-adv-x="526" 
d="M421 468c37.333 -47.333 56.001 -115.333 56.001 -204c0 -85.333 -19 -152.833 -57 -202.5s-90.333 -74.5 -157 -74.5c-67.333 0 -119.833 24.333 -157.5 73s-56.5 116.334 -56.5 203.001c0 87.333 19 155.166 57 203.499s90.667 72.5 158 72.5
s119.666 -23.667 156.999 -71zM174.001 417.5c-20.667 -33 -31 -84.5 -31 -154.5c0 -136.667 40 -205 120 -205s120 68.667 120 206c0 70 -10 121.333 -30 154s-49.667 49 -89 49s-69.333 -16.5 -90 -49.5zM285.001 665.5c-9.33301 4.33301 -20.3291 10.833 -32.9961 19.5
c-6.66699 4.66699 -13.667 8.83398 -21 12.501s-14 5.5 -20 5.5c-10 0 -18.667 -3.33301 -26 -10s-15.333 -17.334 -24 -32.001l-48 23c11.333 26 25.166 46.5 41.499 61.5s34.5 22.5 54.5 22.5c11.333 0 21.666 -2.16699 30.999 -6.5s19.666 -10.5 30.999 -18.5
c9.33301 -6.66699 17.333 -11.5 24 -14.5s13.667 -4.5 21 -4.5c9.33301 0 17.666 3.33301 24.999 10s15 17.667 23 33l49 -23c-21.333 -56.667 -53.333 -85 -96 -85c-12 0 -22.667 2.16699 -32 6.5z" />
    <glyph glyph-name="odieresis" unicode="&#xf6;" horiz-adv-x="526" 
d="M421 468c37.333 -47.333 56.001 -115.333 56.001 -204c0 -85.333 -19 -152.833 -57 -202.5s-90.333 -74.5 -157 -74.5c-67.333 0 -119.833 24.333 -157.5 73s-56.5 116.334 -56.5 203.001c0 87.333 19 155.166 57 203.499s90.667 72.5 158 72.5
s119.666 -23.667 156.999 -71zM174.001 417.5c-20.667 -33 -31 -84.5 -31 -154.5c0 -136.667 40 -205 120 -205s120 68.667 120 206c0 70 -10 121.333 -30 154s-49.667 49 -89 49s-69.333 -16.5 -90 -49.5zM206.001 747c10 -10 15 -22.667 15 -38s-5 -28.166 -15 -38.499
s-22.333 -15.5 -37 -15.5c-15.333 0 -28 5.16699 -38 15.5s-15 23.166 -15 38.499s5 28 15 38s22.667 15 38 15c14.667 0 27 -5 37 -15zM393.001 747c10 -10 15 -22.667 15 -38s-5 -28.166 -15 -38.499s-22.333 -15.5 -37 -15.5s-27.167 5.16699 -37.5 15.5
s-15.5 23.166 -15.5 38.499s5 28 15 38s22.667 15 38 15c14.667 0 27 -5 37 -15z" />
    <glyph glyph-name="divide" unicode="&#xf7;" horiz-adv-x="453" 
d="M271.5 149.5c11.667 -12.333 17.5 -27.166 17.5 -44.499s-5.83301 -32.333 -17.5 -45s-26.834 -19 -45.501 -19c-18 0 -32.833 6.33301 -44.5 19s-17.5 27.667 -17.5 45s5.83301 32.166 17.5 44.499s26.5 18.5 44.5 18.5c18.667 0 33.834 -6.16699 45.501 -18.5z
M271.5 602.5c11.667 -12.333 17.5 -27.166 17.5 -44.499s-5.83301 -32.333 -17.5 -45s-26.834 -19 -45.501 -19c-18 0 -32.833 6.33301 -44.5 19s-17.5 27.667 -17.5 45s5.83301 32.166 17.5 44.499s26.5 18.5 44.5 18.5c18.667 0 33.834 -6.16699 45.501 -18.5zM54 296v72
h345v-72h-345z" />
    <glyph glyph-name="oslash" unicode="&#xf8;" horiz-adv-x="526" 
d="M450.5 416c17.667 -41.333 26.5 -91.999 26.5 -151.999c0 -85.333 -19 -152.833 -57 -202.5s-90.333 -74.5 -157 -74.5c-17.333 0 -32.333 1.33301 -45 4l-35 -120l-70 20l39 126c-33.333 21.333 -58.833 53 -76.5 95s-26.5 92.333 -26.5 151
c0 87.333 19 155.166 57 203.499s90.667 72.5 158 72.5c17.333 0 32.666 -1.33301 45.999 -4l34 120l69 -20l-38 -126c32.667 -20.667 57.834 -51.667 75.501 -93zM170 419.001c-21.333 -33.333 -32.001 -85.333 -32.001 -156c0 -46.667 4 -84.5 12 -113.5
s20 -51.167 36 -66.5l110 383c-10 2 -20.667 3 -32 3c-41.333 0 -72.666 -16.667 -93.999 -50zM387.999 264.001c0 88 -15.333 147.333 -46 178l-110 -382c10 -2 20.333 -3 31 -3c83.333 0 125 69 125 207z" />
    <glyph glyph-name="ugrave" unicode="&#xf9;" horiz-adv-x="523" 
d="M442 0h-78l-5 79c-36.667 -61.333 -85.667 -92 -147 -92c-42 0 -75 13.667 -99 41s-36 64.333 -36 111v387h90v-379c0 -30.667 5.83301 -53.167 17.5 -67.5s29.167 -21.5 52.5 -21.5c44.667 0 83 29.333 115 88v380h90v-526zM196 797l180 -113l-26 -46l-192 87z" />
    <glyph glyph-name="uacute" unicode="&#xfa;" horiz-adv-x="523" 
d="M442 0h-78l-5 79c-36.667 -61.333 -85.667 -92 -147 -92c-42 0 -75 13.667 -99 41s-36 64.333 -36 111v387h90v-379c0 -30.667 5.83301 -53.167 17.5 -67.5s29.167 -21.5 52.5 -21.5c44.667 0 83 29.333 115 88v380h90v-526zM326 797l38 -72l-192 -87l-26 46z" />
    <glyph glyph-name="ucircumflex" unicode="&#xfb;" horiz-adv-x="523" 
d="M442 0h-78l-5 79c-36.667 -61.333 -85.667 -92 -147 -92c-42 0 -75 13.667 -99 41s-36 64.333 -36 111v387h90v-379c0 -30.667 5.83301 -53.167 17.5 -67.5s29.167 -21.5 52.5 -21.5c44.667 0 83 29.333 115 88v380h90v-526zM146 637l-35 39l121 117h56l121 -117l-35 -39
l-114 86z" />
    <glyph glyph-name="udieresis" unicode="&#xfc;" horiz-adv-x="523" 
d="M442 0h-78l-5 79c-36.667 -61.333 -85.667 -92 -147 -92c-42 0 -75 13.667 -99 41s-36 64.333 -36 111v387h90v-379c0 -30.667 5.83301 -53.167 17.5 -67.5s29.167 -21.5 52.5 -21.5c44.667 0 83 29.333 115 88v380h90v-526zM203 747c10 -10 15 -22.667 15 -38
s-5 -28.166 -15 -38.499s-22.333 -15.5 -37 -15.5c-15.333 0 -28 5.16699 -38 15.5s-15 23.166 -15 38.499s5 28 15 38s22.667 15 38 15c14.667 0 27 -5 37 -15zM390 747c10 -10 15 -22.667 15 -38s-5 -28.166 -15 -38.499s-22.333 -15.5 -37 -15.5
s-27.167 5.16699 -37.5 15.5s-15.5 23.166 -15.5 38.499s5 28 15 38s22.667 15 38 15c14.667 0 27 -5 37 -15z" />
    <glyph glyph-name="yacute" unicode="&#xfd;" horiz-adv-x="446" 
d="M279 -2c-18.667 -62 -45 -110 -79 -144s-82.333 -55.667 -145 -65l-10 67c31.333 6.66699 56.333 15.667 75 27s33.667 26 45 44s22.333 42.333 33 73h-33l-156 526h93l122 -463l122 463h92zM289 797l38 -72l-192 -87l-26 46z" />
    <glyph glyph-name="thorn" unicode="&#xfe;" horiz-adv-x="532" 
d="M437.5 468c29 -47.333 43.5 -115 43.5 -203c0 -85.333 -16.167 -153 -48.5 -203s-77.5 -75 -135.5 -75c-52.667 0 -94.667 22 -126 66v-251l-90 -13v950l90 10v-287c36 51.333 81.667 77 137 77c57.333 0 100.5 -23.667 129.5 -71zM387 264
c0 71.333 -8.5 123.167 -25.5 155.5s-42.833 48.5 -77.5 48.5c-23.333 0 -44 -7 -62 -21s-35 -33 -51 -57v-266c27.333 -43.333 62.333 -65 105 -65c74 0 111 68.333 111 205z" />
    <glyph glyph-name="ydieresis" unicode="&#xff;" horiz-adv-x="446" 
d="M279 -2c-18.667 -62 -45 -110 -79 -144s-82.333 -55.667 -145 -65l-10 67c31.333 6.66699 56.333 15.667 75 27s33.667 26 45 44s22.333 42.333 33 73h-33l-156 526h93l122 -463l122 463h92zM166 747c10 -10 15 -22.667 15 -38s-5 -28.166 -15 -38.499
s-22.333 -15.5 -37 -15.5c-15.333 0 -28 5.16699 -38 15.5s-15 23.166 -15 38.499s5 28 15 38s22.667 15 38 15c14.667 0 27 -5 37 -15zM353 747c10 -10 15 -22.667 15 -38s-5 -28.166 -15 -38.499s-22.333 -15.5 -37 -15.5s-27.167 5.16699 -37.5 15.5
s-15.5 23.166 -15.5 38.499s5 28 15 38s22.667 15 38 15c14.667 0 27 -5 37 -15z" />
    <glyph glyph-name="Amacron" unicode="&#x100;" horiz-adv-x="526" 
d="M423 0l-46 175h-231l-46 -175h-93l199 688h114l199 -688h-96zM165 248h193l-96 366zM384 795h-242v66h242v-66z" />
    <glyph glyph-name="amacron" unicode="&#x101;" horiz-adv-x="490" 
d="M418 72.5c6 -10.333 15.333 -18.168 28 -23.501l-19 -61c-26 4 -46.333 12 -61 24s-25 30.333 -31 55c-34 -53.333 -81.667 -80 -143 -80c-46.667 0 -83.667 14.5 -111 43.5s-41 67.833 -41 116.5c0 56 18.333 98.667 55 128s89 44 157 44h68v45
c0 36.667 -7.5 63.167 -22.5 79.5s-39.5 24.5 -73.5 24.5c-36.667 0 -79.334 -9.33301 -128.001 -28l-22 63c58.667 24 113.334 36 164.001 36c114 0 171 -57 171 -171v-248c0 -21.333 3 -37.166 9 -47.499zM320 136.998l-0.000976562 124h-58
c-86.667 0 -130 -36.333 -130 -109c0 -31.333 7 -55.333 21 -72s34 -25 60 -25c46.667 0 82.334 27.333 107.001 82zM357.999 668.998h-242v66h242v-66z" />
    <glyph glyph-name="Abreve" unicode="&#x102;" horiz-adv-x="526" 
d="M423 0l-46 175h-231l-46 -175h-93l199 688h114l199 -688h-96zM165 248h193l-96 366zM170.5 792.5c-23.667 21.667 -37.5 50.834 -41.5 87.501l54 12c5.33301 -20.667 14.666 -36.667 27.999 -48s30.333 -17 51 -17s38 5.66699 52 17s23.667 27.333 29 48l54 -12
c-4 -36.667 -18.167 -65.834 -42.5 -87.501s-55.166 -32.5 -92.499 -32.5s-67.833 10.833 -91.5 32.5z" />
    <glyph glyph-name="abreve" unicode="&#x103;" horiz-adv-x="490" 
d="M418 72.5c6 -10.333 15.333 -18.168 28 -23.501l-19 -61c-26 4 -46.333 12 -61 24s-25 30.333 -31 55c-34 -53.333 -81.667 -80 -143 -80c-46.667 0 -83.667 14.5 -111 43.5s-41 67.833 -41 116.5c0 56 18.333 98.667 55 128s89 44 157 44h68v45
c0 36.667 -7.5 63.167 -22.5 79.5s-39.5 24.5 -73.5 24.5c-36.667 0 -79.334 -9.33301 -128.001 -28l-22 63c58.667 24 113.334 36 164.001 36c114 0 171 -57 171 -171v-248c0 -21.333 3 -37.166 9 -47.499zM320 136.998l-0.000976562 124h-58
c-86.667 0 -130 -36.333 -130 -109c0 -31.333 7 -55.333 21 -72s34 -25 60 -25c46.667 0 82.334 27.333 107.001 82zM144.499 679.998c-23.667 23.333 -37.5 55.333 -41.5 96l54 12c12 -50.667 38.333 -76 79 -76c42 0 69 25.333 81 76l54 -12
c-4 -40.667 -18 -72.667 -42 -96s-55 -35 -93 -35c-37.333 0 -67.833 11.667 -91.5 35z" />
    <glyph glyph-name="Aogonek" unicode="&#x104;" horiz-adv-x="526" 
d="M393 -55.5c-16 -17.667 -24.001 -37.167 -24.001 -58.5c0 -32.667 17.667 -49 53 -49c15.333 0 33 2 53 6l-7 -64c-22 -4.66699 -41 -7 -57 -7c-35.333 0 -63.166 9 -83.499 27s-30.5 42.333 -30.5 73c0 31.333 10.167 58.5 30.5 81.5s50.833 43.5 91.5 61.5l-42 160
h-231l-46 -175h-93l199 688h114l199 -688h-41c-40.667 -19.333 -69 -37.833 -85 -55.5zM164.999 248h193l-96 366z" />
    <glyph glyph-name="aogonek" unicode="&#x105;" horiz-adv-x="490" 
d="M342 -67.5c-16 -17.667 -24.001 -37.168 -24.001 -58.501c0 -32.667 17.667 -49 53 -49c15.333 0 33 2 53 6l-7 -64c-22 -4.66699 -41 -7 -57 -7c-35.333 0 -63.166 9 -83.499 27s-30.5 42.333 -30.5 73c0 32 10.667 59.833 32 83.5s53.333 44.5 96 62.5
c-19.333 13.333 -32.333 33.666 -39 60.999c-34 -53.333 -81.667 -80 -143 -80c-46.667 0 -83.667 14.5 -111 43.5s-41 67.833 -41 116.5c0 56 18.333 98.667 55 128s89 44 157 44h68v45c0 36.667 -7.5 63.167 -22.5 79.5s-39.5 24.5 -73.5 24.5
c-36.667 0 -79.334 -9.33301 -128.001 -28l-22 63c58.667 24 113.334 36 164.001 36c114 0 171 -57 171 -171v-248c0 -21.333 3 -37.166 9 -47.499s15.333 -18.166 28 -23.499l-19 -61c-40.667 -19.333 -69 -37.833 -85 -55.5zM319.999 136.999l-0.000976562 124h-58
c-86.667 0 -130 -36.333 -130 -109c0 -31.333 7 -55.333 21 -72s34 -25 60 -25c46.667 0 82.334 27.333 107.001 82z" />
    <glyph glyph-name="Cacute" unicode="&#x106;" horiz-adv-x="508" 
d="M407 684.5c26.667 -11 53 -28.167 79 -51.5l-48 -56c-19.333 16.667 -38.5 29 -57.5 37s-39.833 12 -62.5 12c-52 0 -93.333 -22.167 -124 -66.5s-46 -115.833 -46 -214.5c0 -96 15.333 -166.833 46 -212.5s72 -68.5 124 -68.5c26 0 48.333 4.66699 67 14s39 23 61 41
l47 -55c-50 -51.333 -110 -77 -180 -77c-51.333 0 -96.833 13.333 -136.5 40s-70.667 66.834 -93 120.501s-33.5 119.5 -33.5 197.5c0 77.333 11.5 142.666 34.5 195.999s54.333 93.333 94 120s84.5 40 134.5 40c36 0 67.333 -5.5 94 -16.5zM387 908l38 -73l-194 -79l-24 47
z" />
    <glyph glyph-name="cacute" unicode="&#x107;" horiz-adv-x="428" 
d="M341 525c23.333 -9.33301 45.668 -23.667 67.001 -43l-40 -54c-16 12.667 -32 22.167 -48 28.5s-33.333 9.5 -52 9.5c-39.333 0 -69.833 -16.667 -91.5 -50s-32.5 -85.333 -32.5 -156c0 -132 41.333 -198 124 -198c18.667 0 35.667 3.16699 51 9.5
s31.666 15.833 48.999 28.5l42 -55c-42.667 -38.667 -91 -58 -145 -58c-67.333 0 -120.166 23.333 -158.499 70s-57.5 114 -57.5 202c0 57.333 8.83301 107 26.5 149s42.667 74.333 75 97s70.166 34 113.499 34c28 0 53.667 -4.66699 77 -14zM329.002 796.999l38 -72
l-192 -87l-26 46z" />
    <glyph glyph-name="Ccircumflex" unicode="&#x108;" horiz-adv-x="508" 
d="M407 684.5c26.667 -11 53 -28.167 79 -51.5l-48 -56c-19.333 16.667 -38.5 29 -57.5 37s-39.833 12 -62.5 12c-52 0 -93.333 -22.167 -124 -66.5s-46 -115.833 -46 -214.5c0 -96 15.333 -166.833 46 -212.5s72 -68.5 124 -68.5c26 0 48.333 4.66699 67 14s39 23 61 41
l47 -55c-50 -51.333 -110 -77 -180 -77c-51.333 0 -96.833 13.333 -136.5 40s-70.667 66.834 -93 120.501s-33.5 119.5 -33.5 197.5c0 77.333 11.5 142.666 34.5 195.999s54.333 93.333 94 120s84.5 40 134.5 40c36 0 67.333 -5.5 94 -16.5zM201 761l-35 39l122 112h55
l121 -112l-35 -39l-114 81z" />
    <glyph glyph-name="ccircumflex" unicode="&#x109;" horiz-adv-x="428" 
d="M341 525c23.333 -9.33301 45.668 -23.667 67.001 -43l-40 -54c-16 12.667 -32 22.167 -48 28.5s-33.333 9.5 -52 9.5c-39.333 0 -69.833 -16.667 -91.5 -50s-32.5 -85.333 -32.5 -156c0 -132 41.333 -198 124 -198c18.667 0 35.667 3.16699 51 9.5
s31.666 15.833 48.999 28.5l42 -55c-42.667 -38.667 -91 -58 -145 -58c-67.333 0 -120.166 23.333 -158.499 70s-57.5 114 -57.5 202c0 57.333 8.83301 107 26.5 149s42.667 74.333 75 97s70.166 34 113.499 34c28 0 53.667 -4.66699 77 -14zM149.002 636.999l-35 39
l121 117h56l121 -117l-35 -39l-114 86z" />
    <glyph glyph-name="Cdotaccent" unicode="&#x10a;" horiz-adv-x="508" 
d="M407 684.5c26.667 -11 53 -28.167 79 -51.5l-48 -56c-19.333 16.667 -38.5 29 -57.5 37s-39.833 12 -62.5 12c-52 0 -93.333 -22.167 -124 -66.5s-46 -115.833 -46 -214.5c0 -96 15.333 -166.833 46 -212.5s72 -68.5 124 -68.5c26 0 48.333 4.66699 67 14s39 23 61 41
l47 -55c-50 -51.333 -110 -77 -180 -77c-51.333 0 -96.833 13.333 -136.5 40s-70.667 66.834 -93 120.501s-33.5 119.5 -33.5 197.5c0 77.333 11.5 142.666 34.5 195.999s54.333 93.333 94 120s84.5 40 134.5 40c36 0 67.333 -5.5 94 -16.5zM358.5 883
c11 -11.333 16.5 -25.333 16.5 -42s-5.33301 -30.5 -16 -41.5s-25 -16.5 -43 -16.5c-17.333 0 -31.5 5.5 -42.5 16.5s-16.5 24.833 -16.5 41.5s5.5 30.667 16.5 42s25.167 17 42.5 17s31.5 -5.66699 42.5 -17z" />
    <glyph glyph-name="cdotaccent" unicode="&#x10b;" horiz-adv-x="428" 
d="M341 525c23.333 -9.33301 45.668 -23.667 67.001 -43l-40 -54c-16 12.667 -32 22.167 -48 28.5s-33.333 9.5 -52 9.5c-39.333 0 -69.833 -16.667 -91.5 -50s-32.5 -85.333 -32.5 -156c0 -132 41.333 -198 124 -198c18.667 0 35.667 3.16699 51 9.5
s31.666 15.833 48.999 28.5l42 -55c-42.667 -38.667 -91 -58 -145 -58c-67.333 0 -120.166 23.333 -158.499 70s-57.5 114 -57.5 202c0 57.333 8.83301 107 26.5 149s42.667 74.333 75 97s70.166 34 113.499 34c28 0 53.667 -4.66699 77 -14zM305.502 756.999
c11 -11.333 16.5 -25.333 16.5 -42s-5.33301 -30.5 -16 -41.5s-25 -16.5 -43 -16.5c-17.333 0 -31.5 5.5 -42.5 16.5s-16.5 24.833 -16.5 41.5s5.5 30.667 16.5 42s25.167 17 42.5 17s31.5 -5.66699 42.5 -17z" />
    <glyph glyph-name="Ccaron" unicode="&#x10c;" horiz-adv-x="508" 
d="M407 684.5c26.667 -11 53 -28.167 79 -51.5l-48 -56c-19.333 16.667 -38.5 29 -57.5 37s-39.833 12 -62.5 12c-52 0 -93.333 -22.167 -124 -66.5s-46 -115.833 -46 -214.5c0 -96 15.333 -166.833 46 -212.5s72 -68.5 124 -68.5c26 0 48.333 4.66699 67 14s39 23 61 41
l47 -55c-50 -51.333 -110 -77 -180 -77c-51.333 0 -96.833 13.333 -136.5 40s-70.667 66.834 -93 120.501s-33.5 119.5 -33.5 197.5c0 77.333 11.5 142.666 34.5 195.999s54.333 93.333 94 120s84.5 40 134.5 40c36 0 67.333 -5.5 94 -16.5zM430 905l35 -39l-121 -112h-56
l-121 112l36 39l113 -81z" />
    <glyph glyph-name="ccaron" unicode="&#x10d;" horiz-adv-x="428" 
d="M341 525c23.333 -9.33301 45.668 -23.667 67.001 -43l-40 -54c-16 12.667 -32 22.167 -48 28.5s-33.333 9.5 -52 9.5c-39.333 0 -69.833 -16.667 -91.5 -50s-32.5 -85.333 -32.5 -156c0 -132 41.333 -198 124 -198c18.667 0 35.667 3.16699 51 9.5
s31.666 15.833 48.999 28.5l42 -55c-42.667 -38.667 -91 -58 -145 -58c-67.333 0 -120.166 23.333 -158.499 70s-57.5 114 -57.5 202c0 57.333 8.83301 107 26.5 149s42.667 74.333 75 97s70.166 34 113.499 34c28 0 53.667 -4.66699 77 -14zM377.002 782.999l35 -40
l-121 -116h-56l-121 116l35 40l114 -88z" />
    <glyph glyph-name="Dcaron" unicode="&#x10e;" horiz-adv-x="581" 
d="M382 661c44 -18 79.833 -52.001 107.5 -102.001s41.5 -120.333 41.5 -211c0 -129.333 -27.5 -219.666 -82.5 -270.999s-124.5 -77 -208.5 -77h-155v688h142c59.333 0 111 -9 155 -27zM178 614.999l0.000976562 -543h68c57.333 0 103 19.833 137 59.5
s51 111.834 51 216.501c0 73.333 -8.83301 129.666 -26.5 168.999s-40.334 65.5 -68.001 78.5s-60.5 19.5 -98.5 19.5h-63zM384.001 904.999l35 -39l-121 -112h-56l-121 112l36 39l113 -81z" />
    <glyph glyph-name="dcaron" unicode="&#x10f;" horiz-adv-x="564" 
d="M455 739l-0.000976562 -739h-80l-6 69c-34 -54.667 -79.667 -82 -137 -82s-101.833 24.333 -133.5 73s-47.5 115.667 -47.5 201c0 55.333 7.83301 104 23.5 146s37.834 74.5 66.501 97.5s61.667 34.5 99 34.5c50 0 91.667 -21 125 -63v273zM315.499 78
c17.667 13.333 34.167 33 49.5 59v264c-30 44.667 -65 67 -105 67c-35.333 0 -63.333 -17 -84 -51s-30.667 -85.333 -30 -154c0 -70 9.33301 -121.667 28 -155s45 -50 79 -50c24 0 44.833 6.66699 62.5 20zM549.999 558l42 181l-75 10l-19 -183z" />
    <glyph glyph-name="Dcroat" unicode="&#x110;" horiz-adv-x="593" 
d="M393 661c44 -18 79.833 -52.001 107.5 -102.001s41.5 -120.333 41.5 -211c0 -129.333 -27.5 -219.666 -82.5 -270.999s-124.5 -77 -208.5 -77h-155v320h-76v66h76v302h142c59.333 0 111 -9 155 -27zM394 131.499c34 39.667 51.001 111.834 51.001 216.501
c0 73.333 -8.83301 129.666 -26.5 168.999s-40.334 65.5 -68.001 78.5s-60.5 19.5 -98.5 19.5h-63v-229h134v-66h-134v-248h68c57.333 0 103 19.833 137 59.5z" />
    <glyph glyph-name="dcroat" unicode="&#x111;" horiz-adv-x="540" 
d="M519 673l-0.000976562 -64h-64v-609h-80l-6 69c-34 -54.667 -79.667 -82 -137 -82s-101.833 24.333 -133.5 73s-47.5 115.667 -47.5 201c0 55.333 7.83301 104 23.5 146s37.834 74.5 66.501 97.5s61.667 34.5 99 34.5c50 0 91.667 -21 125 -63v133h-138v64h138v76l90 -10
v-66h64zM315.499 78c17.667 13.333 34.167 33 49.5 59v264c-30 44.667 -65 67 -105 67c-35.333 0 -63.333 -17 -84 -51s-30.667 -85.333 -30 -154c0 -70 9.33301 -121.667 28 -155s45 -50 79 -50c24 0 44.833 6.66699 62.5 20z" />
    <glyph glyph-name="Emacron" unicode="&#x112;" horiz-adv-x="469" 
d="M427 688l-11 -72h-238v-227h207v-72h-207v-244h252v-73h-345v688h342zM379 795h-242v66h242v-66z" />
    <glyph glyph-name="emacron" unicode="&#x113;" horiz-adv-x="494" 
d="M448 232h-305.999c2.66699 -61.333 15 -105.5 37 -132.5s52 -40.5 90 -40.5c24 0 45.5 3.66699 64.5 11s38.833 19.333 59.5 36l40 -53c-49.333 -44 -105.333 -66 -168 -66c-68.667 0 -121.834 23.833 -159.501 71.5s-56.5 114.5 -56.5 200.5s18 154.167 54 204.5
s86 75.5 150 75.5c63.333 0 112 -22.5 146 -67.5s51 -109.167 51 -192.5c0 -14 -0.666992 -29.667 -2 -47zM363.001 306c0 110 -36.334 165 -109.001 165c-33.333 0 -59.666 -13.833 -78.999 -41.5s-30.333 -72.5 -33 -134.5h221v11zM375 669h-242v66h242v-66z" />
    <glyph glyph-name="Ebreve" unicode="&#x114;" horiz-adv-x="469" 
d="M427 688l-11 -72h-238v-227h207v-72h-207v-244h252v-73h-345v688h342zM165.5 792.5c-23.667 21.667 -37.5 50.834 -41.5 87.501l54 12c5.33301 -20.667 14.666 -36.667 27.999 -48s30.333 -17 51 -17s38 5.66699 52 17s23.667 27.333 29 48l54 -12
c-4 -36.667 -18.167 -65.834 -42.5 -87.501s-55.166 -32.5 -92.499 -32.5s-67.833 10.833 -91.5 32.5z" />
    <glyph glyph-name="ebreve" unicode="&#x115;" horiz-adv-x="494" 
d="M448 232h-305.999c2.66699 -61.333 15 -105.5 37 -132.5s52 -40.5 90 -40.5c24 0 45.5 3.66699 64.5 11s38.833 19.333 59.5 36l40 -53c-49.333 -44 -105.333 -66 -168 -66c-68.667 0 -121.834 23.833 -159.501 71.5s-56.5 114.5 -56.5 200.5s18 154.167 54 204.5
s86 75.5 150 75.5c63.333 0 112 -22.5 146 -67.5s51 -109.167 51 -192.5c0 -14 -0.666992 -29.667 -2 -47zM363.001 306c0 110 -36.334 165 -109.001 165c-33.333 0 -59.666 -13.833 -78.999 -41.5s-30.333 -72.5 -33 -134.5h221v11zM161.5 680
c-23.667 23.333 -37.5 55.333 -41.5 96l54 12c12 -50.667 38.333 -76 79 -76c42 0 69 25.333 81 76l54 -12c-4 -40.667 -18 -72.667 -42 -96s-55 -35 -93 -35c-37.333 0 -67.833 11.667 -91.5 35z" />
    <glyph glyph-name="Edotaccent" unicode="&#x116;" horiz-adv-x="469" 
d="M427 688l-11 -72h-238v-227h207v-72h-207v-244h252v-73h-345v688h342zM300.5 883c11 -11.333 16.5 -25.333 16.5 -42s-5.33301 -30.5 -16 -41.5s-25 -16.5 -43 -16.5c-17.333 0 -31.5 5.5 -42.5 16.5s-16.5 24.833 -16.5 41.5s5.5 30.667 16.5 42s25.167 17 42.5 17
s31.5 -5.66699 42.5 -17z" />
    <glyph glyph-name="edotaccent" unicode="&#x117;" horiz-adv-x="494" 
d="M448 232h-305.999c2.66699 -61.333 15 -105.5 37 -132.5s52 -40.5 90 -40.5c24 0 45.5 3.66699 64.5 11s38.833 19.333 59.5 36l40 -53c-49.333 -44 -105.333 -66 -168 -66c-68.667 0 -121.834 23.833 -159.501 71.5s-56.5 114.5 -56.5 200.5s18 154.167 54 204.5
s86 75.5 150 75.5c63.333 0 112 -22.5 146 -67.5s51 -109.167 51 -192.5c0 -14 -0.666992 -29.667 -2 -47zM363.001 306c0 110 -36.334 165 -109.001 165c-33.333 0 -59.666 -13.833 -78.999 -41.5s-30.333 -72.5 -33 -134.5h221v11zM296.5 757
c11 -11.333 16.5 -25.333 16.5 -42s-5.33301 -30.5 -16 -41.5s-25 -16.5 -43 -16.5c-17.333 0 -31.5 5.5 -42.5 16.5s-16.5 24.833 -16.5 41.5s5.5 30.667 16.5 42s25.167 17 42.5 17s31.5 -5.66699 42.5 -17z" />
    <glyph glyph-name="Eogonek" unicode="&#x118;" horiz-adv-x="469" 
d="M430 73l-0.000976562 -73h-31c-40.667 -19.333 -69 -37.833 -85 -55.5s-24 -37.167 -24 -58.5c0 -32.667 17.667 -49 53 -49c15.333 0 33 2 53 6l-7 -64c-22 -4.66699 -41 -7 -57 -7c-35.333 0 -63.166 9 -83.499 27s-30.5 42.333 -30.5 73
c0 26.667 7.66699 50.5 23 71.5s38 39.833 68 56.5h-224v688h342l-11 -72h-238v-227h207v-72h-207v-244h252z" />
    <glyph glyph-name="eogonek" unicode="&#x119;" horiz-adv-x="494" 
d="M448 232l-306.001 0.00292969c2.66699 -61.333 15 -105.5 37 -132.5s52 -40.5 90 -40.5c24 0 45.5 3.66699 64.5 11s38.833 19.333 59.5 36l40 -53c-27.333 -24 -55 -41 -83 -51c-37.333 -18.667 -63.333 -36.5 -78 -53.5s-22 -35.5 -22 -55.5
c0 -16 4.5 -28.333 13.5 -37s22.167 -13 39.5 -13c16.667 0 34.334 2.33301 53.001 7l-7 -65c-21.333 -4.66699 -40.333 -7 -57 -7c-34.667 0 -62.167 9.16699 -82.5 27.5s-30.5 42.5 -30.5 72.5c0 45.333 25 81.666 75 108.999
c-65.333 3.33301 -115.833 28.666 -151.5 75.999s-53.5 112.666 -53.5 195.999c0 86 18 154.167 54 204.5s86 75.5 150 75.5c63.333 0 112 -22.5 146 -67.5s51 -109.167 51 -192.5c0 -14 -0.666992 -29.667 -2 -47zM362.999 306.003c0 110 -36.334 165 -109.001 165
c-33.333 0 -59.666 -13.833 -78.999 -41.5s-30.333 -72.5 -33 -134.5h221v11z" />
    <glyph glyph-name="Ecaron" unicode="&#x11a;" horiz-adv-x="469" 
d="M427 688l-11 -72h-238v-227h207v-72h-207v-244h252v-73h-345v688h342zM372 905l35 -39l-121 -112h-56l-121 112l36 39l113 -81z" />
    <glyph glyph-name="ecaron" unicode="&#x11b;" horiz-adv-x="494" 
d="M448 232h-305.999c2.66699 -61.333 15 -105.5 37 -132.5s52 -40.5 90 -40.5c24 0 45.5 3.66699 64.5 11s38.833 19.333 59.5 36l40 -53c-49.333 -44 -105.333 -66 -168 -66c-68.667 0 -121.834 23.833 -159.501 71.5s-56.5 114.5 -56.5 200.5s18 154.167 54 204.5
s86 75.5 150 75.5c63.333 0 112 -22.5 146 -67.5s51 -109.167 51 -192.5c0 -14 -0.666992 -29.667 -2 -47zM363.001 306c0 110 -36.334 165 -109.001 165c-33.333 0 -59.666 -13.833 -78.999 -41.5s-30.333 -72.5 -33 -134.5h221v11zM368 783l35 -40l-121 -116h-56l-121 116
l35 40l114 -88z" />
    <glyph glyph-name="Gcircumflex" unicode="&#x11c;" horiz-adv-x="573" 
d="M425.5 682.5c29 -12.333 57.5 -31.166 85.5 -56.499l-50 -52c-22.667 18.667 -44.334 32.167 -65.001 40.5s-44 12.5 -70 12.5c-52 0 -94.667 -22.167 -128 -66.5s-50 -116.166 -50 -215.499c0 -101.333 14 -173.833 42 -217.5s70 -65.5 126 -65.5
c41.333 0 78.666 10 111.999 30v215h-105l-10 73h205v-331c-63.333 -41.333 -130.666 -62 -201.999 -62c-85.333 0 -151 29.833 -197 89.5s-69 149.5 -69 269.5c0 77.333 12.333 142.666 37 195.999s57.834 93.166 99.501 119.499s87.5 39.5 137.5 39.5
c38.667 0 72.5 -6.16699 101.5 -18.5zM205 761l-35 39l122 112h55l121 -112l-35 -39l-114 81z" />
    <glyph glyph-name="gcircumflex" unicode="&#x11d;" horiz-adv-x="470" 
d="M467 507c-28.667 -11.333 -73.002 -16.999 -133.002 -16.999c56 -28 84 -74 84 -138c0 -52.667 -16.5 -95.167 -49.5 -127.5s-77.833 -48.5 -134.5 -48.5c-21.333 0 -40.666 3.33301 -57.999 10c-18.667 -13.333 -28 -30.333 -28 -51c0 -31.333 22 -47 66 -47h69
c52 0 93.333 -13.167 124 -39.5s46 -59.833 46 -100.5c0 -49.333 -19 -88.166 -57 -116.499s-93.667 -42.5 -167 -42.5c-76 0 -129.833 13 -161.5 39s-47.5 65.667 -47.5 119h81c0 -22 3.83301 -39.5 11.5 -52.5s20.667 -22.667 39 -29s44.5 -9.5 78.5 -9.5
c47.333 0 81.333 7.33301 102 22s31 35.667 31 63c0 25.333 -8.5 44.666 -25.5 57.999s-41.167 20 -72.5 20h-59c-46 0 -80.333 8.83301 -103 26.5s-34 41.167 -34 70.5c0 34 18.333 64.333 55 91c-28 16 -48.833 36.167 -62.5 60.5s-20.5 53.833 -20.5 88.5
c0 54.667 17.333 98.667 52 132s80.334 50 137.001 50c52.667 0 93.5 3.66699 122.5 11s58.833 18.666 89.5 33.999zM156.498 444.501c-17 -20.333 -25.499 -49.833 -25.499 -88.5c0 -37.333 8.83301 -66.5 26.5 -87.5s42.167 -31.5 73.5 -31.5c66 0 99 40 99 120
c0 38.667 -8.33301 68 -25 88s-41.334 30 -74.001 30s-57.5 -10.167 -74.5 -30.5zM121.999 637.001l-35 39l121 117h56l121 -117l-35 -39l-114 86z" />
    <glyph glyph-name="Gbreve" unicode="&#x11e;" horiz-adv-x="573" 
d="M425.5 682.5c29 -12.333 57.5 -31.166 85.5 -56.499l-50 -52c-22.667 18.667 -44.334 32.167 -65.001 40.5s-44 12.5 -70 12.5c-52 0 -94.667 -22.167 -128 -66.5s-50 -116.166 -50 -215.499c0 -101.333 14 -173.833 42 -217.5s70 -65.5 126 -65.5
c41.333 0 78.666 10 111.999 30v215h-105l-10 73h205v-331c-63.333 -41.333 -130.666 -62 -201.999 -62c-85.333 0 -151 29.833 -197 89.5s-69 149.5 -69 269.5c0 77.333 12.333 142.666 37 195.999s57.834 93.166 99.501 119.499s87.5 39.5 137.5 39.5
c38.667 0 72.5 -6.16699 101.5 -18.5zM227.5 792.5c-23.667 21.667 -37.5 50.834 -41.5 87.501l54 12c5.33301 -20.667 14.666 -36.667 27.999 -48s30.333 -17 51 -17s38 5.66699 52 17s23.667 27.333 29 48l54 -12c-4 -36.667 -18.167 -65.834 -42.5 -87.501
s-55.166 -32.5 -92.499 -32.5s-67.833 10.833 -91.5 32.5z" />
    <glyph glyph-name="gbreve" unicode="&#x11f;" horiz-adv-x="470" 
d="M467 507c-28.667 -11.333 -73.002 -16.999 -133.002 -16.999c56 -28 84 -74 84 -138c0 -52.667 -16.5 -95.167 -49.5 -127.5s-77.833 -48.5 -134.5 -48.5c-21.333 0 -40.666 3.33301 -57.999 10c-18.667 -13.333 -28 -30.333 -28 -51c0 -31.333 22 -47 66 -47h69
c52 0 93.333 -13.167 124 -39.5s46 -59.833 46 -100.5c0 -49.333 -19 -88.166 -57 -116.499s-93.667 -42.5 -167 -42.5c-76 0 -129.833 13 -161.5 39s-47.5 65.667 -47.5 119h81c0 -22 3.83301 -39.5 11.5 -52.5s20.667 -22.667 39 -29s44.5 -9.5 78.5 -9.5
c47.333 0 81.333 7.33301 102 22s31 35.667 31 63c0 25.333 -8.5 44.666 -25.5 57.999s-41.167 20 -72.5 20h-59c-46 0 -80.333 8.83301 -103 26.5s-34 41.167 -34 70.5c0 34 18.333 64.333 55 91c-28 16 -48.833 36.167 -62.5 60.5s-20.5 53.833 -20.5 88.5
c0 54.667 17.333 98.667 52 132s80.334 50 137.001 50c52.667 0 93.5 3.66699 122.5 11s58.833 18.666 89.5 33.999zM156.498 444.501c-17 -20.333 -25.499 -49.833 -25.499 -88.5c0 -37.333 8.83301 -66.5 26.5 -87.5s42.167 -31.5 73.5 -31.5c66 0 99 40 99 120
c0 38.667 -8.33301 68 -25 88s-41.334 30 -74.001 30s-57.5 -10.167 -74.5 -30.5zM143.499 680.001c-23.667 23.333 -37.5 55.333 -41.5 96l54 12c12 -50.667 38.333 -76 79 -76c42 0 69 25.333 81 76l54 -12c-4 -40.667 -18 -72.667 -42 -96s-55 -35 -93 -35
c-37.333 0 -67.833 11.667 -91.5 35z" />
    <glyph glyph-name="Gdotaccent" unicode="&#x120;" horiz-adv-x="573" 
d="M425.5 682.5c29 -12.333 57.5 -31.166 85.5 -56.499l-50 -52c-22.667 18.667 -44.334 32.167 -65.001 40.5s-44 12.5 -70 12.5c-52 0 -94.667 -22.167 -128 -66.5s-50 -116.166 -50 -215.499c0 -101.333 14 -173.833 42 -217.5s70 -65.5 126 -65.5
c41.333 0 78.666 10 111.999 30v215h-105l-10 73h205v-331c-63.333 -41.333 -130.666 -62 -201.999 -62c-85.333 0 -151 29.833 -197 89.5s-69 149.5 -69 269.5c0 77.333 12.333 142.666 37 195.999s57.834 93.166 99.501 119.499s87.5 39.5 137.5 39.5
c38.667 0 72.5 -6.16699 101.5 -18.5zM362.5 883c11 -11.333 16.5 -25.333 16.5 -42s-5.33301 -30.5 -16 -41.5s-25 -16.5 -43 -16.5c-17.333 0 -31.5 5.5 -42.5 16.5s-16.5 24.833 -16.5 41.5s5.5 30.667 16.5 42s25.167 17 42.5 17s31.5 -5.66699 42.5 -17z" />
    <glyph glyph-name="gdotaccent" unicode="&#x121;" horiz-adv-x="470" 
d="M467 507c-28.667 -11.333 -73.002 -16.999 -133.002 -16.999c56 -28 84 -74 84 -138c0 -52.667 -16.5 -95.167 -49.5 -127.5s-77.833 -48.5 -134.5 -48.5c-21.333 0 -40.666 3.33301 -57.999 10c-18.667 -13.333 -28 -30.333 -28 -51c0 -31.333 22 -47 66 -47h69
c52 0 93.333 -13.167 124 -39.5s46 -59.833 46 -100.5c0 -49.333 -19 -88.166 -57 -116.499s-93.667 -42.5 -167 -42.5c-76 0 -129.833 13 -161.5 39s-47.5 65.667 -47.5 119h81c0 -22 3.83301 -39.5 11.5 -52.5s20.667 -22.667 39 -29s44.5 -9.5 78.5 -9.5
c47.333 0 81.333 7.33301 102 22s31 35.667 31 63c0 25.333 -8.5 44.666 -25.5 57.999s-41.167 20 -72.5 20h-59c-46 0 -80.333 8.83301 -103 26.5s-34 41.167 -34 70.5c0 34 18.333 64.333 55 91c-28 16 -48.833 36.167 -62.5 60.5s-20.5 53.833 -20.5 88.5
c0 54.667 17.333 98.667 52 132s80.334 50 137.001 50c52.667 0 93.5 3.66699 122.5 11s58.833 18.666 89.5 33.999zM156.498 444.501c-17 -20.333 -25.499 -49.833 -25.499 -88.5c0 -37.333 8.83301 -66.5 26.5 -87.5s42.167 -31.5 73.5 -31.5c66 0 99 40 99 120
c0 38.667 -8.33301 68 -25 88s-41.334 30 -74.001 30s-57.5 -10.167 -74.5 -30.5zM278.499 757.001c11 -11.333 16.5 -25.333 16.5 -42s-5.33301 -30.5 -16 -41.5s-25 -16.5 -43 -16.5c-17.333 0 -31.5 5.5 -42.5 16.5s-16.5 24.833 -16.5 41.5s5.5 30.667 16.5 42
s25.167 17 42.5 17s31.5 -5.66699 42.5 -17z" />
    <glyph glyph-name="Gcommaaccent" unicode="&#x122;" horiz-adv-x="573" 
d="M425.5 682.5c29 -12.333 57.5 -31.166 85.5 -56.499l-50 -52c-22.667 18.667 -44.334 32.167 -65.001 40.5s-44 12.5 -70 12.5c-52 0 -94.667 -22.167 -128 -66.5s-50 -116.166 -50 -215.499c0 -101.333 14 -173.833 42 -217.5s70 -65.5 126 -65.5
c41.333 0 78.666 10 111.999 30v215h-105l-10 73h205v-331c-63.333 -41.333 -130.666 -62 -201.999 -62c-85.333 0 -151 29.833 -197 89.5s-69 149.5 -69 269.5c0 77.333 12.333 142.666 37 195.999s57.834 93.166 99.501 119.499s87.5 39.5 137.5 39.5
c38.667 0 72.5 -6.16699 101.5 -18.5zM350.5 -94c9.66699 -10 14.5 -22.998 14.5 -38.998c0 -8.66699 -1.5 -18 -4.5 -28s-8.83301 -25 -17.5 -45l-38 -88h-49l29 115c-17.333 11.333 -26 26.666 -26 45.999c0 15.333 5 28.166 15 38.499s22.667 15.5 38 15.5
c16 0 28.833 -5 38.5 -15z" />
    <glyph glyph-name="gcommaaccent" unicode="&#x123;" horiz-adv-x="470" 
d="M467 507c-28.667 -11.333 -73.002 -16.999 -133.002 -16.999c56 -28 84 -74 84 -138c0 -52.667 -16.5 -95.167 -49.5 -127.5s-77.833 -48.5 -134.5 -48.5c-21.333 0 -40.666 3.33301 -57.999 10c-18.667 -13.333 -28 -30.333 -28 -51c0 -31.333 22 -47 66 -47h69
c52 0 93.333 -13.167 124 -39.5s46 -59.833 46 -100.5c0 -49.333 -19 -88.166 -57 -116.499s-93.667 -42.5 -167 -42.5c-76 0 -129.833 13 -161.5 39s-47.5 65.667 -47.5 119h81c0 -22 3.83301 -39.5 11.5 -52.5s20.667 -22.667 39 -29s44.5 -9.5 78.5 -9.5
c47.333 0 81.333 7.33301 102 22s31 35.667 31 63c0 25.333 -8.5 44.666 -25.5 57.999s-41.167 20 -72.5 20h-59c-46 0 -80.333 8.83301 -103 26.5s-34 41.167 -34 70.5c0 34 18.333 64.333 55 91c-28 16 -48.833 36.167 -62.5 60.5s-20.5 53.833 -20.5 88.5
c0 54.667 17.333 98.667 52 132s80.334 50 137.001 50c52.667 0 93.5 3.66699 122.5 11s58.833 18.666 89.5 33.999zM156.498 444.501c-17 -20.333 -25.499 -49.833 -25.499 -88.5c0 -37.333 8.83301 -66.5 26.5 -87.5s42.167 -31.5 73.5 -31.5c66 0 99 40 99 120
c0 38.667 -8.33301 68 -25 88s-41.334 30 -74.001 30s-57.5 -10.167 -74.5 -30.5zM196.499 600.001c-9.66699 10 -14.5 22.998 -14.5 38.998c0 8.66699 1.5 18 4.5 28s8.83301 25 17.5 45l38 88h49l-29 -115c17.333 -11.333 26 -26.666 26 -45.999
c0 -15.333 -5 -28.166 -15 -38.499s-22.667 -15.5 -38 -15.5c-16 0 -28.833 5 -38.5 15z" />
    <glyph glyph-name="Hcircumflex" unicode="&#x124;" horiz-adv-x="606" 
d="M428 0v323h-250v-323h-93v688h93v-289h250v289h93v-688h-93zM188 761l-35 39l122 112h55l121 -112l-35 -39l-114 81z" />
    <glyph glyph-name="hcircumflex" unicode="&#x125;" horiz-adv-x="527" 
d="M414.5 497c23.667 -28 35.502 -66 35.502 -114v-383h-90v372c0 34 -5.83301 58.5 -17.5 73.5s-28.834 22.5 -51.501 22.5c-44 0 -84 -31.333 -120 -94v-374h-90v738l90 10v-297c19.333 28.667 40.666 50.5 63.999 65.5s50.333 22.5 81 22.5c42 0 74.833 -14 98.5 -42z
M149.002 812l-35 39l122 112h55l121 -112l-35 -39l-114 81z" />
    <glyph glyph-name="Hbar" unicode="&#x126;" horiz-adv-x="612" 
d="M581 571v-62h-56v-509h-93v323h-250v-323h-93v509h-58v62h58v117h93v-117h250v117h93v-117h56zM432 399v110h-250v-110h250z" />
    <glyph glyph-name="hbar" unicode="&#x127;" horiz-adv-x="532" 
d="M419.5 497c23.667 -28 35.502 -66 35.502 -114v-383h-90v372c0 34 -5.83301 58.5 -17.5 73.5s-28.834 22.5 -51.501 22.5c-44 0 -84 -31.333 -120 -94v-374h-90v610h-65v63h65v65l90 10v-75h135v-63h-135v-159c19.333 28.667 40.666 50.5 63.999 65.5
s50.333 22.5 81 22.5c42 0 74.833 -14 98.5 -42z" />
    <glyph glyph-name="Itilde" unicode="&#x128;" horiz-adv-x="262" 
d="M178 688v-688h-93v688h93zM153 791.5c-9.33301 4.33301 -20.3291 10.833 -32.9961 19.5c-6.66699 4.66699 -13.667 8.83398 -21 12.501s-14 5.5 -20 5.5c-10 0 -18.667 -3.33301 -26 -10s-15.333 -17.334 -24 -32.001l-48 23c11.333 26 25.166 46.5 41.499 61.5
s34.5 22.5 54.5 22.5c11.333 0 21.666 -2.16699 30.999 -6.5s19.666 -10.5 30.999 -18.5c9.33301 -6.66699 17.333 -11.5 24 -14.5s13.667 -4.5 21 -4.5c9.33301 0 17.666 3.33301 24.999 10s15 17.667 23 33l49 -23c-21.333 -56.667 -53.333 -85 -96 -85
c-12 0 -22.667 2.16699 -32 6.5z" />
    <glyph glyph-name="itilde" unicode="&#x129;" horiz-adv-x="252" 
d="M171 526v-526h-90v526h90zM148 665.5c-9.33301 4.33301 -20.3291 10.833 -32.9961 19.5c-6.66699 4.66699 -13.667 8.83398 -21 12.501s-14 5.5 -20 5.5c-10 0 -18.667 -3.33301 -26 -10s-15.333 -17.334 -24 -32.001l-48 23c11.333 26 25.166 46.5 41.499 61.5
s34.5 22.5 54.5 22.5c11.333 0 21.666 -2.16699 30.999 -6.5s19.666 -10.5 30.999 -18.5c9.33301 -6.66699 17.333 -11.5 24 -14.5s13.667 -4.5 21 -4.5c9.33301 0 17.666 3.33301 24.999 10s15 17.667 23 33l49 -23c-21.333 -56.667 -53.333 -85 -96 -85
c-12 0 -22.667 2.16699 -32 6.5z" />
    <glyph glyph-name="Imacron" unicode="&#x12a;" horiz-adv-x="262" 
d="M178 688v-688h-93v688h93zM252 795h-242v66h242v-66z" />
    <glyph glyph-name="imacron" unicode="&#x12b;" horiz-adv-x="252" 
d="M171 526v-526h-90v526h90zM247 669h-242v66h242v-66z" />
    <glyph glyph-name="Ibreve" unicode="&#x12c;" horiz-adv-x="262" 
d="M178 688v-688h-93v688h93zM38.5 792.5c-23.667 21.667 -37.5 50.834 -41.5 87.501l54 12c5.33301 -20.667 14.666 -36.667 27.999 -48s30.333 -17 51 -17s38 5.66699 52 17s23.667 27.333 29 48l54 -12c-4 -36.667 -18.167 -65.834 -42.5 -87.501
s-55.166 -32.5 -92.499 -32.5s-67.833 10.833 -91.5 32.5z" />
    <glyph glyph-name="ibreve" unicode="&#x12d;" horiz-adv-x="252" 
d="M171 526v-526h-90v526h90zM33.5 680c-23.667 23.333 -37.5 55.333 -41.5 96l54 12c12 -50.667 38.333 -76 79 -76c42 0 69 25.333 81 76l54 -12c-4 -40.667 -18 -72.667 -42 -96s-55 -35 -93 -35c-37.333 0 -67.833 11.667 -91.5 35z" />
    <glyph glyph-name="Iogonek" unicode="&#x12e;" horiz-adv-x="262" 
d="M178 688l-0.000976562 -688.001h-14c-40.667 -19.333 -69 -37.833 -85 -55.5s-24 -37.167 -24 -58.5c0 -32.667 17.667 -49 53 -49c15.333 0 33 2 53 6l-7 -64c-22 -4.66699 -41 -7 -57 -7c-35.333 0 -63.166 9 -83.499 27s-30.5 42.333 -30.5 73
c0 28.667 8.5 53.834 25.5 75.501s42.5 41.167 76.5 58.5v682h93z" />
    <glyph glyph-name="iogonek" unicode="&#x12f;" horiz-adv-x="252" 
d="M83.5 673.5c-11 11 -16.5 24.833 -16.5 41.5s5.5 30.667 16.5 42s25.167 17 42.5 17s31.5 -5.66699 42.5 -17s16.5 -25.333 16.5 -42s-5.33301 -30.5 -16 -41.5s-25 -16.5 -43 -16.5c-17.333 0 -31.5 5.5 -42.5 16.5zM81 526h89.999v-526h-8
c-40.667 -19.333 -69 -37.833 -85 -55.5s-24 -37.167 -24 -58.5c0 -32.667 17.667 -49 53 -49c15.333 0 33 2 53 6l-7 -64c-22 -4.66699 -41 -7 -57 -7c-35.333 0 -63.166 9 -83.499 27s-30.5 42.333 -30.5 73c0 54 33 98 99 132v522z" />
    <glyph glyph-name="Idotaccent" unicode="&#x130;" horiz-adv-x="262" 
d="M178 688v-688h-93v688h93zM173.5 883c11 -11.333 16.5 -25.333 16.5 -42s-5.33301 -30.5 -16 -41.5s-25 -16.5 -43 -16.5c-17.333 0 -31.5 5.5 -42.5 16.5s-16.5 24.833 -16.5 41.5s5.5 30.667 16.5 42s25.167 17 42.5 17s31.5 -5.66699 42.5 -17z" />
    <glyph glyph-name="dotlessi" unicode="&#x131;" horiz-adv-x="252" 
d="M171 526v-526h-90v526h90z" />
    <glyph glyph-name="IJ" unicode="&#x132;" horiz-adv-x="535" 
d="M178 688v-688h-93v688h93zM455 96c0 -45.333 -6.5 -82.6689 -19.5 -112.002s-31.333 -53 -55 -71s-54.167 -34 -91.5 -48l-25 66c27.333 13.333 47.833 26.833 61.5 40.5s23.167 30.334 28.5 50.001s8 45.834 8 78.501v588h93v-592z" />
    <glyph glyph-name="ij" unicode="&#x133;" 
d="M171 526v-526h-90v526h90zM168.5 757c11 -11.333 16.5 -25.333 16.5 -42s-5.33301 -30.5 -16 -41.5s-25 -16.5 -43 -16.5c-17.333 0 -31.5 5.5 -42.5 16.5s-16.5 24.833 -16.5 41.5s5.5 30.667 16.5 42s25.167 17 42.5 17s31.5 -5.66699 42.5 -17zM423 21
c0 -44.667 -5.83203 -81.167 -17.499 -109.5s-28.334 -51.333 -50.001 -69s-50.834 -35.167 -87.501 -52.5l-28 65c23.333 12 41.333 24 54 36s22.334 28 29.001 48s10 46.667 10 80v507h90v-505zM420.501 757c11 -11.333 16.5 -25.333 16.5 -42s-5.33301 -30.5 -16 -41.5
s-25 -16.5 -43 -16.5c-17.333 0 -31.5 5.5 -42.5 16.5s-16.5 24.833 -16.5 41.5s5.5 30.667 16.5 42s25.167 17 42.5 17s31.5 -5.66699 42.5 -17z" />
    <glyph glyph-name="Jcircumflex" unicode="&#x134;" horiz-adv-x="273" 
d="M193 96c0 -45.333 -6.5 -82.6689 -19.5 -112.002s-31.333 -53 -55 -71s-54.167 -34 -91.5 -48l-25 66c27.333 13.333 47.833 26.833 61.5 40.5s23.167 30.334 28.5 50.001s8 45.834 8 78.501v588h93v-592zM31 760.997l-35 39l122 112h55l121 -112l-35 -39l-114 81z" />
    <glyph glyph-name="jcircumflex" unicode="&#x135;" horiz-adv-x="252" 
d="M171 21c0 -44.667 -5.83203 -81.167 -17.499 -109.5s-28.334 -51.333 -50.001 -69s-50.834 -35.167 -87.501 -52.5l-28 65c23.333 12 41.333 24 54 36s22.334 28 29.001 48s10 46.667 10 80v507h90v-505zM12.001 637l-35 39l121 117h56l121 -117l-35 -39l-114 86z" />
    <glyph glyph-name="Kcommaaccent" unicode="&#x136;" horiz-adv-x="529" 
d="M178 688v-688h-93v688h93zM516 688l-233 -314l249 -374h-107l-243 368l235 320h99zM323.5 -94c9.66699 -10 14.5 -22.998 14.5 -38.998c0 -8.66699 -1.5 -18 -4.5 -28s-8.83301 -25 -17.5 -45l-38 -88h-49l29 115c-17.333 11.333 -26 26.666 -26 45.999
c0 15.333 5 28.166 15 38.499s22.667 15.5 38 15.5c16 0 28.833 -5 38.5 -15z" />
    <glyph glyph-name="kcommaaccent" unicode="&#x137;" horiz-adv-x="466" 
d="M171 749v-749h-90v739zM448 526l-178 -234l195 -292h-100l-189 288l178 238h94zM280.5 -94c9.66699 -10 14.5 -22.998 14.5 -38.998c0 -8.66699 -1.5 -18 -4.5 -28s-8.83301 -25 -17.5 -45l-38 -88h-49l29 115c-17.333 11.333 -26 26.666 -26 45.999
c0 15.333 5 28.166 15 38.499s22.667 15.5 38 15.5c16 0 28.833 -5 38.5 -15z" />
    <glyph glyph-name="kgreenlandic" unicode="&#x138;" horiz-adv-x="465" 
d="M171 526v-526h-90v526h90zM447 526l-177 -242l195 -284h-101l-189 279l179 247h93z" />
    <glyph glyph-name="Lacute" unicode="&#x139;" horiz-adv-x="443" 
d="M178 688v-609h251l-10 -79h-334v688h93zM203 908l38 -73l-194 -79l-24 47z" />
    <glyph glyph-name="lacute" unicode="&#x13a;" horiz-adv-x="264" 
d="M104 16c-18.667 19.333 -28.002 46.333 -28.002 81v642l90 10v-649c0 -26 10.667 -39 32 -39c8.66699 0 18.334 2 29.001 6l20 -63c-21.333 -11.333 -43.666 -17 -66.999 -17c-32 0 -57.333 9.66699 -76 29zM191.998 959l38 -73l-194 -79l-24 47z" />
    <glyph glyph-name="Lcommaaccent" unicode="&#x13b;" horiz-adv-x="443" 
d="M178 688v-609h251l-10 -79h-334v688h93zM291.5 -94c9.66699 -10 14.5 -22.998 14.5 -38.998c0 -8.66699 -1.5 -18 -4.5 -28s-8.83301 -25 -17.5 -45l-38 -88h-49l29 115c-17.333 11.333 -26 26.666 -26 45.999c0 15.333 5 28.166 15 38.499s22.667 15.5 38 15.5
c16 0 28.833 -5 38.5 -15z" />
    <glyph glyph-name="lcommaaccent" unicode="&#x13c;" horiz-adv-x="264" 
d="M104 16c-18.667 19.333 -28.002 46.333 -28.002 81v642l90 10v-649c0 -26 10.667 -39 32 -39c8.66699 0 18.334 2 29.001 6l20 -63c-21.333 -11.333 -43.666 -17 -66.999 -17c-32 0 -57.333 9.66699 -76 29zM202.498 -94c9.66699 -10 14.5 -22.998 14.5 -38.998
c0 -8.66699 -1.5 -18 -4.5 -28s-8.83301 -25 -17.5 -45l-38 -88h-49l29 115c-17.333 11.333 -26 26.666 -26 45.999c0 15.333 5 28.166 15 38.499s22.667 15.5 38 15.5c16 0 28.833 -5 38.5 -15z" />
    <glyph glyph-name="Lcaron" unicode="&#x13d;" horiz-adv-x="443" 
d="M178 688v-609h251l-10 -79h-334v688h93zM278 507l42 181l-75 10l-19 -183z" />
    <glyph glyph-name="lcaron" unicode="&#x13e;" horiz-adv-x="264" 
d="M104 16c-18.667 19.333 -28.002 46.333 -28.002 81v642l90 10v-649c0 -26 10.667 -39 32 -39c8.66699 0 18.334 2 29.001 6l20 -63c-21.333 -11.333 -43.666 -17 -66.999 -17c-32 0 -57.333 9.66699 -76 29zM261.998 558l42 181l-75 10l-19 -183z" />
    <glyph glyph-name="Ldot" unicode="&#x13f;" horiz-adv-x="443" 
d="M178 688v-609h251l-10 -79h-334v688h93zM388.5 424c11 -11.333 16.5 -25.333 16.5 -42s-5.33301 -30.5 -16 -41.5s-25 -16.5 -43 -16.5c-17.333 0 -31.5 5.5 -42.5 16.5s-16.5 24.833 -16.5 41.5s5.5 30.667 16.5 42s25.167 17 42.5 17s31.5 -5.66699 42.5 -17z" />
    <glyph glyph-name="ldot" unicode="&#x140;" horiz-adv-x="319" 
d="M104 16c-18.667 19.333 -28.002 46.333 -28.002 81v642l90 10v-649c0 -26 10.667 -39 32 -39c8.66699 0 18.334 2 29.001 6l20 -63c-21.333 -11.333 -43.666 -17 -66.999 -17c-32 0 -57.333 9.66699 -76 29zM321.498 419c11 -11.333 16.5 -25.333 16.5 -42
s-5.33301 -30.5 -16 -41.5s-25 -16.5 -43 -16.5c-17.333 0 -31.5 5.5 -42.5 16.5s-16.5 24.833 -16.5 41.5s5.5 30.667 16.5 42s25.167 17 42.5 17s31.5 -5.66699 42.5 -17z" />
    <glyph glyph-name="Lslash" unicode="&#x141;" horiz-adv-x="463" 
d="M198 79h251l-10 -79h-334v261l-52 -35l-33 56l83 56l2 1v349h93v-286l141 96l33 -56l-174 -118v-245z" />
    <glyph glyph-name="lslash" unicode="&#x142;" horiz-adv-x="292" 
d="M241 67l19.998 -63c-21.333 -11.333 -43.666 -17 -66.999 -17c-32 0 -57.333 9.66699 -76 29s-28 46.333 -28 81v206l-46 -30l-32 54l78 53v359l90 10v-311l77 50l31 -54l-108 -71v-263c0 -26 10.667 -39 32 -39c8.66699 0 18.334 2 29.001 6z" />
    <glyph glyph-name="Nacute" unicode="&#x143;" horiz-adv-x="607" 
d="M522 0h-120l-245 591c8 -88 12 -173.667 12 -257v-334h-84v688h119l246 -592c-2.66699 23.333 -5.5 55.333 -8.5 96s-4.5 81 -4.5 121v375h85v-688zM381 908l38 -73l-194 -79l-24 47z" />
    <glyph glyph-name="nacute" unicode="&#x144;" horiz-adv-x="527" 
d="M414.5 497.5c23.667 -27.667 35.499 -65.833 35.499 -114.5v-383h-90v372c0 34 -5.66699 58.5 -17 73.5s-28.666 22.5 -51.999 22.5c-44 0 -84 -31.333 -120 -94v-374h-90v526h78l7 -78c40.667 60.667 90.667 91 150 91c42 0 74.833 -13.833 98.5 -41.5zM333.999 797.001
l38 -72l-192 -87l-26 46z" />
    <glyph glyph-name="Ncommaaccent" unicode="&#x145;" horiz-adv-x="607" 
d="M522 0h-120l-245 591c8 -88 12 -173.667 12 -257v-334h-84v688h119l246 -592c-2.66699 23.333 -5.5 55.333 -8.5 96s-4.5 81 -4.5 121v375h85v-688zM342.5 -94c9.66699 -10 14.5 -22.998 14.5 -38.998c0 -8.66699 -1.5 -18 -4.5 -28s-8.83301 -25 -17.5 -45l-38 -88h-49
l29 115c-17.333 11.333 -26 26.666 -26 45.999c0 15.333 5 28.166 15 38.499s22.667 15.5 38 15.5c16 0 28.833 -5 38.5 -15z" />
    <glyph glyph-name="ncommaaccent" unicode="&#x146;" horiz-adv-x="527" 
d="M414.5 497.5c23.667 -27.667 35.499 -65.833 35.499 -114.5v-383h-90v372c0 34 -5.66699 58.5 -17 73.5s-28.666 22.5 -51.999 22.5c-44 0 -84 -31.333 -120 -94v-374h-90v526h78l7 -78c40.667 60.667 90.667 91 150 91c42 0 74.833 -13.833 98.5 -41.5zM302.499 -93.999
c9.66699 -10 14.5 -22.998 14.5 -38.998c0 -8.66699 -1.5 -18 -4.5 -28s-8.83301 -25 -17.5 -45l-38 -88h-49l29 115c-17.333 11.333 -26 26.666 -26 45.999c0 15.333 5 28.166 15 38.499s22.667 15.5 38 15.5c16 0 28.833 -5 38.5 -15z" />
    <glyph glyph-name="Ncaron" unicode="&#x147;" horiz-adv-x="607" 
d="M522 0h-120l-245 591c8 -88 12 -173.667 12 -257v-334h-84v688h119l246 -592c-2.66699 23.333 -5.5 55.333 -8.5 96s-4.5 81 -4.5 121v375h85v-688zM424 905l35 -39l-121 -112h-56l-121 112l36 39l113 -81z" />
    <glyph glyph-name="ncaron" unicode="&#x148;" horiz-adv-x="527" 
d="M414.5 497.5c23.667 -27.667 35.499 -65.833 35.499 -114.5v-383h-90v372c0 34 -5.66699 58.5 -17 73.5s-28.666 22.5 -51.999 22.5c-44 0 -84 -31.333 -120 -94v-374h-90v526h78l7 -78c40.667 60.667 90.667 91 150 91c42 0 74.833 -13.833 98.5 -41.5zM381.999 783.001
l35 -40l-121 -116h-56l-121 116l35 40l114 -88z" />
    <glyph glyph-name="napostrophe" unicode="&#x149;" horiz-adv-x="623" 
d="M131 736c9.33301 -10 14.002 -22.332 14.002 -36.999c0 -8.66699 -1.5 -17.334 -4.5 -26.001s-8.83301 -24 -17.5 -46l-33 -87h-46l24 114c-16.667 10 -25 25 -25 45c0 14.667 4.66699 27 14 37s21.666 15 36.999 15s27.666 -5 36.999 -15zM510.502 497.501
c23.667 -27.667 35.499 -65.833 35.499 -114.5v-383h-90v372c0 34 -5.66699 58.5 -17 73.5s-28.666 22.5 -51.999 22.5c-44 0 -84 -31.333 -120 -94v-374h-90v526h78l7 -78c40.667 60.667 90.667 91 150 91c42 0 74.833 -13.833 98.5 -41.5z" />
    <glyph glyph-name="Eng" unicode="&#x14a;" horiz-adv-x="607" 
d="M522 688l-0.000976562 -756c0 -46.667 -12.833 -82.167 -38.5 -106.5s-59.5 -36.5 -101.5 -36.5c-40.667 0 -76.667 12.333 -108 37l36 55c10.667 -6.66699 20.834 -11.5 30.501 -14.5s21.167 -4.5 34.5 -4.5c36 0 54 22.333 54 67v71h-27l-245 591
c8 -88 12 -173.667 12 -257v-334h-84v688h119l246 -592c-2.66699 23.333 -5.5 55.333 -8.5 96s-4.5 81 -4.5 121v375h85z" />
    <glyph glyph-name="eng" unicode="&#x14b;" horiz-adv-x="527" 
d="M414.5 497.5c23.667 -27.667 35.498 -65.835 35.498 -114.502v-453c0 -45.333 -12.667 -80.166 -38 -104.499s-58.666 -36.5 -99.999 -36.5s-77.666 12.333 -108.999 37l36 54c11.333 -7.33301 21.666 -12.666 30.999 -15.999s20.333 -5 33 -5c38 0 57 22.333 57 67v446
c0 34 -5.66699 58.5 -17 73.5s-28.666 22.5 -51.999 22.5c-44 0 -84 -31.333 -120 -94v-374h-90v526h78l7 -78c40.667 60.667 90.667 91 150 91c42 0 74.833 -13.833 98.5 -41.5z" />
    <glyph glyph-name="Omacron" unicode="&#x14c;" horiz-adv-x="628" 
d="M507.5 610.5c47 -60.333 70.5 -149.169 70.5 -266.502c0 -115.333 -23.333 -203.666 -70 -264.999s-111.334 -92 -194.001 -92c-82 0 -146.5 30.167 -193.5 90.5s-70.5 148.833 -70.5 265.5c0 76.667 10.833 141.834 32.5 195.501s52.334 94.167 92.001 121.5
s86.167 41 139.5 41c82 0 146.5 -30.167 193.5 -90.5zM148 342.997c0 -187.333 55.333 -281.001 166 -281.001c54.667 0 96 22.333 124 67s42 116.334 42 215.001c0 98 -14.167 169.667 -42.5 215s-69.5 68 -123.5 68c-110.667 0 -166 -94.667 -166 -284zM435 794.996h-242
v66h242v-66z" />
    <glyph glyph-name="omacron" unicode="&#x14d;" horiz-adv-x="526" 
d="M421 468c37.333 -47.333 56.001 -115.333 56.001 -204c0 -85.333 -19 -152.833 -57 -202.5s-90.333 -74.5 -157 -74.5c-67.333 0 -119.833 24.333 -157.5 73s-56.5 116.334 -56.5 203.001c0 87.333 19 155.166 57 203.499s90.667 72.5 158 72.5
s119.666 -23.667 156.999 -71zM174.001 417.5c-20.667 -33 -31 -84.5 -31 -154.5c0 -136.667 40 -205 120 -205s120 68.667 120 206c0 70 -10 121.333 -30 154s-49.667 49 -89 49s-69.333 -16.5 -90 -49.5zM384.001 669h-242v66h242v-66z" />
    <glyph glyph-name="Obreve" unicode="&#x14e;" horiz-adv-x="628" 
d="M507.5 610.5c47 -60.333 70.5 -149.169 70.5 -266.502c0 -115.333 -23.333 -203.666 -70 -264.999s-111.334 -92 -194.001 -92c-82 0 -146.5 30.167 -193.5 90.5s-70.5 148.833 -70.5 265.5c0 76.667 10.833 141.834 32.5 195.501s52.334 94.167 92.001 121.5
s86.167 41 139.5 41c82 0 146.5 -30.167 193.5 -90.5zM148 342.997c0 -187.333 55.333 -281.001 166 -281.001c54.667 0 96 22.333 124 67s42 116.334 42 215.001c0 98 -14.167 169.667 -42.5 215s-69.5 68 -123.5 68c-110.667 0 -166 -94.667 -166 -284zM221.5 792.496
c-23.667 21.667 -37.5 50.834 -41.5 87.501l54 12c5.33301 -20.667 14.666 -36.667 27.999 -48s30.333 -17 51 -17s38 5.66699 52 17s23.667 27.333 29 48l54 -12c-4 -36.667 -18.167 -65.834 -42.5 -87.501s-55.166 -32.5 -92.499 -32.5s-67.833 10.833 -91.5 32.5z" />
    <glyph glyph-name="obreve" unicode="&#x14f;" horiz-adv-x="526" 
d="M421 468c37.333 -47.333 56.001 -115.333 56.001 -204c0 -85.333 -19 -152.833 -57 -202.5s-90.333 -74.5 -157 -74.5c-67.333 0 -119.833 24.333 -157.5 73s-56.5 116.334 -56.5 203.001c0 87.333 19 155.166 57 203.499s90.667 72.5 158 72.5
s119.666 -23.667 156.999 -71zM174.001 417.5c-20.667 -33 -31 -84.5 -31 -154.5c0 -136.667 40 -205 120 -205s120 68.667 120 206c0 70 -10 121.333 -30 154s-49.667 49 -89 49s-69.333 -16.5 -90 -49.5zM170.501 680c-23.667 23.333 -37.5 55.333 -41.5 96l54 12
c12 -50.667 38.333 -76 79 -76c42 0 69 25.333 81 76l54 -12c-4 -40.667 -18 -72.667 -42 -96s-55 -35 -93 -35c-37.333 0 -67.833 11.667 -91.5 35z" />
    <glyph glyph-name="Ohungarumlaut" unicode="&#x150;" horiz-adv-x="628" 
d="M507.5 610.5c47 -60.333 70.5 -149.169 70.5 -266.502c0 -115.333 -23.333 -203.666 -70 -264.999s-111.334 -92 -194.001 -92c-82 0 -146.5 30.167 -193.5 90.5s-70.5 148.833 -70.5 265.5c0 76.667 10.833 141.834 32.5 195.501s52.334 94.167 92.001 121.5
s86.167 41 139.5 41c82 0 146.5 -30.167 193.5 -90.5zM148 342.997c0 -187.333 55.333 -281.001 166 -281.001c54.667 0 96 22.333 124 67s42 116.334 42 215.001c0 98 -14.167 169.667 -42.5 215s-69.5 68 -123.5 68c-110.667 0 -166 -94.667 -166 -284zM286 952.996
l68 -36l-87 -150l-50 22zM421 952.996l68 -36l-95 -155l-50 23z" />
    <glyph glyph-name="ohungarumlaut" unicode="&#x151;" horiz-adv-x="526" 
d="M421 468c37.333 -47.333 56.001 -115.333 56.001 -204c0 -85.333 -19 -152.833 -57 -202.5s-90.333 -74.5 -157 -74.5c-67.333 0 -119.833 24.333 -157.5 73s-56.5 116.334 -56.5 203.001c0 87.333 19 155.166 57 203.499s90.667 72.5 158 72.5
s119.666 -23.667 156.999 -71zM174.001 417.5c-20.667 -33 -31 -84.5 -31 -154.5c0 -136.667 40 -205 120 -205s120 68.667 120 206c0 70 -10 121.333 -30 154s-49.667 49 -89 49s-69.333 -16.5 -90 -49.5zM237.001 827l68 -36l-87 -150l-50 22zM372.001 827l68 -36
l-95 -155l-50 23z" />
    <glyph glyph-name="OE" unicode="&#x152;" horiz-adv-x="801" 
d="M762 0l-389.001 0.00195312c-21.333 -8.66699 -45 -13 -71 -13c-50 0 -94 13.667 -132 41s-67.5 67.666 -88.5 120.999s-31.5 118 -31.5 194c0 75.333 10.667 139.833 32 193.5s51 94.5 89 122.5s81.667 42 131 42c27.333 0 52 -4.33301 74 -13h382l-10 -72h-275
c50.667 -52.667 79.334 -128.334 86.001 -227.001h157v-73h-157c-4 -104 -33.333 -185 -88 -243h291v-73zM189.999 130.502c28 -45.667 66.333 -68.5 115 -68.5c104.667 0 157 94.667 157 284c0 96 -13.833 166.833 -41.5 212.5s-66.167 68.5 -115.5 68.5
c-48.667 0 -87 -23 -115 -69s-42 -117.667 -42 -215c0 -96 14 -166.833 42 -212.5z" />
    <glyph glyph-name="oe" unicode="&#x153;" horiz-adv-x="828" 
d="M782 232l-306.999 0.00195312c7.33301 -115.333 50 -173 128 -173c24 0 45.5 3.66699 64.5 11s38.833 19.333 59.5 36l40 -52c-50 -44.667 -106 -67 -168 -67c-75.333 0 -132.333 35.667 -171 107c-18 -34 -41 -60.333 -69 -79s-60.333 -28 -97 -28
c-66.667 0 -118.834 24.167 -156.501 72.5s-56.5 116.166 -56.5 203.499c0 85.333 19 152.666 57 201.999s90.333 74 157 74c37.333 0 70 -9 98 -27s51 -43.667 69 -77c38 69.333 91.333 104 160 104c61.333 0 109 -22.833 143 -68.5s51 -109.5 51 -191.5
c0 -14 -0.666992 -29.667 -2 -47zM696.001 306.002c0 109.333 -35.333 164 -106 164c-34 0 -61 -14.167 -81 -42.5s-31.333 -72.5 -34 -132.5h221v11zM351.501 109.502c20.333 34.333 30.5 85.833 30.5 154.5c0 135.333 -39.667 203 -119 203c-80 0 -120 -68 -120 -204
c0 -136.667 40 -205 120 -205c38.667 0 68.167 17.167 88.5 51.5z" />
    <glyph glyph-name="Racute" unicode="&#x154;" horiz-adv-x="545" 
d="M423 0l-148 292.999h-6h-91v-293h-93v688h161c164 0 246 -64.667 246 -194c0 -45.333 -11 -83.666 -33 -114.999s-54.333 -54.333 -97 -69l164 -310h-103zM360 395.499c23.333 21 35 53.833 35 98.5c0 42 -11.833 73 -35.5 93s-62.167 30 -115.5 30h-66v-253h75
c48 0 83.667 10.5 107 31.5zM340 907.999l38 -73l-194 -79l-24 47z" />
    <glyph glyph-name="racute" unicode="&#x155;" horiz-adv-x="349" 
d="M342 532l-15 -87c-12.667 4 -26.334 6 -41.001 6c-29.333 0 -53.166 -11.667 -71.499 -35s-32.833 -59 -43.5 -107v-309h-90v526h78l7 -104c26 77.333 69.667 116 131 116c17.333 0 32.333 -2 45 -6zM278 797l38 -72l-192 -87l-26 46z" />
    <glyph glyph-name="Rcommaaccent" unicode="&#x156;" horiz-adv-x="545" 
d="M423 0l-148 292.999h-6h-91v-293h-93v688h161c164 0 246 -64.667 246 -194c0 -45.333 -11 -83.666 -33 -114.999s-54.333 -54.333 -97 -69l164 -310h-103zM360 395.499c23.333 21 35 53.833 35 98.5c0 42 -11.833 73 -35.5 93s-62.167 30 -115.5 30h-66v-253h75
c48 0 83.667 10.5 107 31.5zM317.5 -94.001c9.66699 -10 14.5 -22.998 14.5 -38.998c0 -8.66699 -1.5 -18 -4.5 -28s-8.83301 -25 -17.5 -45l-38 -88h-49l29 115c-17.333 11.333 -26 26.666 -26 45.999c0 15.333 5 28.166 15 38.499s22.667 15.5 38 15.5
c16 0 28.833 -5 38.5 -15z" />
    <glyph glyph-name="rcommaaccent" unicode="&#x157;" horiz-adv-x="349" 
d="M342 532l-15 -87c-12.667 4 -26.334 6 -41.001 6c-29.333 0 -53.166 -11.667 -71.499 -35s-32.833 -59 -43.5 -107v-309h-90v526h78l7 -104c26 77.333 69.667 116 131 116c17.333 0 32.333 -2 45 -6zM165.5 -94c9.66699 -10 14.5 -22.998 14.5 -38.998
c0 -8.66699 -1.5 -18 -4.5 -28s-8.83301 -25 -17.5 -45l-38 -88h-49l29 115c-17.333 11.333 -26 26.666 -26 45.999c0 15.333 5 28.166 15 38.499s22.667 15.5 38 15.5c16 0 28.833 -5 38.5 -15z" />
    <glyph glyph-name="Rcaron" unicode="&#x158;" horiz-adv-x="545" 
d="M423 0l-148 292.999h-6h-91v-293h-93v688h161c164 0 246 -64.667 246 -194c0 -45.333 -11 -83.666 -33 -114.999s-54.333 -54.333 -97 -69l164 -310h-103zM360 395.499c23.333 21 35 53.833 35 98.5c0 42 -11.833 73 -35.5 93s-62.167 30 -115.5 30h-66v-253h75
c48 0 83.667 10.5 107 31.5zM383 904.999l35 -39l-121 -112h-56l-121 112l36 39l113 -81z" />
    <glyph glyph-name="rcaron" unicode="&#x159;" horiz-adv-x="349" 
d="M342 532l-15 -87c-12.667 4 -26.334 6 -41.001 6c-29.333 0 -53.166 -11.667 -71.499 -35s-32.833 -59 -43.5 -107v-309h-90v526h78l7 -104c26 77.333 69.667 116 131 116c17.333 0 32.333 -2 45 -6zM326 783l35 -40l-121 -116h-56l-121 116l35 40l114 -88z" />
    <glyph glyph-name="Sacute" unicode="&#x15a;" horiz-adv-x="496" 
d="M354.5 681c30.333 -13.333 58.8311 -33.3311 85.498 -59.998l-47 -53c-22.667 20 -45.167 34.833 -67.5 44.5s-46.5 14.5 -72.5 14.5c-33.333 0 -60.166 -9.16699 -80.499 -27.5s-30.5 -42.5 -30.5 -72.5c0 -20 4 -37.167 12 -51.5s21.667 -27.333 41 -39
s46.666 -23.5 81.999 -35.5c40.667 -14.667 74 -30.334 100 -47.001s46 -38 60 -64s21 -58.667 21 -98s-9 -74.5 -27 -105.5s-43.833 -55.333 -77.5 -73s-73.167 -26.5 -118.5 -26.5c-83.333 0 -154.333 30 -213 90l49 53c24.667 -22 49.834 -38.833 75.501 -50.5
s54.167 -17.5 85.5 -17.5c39.333 0 70.833 11.167 94.5 33.5s35.5 53.166 35.5 92.499c0 34 -9.5 61 -28.5 81s-53.833 38.667 -104.5 56c-64.667 22.667 -111.167 49 -139.5 79s-42.5 69 -42.5 117c0 34 8.5 64.833 25.5 92.5s40.833 49.167 71.5 64.5
s65.334 23 104.001 23c40.667 0 76.167 -6.66699 106.5 -20zM321.998 908.002l38 -73l-194 -79l-24 47z" />
    <glyph glyph-name="sacute" unicode="&#x15b;" horiz-adv-x="427" 
d="M379 479l-38.002 -53.001c-21.333 14.667 -41.333 25.667 -60 33s-38.334 11 -59.001 11c-27.333 0 -48.833 -6.5 -64.5 -19.5s-23.5 -30.833 -23.5 -53.5c0 -22 7.5 -39.333 22.5 -52s43.5 -25.667 85.5 -39c52.667 -16.667 91 -37 115 -61s36 -57 36 -99
c0 -49.333 -18 -88.166 -54 -116.499s-81 -42.5 -135 -42.5c-71.333 0 -131.666 23.667 -180.999 71l46 50c42 -34 86.333 -51 133 -51c29.333 0 53 7.33301 71 22s27 35 27 61c0 18.667 -3.16699 33.667 -9.5 45s-17.666 21.5 -33.999 30.5s-40.166 18.5 -71.499 28.5
c-50 16.667 -86 36.667 -108 60s-33 53 -33 89c0 28 7.33301 53 22 75s35 39.333 61 52s56 19 90 19c60.667 0 114.667 -20 162 -60zM285.998 796.999l38 -72l-192 -87l-26 46z" />
    <glyph glyph-name="Scircumflex" unicode="&#x15c;" horiz-adv-x="496" 
d="M354.5 681c30.333 -13.333 58.8311 -33.3311 85.498 -59.998l-47 -53c-22.667 20 -45.167 34.833 -67.5 44.5s-46.5 14.5 -72.5 14.5c-33.333 0 -60.166 -9.16699 -80.499 -27.5s-30.5 -42.5 -30.5 -72.5c0 -20 4 -37.167 12 -51.5s21.667 -27.333 41 -39
s46.666 -23.5 81.999 -35.5c40.667 -14.667 74 -30.334 100 -47.001s46 -38 60 -64s21 -58.667 21 -98s-9 -74.5 -27 -105.5s-43.833 -55.333 -77.5 -73s-73.167 -26.5 -118.5 -26.5c-83.333 0 -154.333 30 -213 90l49 53c24.667 -22 49.834 -38.833 75.501 -50.5
s54.167 -17.5 85.5 -17.5c39.333 0 70.833 11.167 94.5 33.5s35.5 53.166 35.5 92.499c0 34 -9.5 61 -28.5 81s-53.833 38.667 -104.5 56c-64.667 22.667 -111.167 49 -139.5 79s-42.5 69 -42.5 117c0 34 8.5 64.833 25.5 92.5s40.833 49.167 71.5 64.5
s65.334 23 104.001 23c40.667 0 76.167 -6.66699 106.5 -20zM135.998 761.002l-35 39l122 112h55l121 -112l-35 -39l-114 81z" />
    <glyph glyph-name="scircumflex" unicode="&#x15d;" horiz-adv-x="427" 
d="M379 479l-38.002 -53.001c-21.333 14.667 -41.333 25.667 -60 33s-38.334 11 -59.001 11c-27.333 0 -48.833 -6.5 -64.5 -19.5s-23.5 -30.833 -23.5 -53.5c0 -22 7.5 -39.333 22.5 -52s43.5 -25.667 85.5 -39c52.667 -16.667 91 -37 115 -61s36 -57 36 -99
c0 -49.333 -18 -88.166 -54 -116.499s-81 -42.5 -135 -42.5c-71.333 0 -131.666 23.667 -180.999 71l46 50c42 -34 86.333 -51 133 -51c29.333 0 53 7.33301 71 22s27 35 27 61c0 18.667 -3.16699 33.667 -9.5 45s-17.666 21.5 -33.999 30.5s-40.166 18.5 -71.499 28.5
c-50 16.667 -86 36.667 -108 60s-33 53 -33 89c0 28 7.33301 53 22 75s35 39.333 61 52s56 19 90 19c60.667 0 114.667 -20 162 -60zM105.998 636.999l-35 39l121 117h56l121 -117l-35 -39l-114 86z" />
    <glyph glyph-name="Scedilla" unicode="&#x15e;" horiz-adv-x="496" 
d="M406.5 55c-34.333 -37.333 -80.5 -59.335 -138.5 -66.002v-49c29.333 -3.33301 51.166 -12.166 65.499 -26.499s21.5 -33.166 21.5 -56.499c0 -30 -10.5 -53.5 -31.5 -70.5s-47.833 -25.5 -80.5 -25.5c-33.333 0 -61.333 8 -84 24l24 46
c17.333 -8.66699 35.666 -13 54.999 -13c14 0 25.167 3.33301 33.5 10s12.5 16.334 12.5 29.001c0 14.667 -6.5 25.5 -19.5 32.5s-33.5 10.5 -61.5 10.5l9 88c-72 4.66699 -135.333 34.334 -190 89.001l49 53c24.667 -22 49.834 -38.833 75.501 -50.5
s54.167 -17.5 85.5 -17.5c39.333 0 70.833 11.167 94.5 33.5s35.5 53.166 35.5 92.499c0 34 -9.5 61 -28.5 81s-53.833 38.667 -104.5 56c-64.667 22.667 -111.167 49 -139.5 79s-42.5 69 -42.5 117c0 34 8.5 64.833 25.5 92.5s40.833 49.167 71.5 64.5
s65.334 23 104.001 23c40.667 0 76.167 -6.66699 106.5 -20s58.833 -33.333 85.5 -60l-47 -53c-22.667 20 -45.167 34.833 -67.5 44.5s-46.5 14.5 -72.5 14.5c-33.333 0 -60.166 -9.16699 -80.499 -27.5s-30.5 -42.5 -30.5 -72.5c0 -20 4 -37.167 12 -51.5
s21.667 -27.333 41 -39s46.666 -23.5 81.999 -35.5c40.667 -14.667 74 -30.334 100 -47.001s46 -38 60 -64s21 -58.667 21 -98c0 -54 -17.167 -99.667 -51.5 -137z" />
    <glyph glyph-name="scedilla" unicode="&#x15f;" horiz-adv-x="427" 
d="M349.5 39c-29 -27.333 -66.498 -44.0029 -112.498 -50.0029v-49c29.333 -3.33301 51.166 -12.166 65.499 -26.499s21.5 -33.166 21.5 -56.499c0 -30 -10.5 -53.5 -31.5 -70.5s-47.833 -25.5 -80.5 -25.5c-33.333 0 -61.333 8 -84 24l24 46
c17.333 -8.66699 35.666 -13 54.999 -13c14 0 25.167 3.33301 33.5 10s12.5 16.334 12.5 29.001c0 14.667 -6.5 25.5 -19.5 32.5s-33.5 10.5 -61.5 10.5l9 88c-60.667 4.66699 -113.334 28 -158.001 70l46 50c42 -34 86.333 -51 133 -51c29.333 0 53 7.33301 71 22
s27 35 27 61c0 18.667 -3.16699 33.667 -9.5 45s-17.666 21.5 -33.999 30.5s-40.166 18.5 -71.499 28.5c-50 16.667 -86 36.667 -108 60s-33 53 -33 89c0 28 7.33301 53 22 75s35 39.333 61 52s56 19 90 19c60.667 0 114.667 -20 162 -60l-38 -53
c-21.333 14.667 -41.333 25.667 -60 33s-38.334 11 -59.001 11c-27.333 0 -48.833 -6.5 -64.5 -19.5s-23.5 -30.833 -23.5 -53.5c0 -22 7.5 -39.333 22.5 -52s43.5 -25.667 85.5 -39c52.667 -16.667 91 -37 115 -61s36 -57 36 -99c0 -44 -14.5 -79.667 -43.5 -107z" />
    <glyph glyph-name="Scaron" unicode="&#x160;" horiz-adv-x="496" 
d="M354.5 681c30.333 -13.333 58.8311 -33.3311 85.498 -59.998l-47 -53c-22.667 20 -45.167 34.833 -67.5 44.5s-46.5 14.5 -72.5 14.5c-33.333 0 -60.166 -9.16699 -80.499 -27.5s-30.5 -42.5 -30.5 -72.5c0 -20 4 -37.167 12 -51.5s21.667 -27.333 41 -39
s46.666 -23.5 81.999 -35.5c40.667 -14.667 74 -30.334 100 -47.001s46 -38 60 -64s21 -58.667 21 -98s-9 -74.5 -27 -105.5s-43.833 -55.333 -77.5 -73s-73.167 -26.5 -118.5 -26.5c-83.333 0 -154.333 30 -213 90l49 53c24.667 -22 49.834 -38.833 75.501 -50.5
s54.167 -17.5 85.5 -17.5c39.333 0 70.833 11.167 94.5 33.5s35.5 53.166 35.5 92.499c0 34 -9.5 61 -28.5 81s-53.833 38.667 -104.5 56c-64.667 22.667 -111.167 49 -139.5 79s-42.5 69 -42.5 117c0 34 8.5 64.833 25.5 92.5s40.833 49.167 71.5 64.5
s65.334 23 104.001 23c40.667 0 76.167 -6.66699 106.5 -20zM364.998 905.002l35 -39l-121 -112h-56l-121 112l36 39l113 -81z" />
    <glyph glyph-name="scaron" unicode="&#x161;" horiz-adv-x="427" 
d="M379 479l-38.002 -53.001c-21.333 14.667 -41.333 25.667 -60 33s-38.334 11 -59.001 11c-27.333 0 -48.833 -6.5 -64.5 -19.5s-23.5 -30.833 -23.5 -53.5c0 -22 7.5 -39.333 22.5 -52s43.5 -25.667 85.5 -39c52.667 -16.667 91 -37 115 -61s36 -57 36 -99
c0 -49.333 -18 -88.166 -54 -116.499s-81 -42.5 -135 -42.5c-71.333 0 -131.666 23.667 -180.999 71l46 50c42 -34 86.333 -51 133 -51c29.333 0 53 7.33301 71 22s27 35 27 61c0 18.667 -3.16699 33.667 -9.5 45s-17.666 21.5 -33.999 30.5s-40.166 18.5 -71.499 28.5
c-50 16.667 -86 36.667 -108 60s-33 53 -33 89c0 28 7.33301 53 22 75s35 39.333 61 52s56 19 90 19c60.667 0 114.667 -20 162 -60zM333.998 782.999l35 -40l-121 -116h-56l-121 116l35 40l114 -88z" />
    <glyph glyph-name="uni0162" unicode="&#x162;" horiz-adv-x="463" 
d="M344 -84.5c14.667 -15 22 -34.167 22 -57.5c0 -30 -10.5 -53.667 -31.5 -71s-48.5 -26 -82.5 -26c-32.667 0 -60 8 -82 24l24 49c18 -10.667 35.667 -16 53 -16c14.667 0 26.334 3.33301 35.001 10s13 16.667 13 30c0 14 -6.33301 24.5 -19 31.5
s-33.334 10.5 -62.001 10.5l10 100h-39v612h-174v76h447l-11 -76h-169v-670c29.333 -2.66699 51.333 -11.5 66 -26.5z" />
    <glyph glyph-name="uni0163" unicode="&#x163;" horiz-adv-x="327" 
d="M298.5 -86.5c14.333 -14.333 21.502 -33.168 21.502 -56.501c0 -30 -10.5 -53.5 -31.5 -70.5s-47.833 -25.5 -80.5 -25.5c-33.333 0 -61.333 8 -84 24l24 46c17.333 -8.66699 35.666 -13 54.999 -13c14 0 25.167 3.33301 33.5 10s12.5 16.334 12.5 29.001
c0 14.667 -6.5 25.5 -19.5 32.5s-33.5 10.5 -61.5 10.5l9 92c-29.333 7.33301 -51.833 22.666 -67.5 45.999s-23.5 53.333 -23.5 90v330h-75v68h75v121l90 11v-132h116l-10 -68h-106v-329c0 -45.333 19 -68 57 -68c11.333 0 21.833 1.66699 31.5 5s20.5 8.33301 32.5 15
l33 -58c-30 -21.333 -62.333 -33 -97 -35v-48c29.333 -3.33301 51.166 -12.166 65.499 -26.499z" />
    <glyph glyph-name="Tcaron" unicode="&#x164;" horiz-adv-x="463" 
d="M458 688l-11 -76h-169v-612h-93v612h-174v76h447zM346 905l35 -39l-121 -112h-56l-121 112l36 39l113 -81z" />
    <glyph glyph-name="tcaron" unicode="&#x165;" horiz-adv-x="327" 
d="M301 751l-42 -181l-52 8l19 183zM330 23c-33.333 -24 -70.333 -36.001 -111 -36.001c-42.667 0 -75.5 12.333 -98.5 37s-34.5 59.334 -34.5 104.001v330h-75v68h75v121l90 11v-132h116l-10 -68h-106v-329c0 -45.333 19 -68 57 -68c11.333 0 21.833 1.66699 31.5 5
s20.5 8.33301 32.5 15z" />
    <glyph glyph-name="Tbar" unicode="&#x166;" horiz-adv-x="463" 
d="M447 611h-169v-225h109v-64h-109v-323h-93v323h-108v64h108v225h-174v76h447z" />
    <glyph glyph-name="tbar" unicode="&#x167;" horiz-adv-x="327" 
d="M330 23c-33.333 -24 -70.333 -36.001 -111 -36.001c-42.667 0 -75.5 12.333 -98.5 37s-34.5 59.334 -34.5 104.001v160h-70v67h70v103h-75v68h75v121l90 11v-132h116l-10 -68h-106v-103h102v-67h-102v-159c0 -45.333 19 -68 57 -68c11.333 0 21.833 1.66699 31.5 5
s20.5 8.33301 32.5 15z" />
    <glyph glyph-name="Utilde" unicode="&#x168;" horiz-adv-x="588" 
d="M514 202c0 -63.333 -19.001 -115 -57.001 -155s-92.333 -60 -163 -60c-71.333 0 -125.666 19.833 -162.999 59.5s-56 91.5 -56 155.5v486h93v-480c0 -96.667 42 -145 126 -145s126 48.333 126 145v480h94v-486zM315.999 791.5
c-9.33301 4.33301 -20.3291 10.833 -32.9961 19.5c-6.66699 4.66699 -13.667 8.83398 -21 12.501s-14 5.5 -20 5.5c-10 0 -18.667 -3.33301 -26 -10s-15.333 -17.334 -24 -32.001l-48 23c11.333 26 25.166 46.5 41.499 61.5s34.5 22.5 54.5 22.5
c11.333 0 21.666 -2.16699 30.999 -6.5s19.666 -10.5 30.999 -18.5c9.33301 -6.66699 17.333 -11.5 24 -14.5s13.667 -4.5 21 -4.5c9.33301 0 17.666 3.33301 24.999 10s15 17.667 23 33l49 -23c-21.333 -56.667 -53.333 -85 -96 -85c-12 0 -22.667 2.16699 -32 6.5z" />
    <glyph glyph-name="utilde" unicode="&#x169;" horiz-adv-x="523" 
d="M442 0h-78l-5 79c-36.667 -61.333 -85.667 -92 -147 -92c-42 0 -75 13.667 -99 41s-36 64.333 -36 111v387h90v-379c0 -30.667 5.83301 -53.167 17.5 -67.5s29.167 -21.5 52.5 -21.5c44.667 0 83 29.333 115 88v380h90v-526zM282 665.5
c-9.33301 4.33301 -20.3291 10.833 -32.9961 19.5c-6.66699 4.66699 -13.667 8.83398 -21 12.501s-14 5.5 -20 5.5c-10 0 -18.667 -3.33301 -26 -10s-15.333 -17.334 -24 -32.001l-48 23c11.333 26 25.166 46.5 41.499 61.5s34.5 22.5 54.5 22.5
c11.333 0 21.666 -2.16699 30.999 -6.5s19.666 -10.5 30.999 -18.5c9.33301 -6.66699 17.333 -11.5 24 -14.5s13.667 -4.5 21 -4.5c9.33301 0 17.666 3.33301 24.999 10s15 17.667 23 33l49 -23c-21.333 -56.667 -53.333 -85 -96 -85c-12 0 -22.667 2.16699 -32 6.5z" />
    <glyph glyph-name="Umacron" unicode="&#x16a;" horiz-adv-x="588" 
d="M514 202c0 -63.333 -19.001 -115 -57.001 -155s-92.333 -60 -163 -60c-71.333 0 -125.666 19.833 -162.999 59.5s-56 91.5 -56 155.5v486h93v-480c0 -96.667 42 -145 126 -145s126 48.333 126 145v480h94v-486zM414.999 795h-242v66h242v-66z" />
    <glyph glyph-name="umacron" unicode="&#x16b;" horiz-adv-x="523" 
d="M442 0h-78l-5 79c-36.667 -61.333 -85.667 -92 -147 -92c-42 0 -75 13.667 -99 41s-36 64.333 -36 111v387h90v-379c0 -30.667 5.83301 -53.167 17.5 -67.5s29.167 -21.5 52.5 -21.5c44.667 0 83 29.333 115 88v380h90v-526zM381 669h-242v66h242v-66z" />
    <glyph glyph-name="Ubreve" unicode="&#x16c;" horiz-adv-x="588" 
d="M514 202c0 -63.333 -19.001 -115 -57.001 -155s-92.333 -60 -163 -60c-71.333 0 -125.666 19.833 -162.999 59.5s-56 91.5 -56 155.5v486h93v-480c0 -96.667 42 -145 126 -145s126 48.333 126 145v480h94v-486zM201.499 792.5c-23.667 21.667 -37.5 50.834 -41.5 87.501
l54 12c5.33301 -20.667 14.666 -36.667 27.999 -48s30.333 -17 51 -17s38 5.66699 52 17s23.667 27.333 29 48l54 -12c-4 -36.667 -18.167 -65.834 -42.5 -87.501s-55.166 -32.5 -92.499 -32.5s-67.833 10.833 -91.5 32.5z" />
    <glyph glyph-name="ubreve" unicode="&#x16d;" horiz-adv-x="523" 
d="M442 0h-78l-5 79c-36.667 -61.333 -85.667 -92 -147 -92c-42 0 -75 13.667 -99 41s-36 64.333 -36 111v387h90v-379c0 -30.667 5.83301 -53.167 17.5 -67.5s29.167 -21.5 52.5 -21.5c44.667 0 83 29.333 115 88v380h90v-526zM167.5 680
c-23.667 23.333 -37.5 55.333 -41.5 96l54 12c12 -50.667 38.333 -76 79 -76c42 0 69 25.333 81 76l54 -12c-4 -40.667 -18 -72.667 -42 -96s-55 -35 -93 -35c-37.333 0 -67.833 11.667 -91.5 35z" />
    <glyph glyph-name="Uring" unicode="&#x16e;" horiz-adv-x="588" 
d="M514 202c0 -63.333 -19.001 -115 -57.001 -155s-92.333 -60 -163 -60c-71.333 0 -125.666 19.833 -162.999 59.5s-56 91.5 -56 155.5v486h93v-480c0 -96.667 42 -145 126 -145s126 48.333 126 145v480h94v-486zM369.499 932c19 -19.333 28.5 -44.666 28.5 -75.999
s-9.5 -56.833 -28.5 -76.5s-44.167 -29.5 -75.5 -29.5s-56.5 9.83301 -75.5 29.5s-28.5 45.167 -28.5 76.5s9.5 56.666 28.5 75.999s44.167 29 75.5 29s56.5 -9.66699 75.5 -29zM247.999 856c0 -38 15.333 -57 46 -57c31.333 0 47 19 47 57s-15.667 57 -47 57
c-30.667 0 -46 -19 -46 -57z" />
    <glyph glyph-name="uring" unicode="&#x16f;" horiz-adv-x="523" 
d="M442 0h-78l-5 79c-36.667 -61.333 -85.667 -92 -147 -92c-42 0 -75 13.667 -99 41s-36 64.333 -36 111v387h90v-379c0 -30.667 5.83301 -53.167 17.5 -67.5s29.167 -21.5 52.5 -21.5c44.667 0 83 29.333 115 88v380h90v-526zM335.5 806
c19 -19.333 28.5 -44.666 28.5 -75.999s-9.5 -56.833 -28.5 -76.5s-44.167 -29.5 -75.5 -29.5s-56.5 9.83301 -75.5 29.5s-28.5 45.167 -28.5 76.5s9.5 56.666 28.5 75.999s44.167 29 75.5 29s56.5 -9.66699 75.5 -29zM214 730c0 -38 15.333 -57 46 -57
c31.333 0 47 19 47 57s-15.667 57 -47 57c-30.667 0 -46 -19 -46 -57z" />
    <glyph glyph-name="Uhungarumlaut" unicode="&#x170;" horiz-adv-x="588" 
d="M514 202c0 -63.333 -19.001 -115 -57.001 -155s-92.333 -60 -163 -60c-71.333 0 -125.666 19.833 -162.999 59.5s-56 91.5 -56 155.5v486h93v-480c0 -96.667 42 -145 126 -145s126 48.333 126 145v480h94v-486zM265.999 953l68 -36l-87 -150l-50 22zM400.999 953l68 -36
l-95 -155l-50 23z" />
    <glyph glyph-name="uhungarumlaut" unicode="&#x171;" horiz-adv-x="523" 
d="M442 0h-78l-5 79c-36.667 -61.333 -85.667 -92 -147 -92c-42 0 -75 13.667 -99 41s-36 64.333 -36 111v387h90v-379c0 -30.667 5.83301 -53.167 17.5 -67.5s29.167 -21.5 52.5 -21.5c44.667 0 83 29.333 115 88v380h90v-526zM234 827l68 -36l-87 -150l-50 22zM369 827
l68 -36l-95 -155l-50 23z" />
    <glyph glyph-name="Uogonek" unicode="&#x172;" horiz-adv-x="588" 
d="M514 688l-0.000976562 -485.999c0 -50 -12 -93.167 -36 -129.5s-59 -61.166 -105 -74.499c-38.667 -18.667 -65.667 -36.834 -81 -54.501s-23 -36.5 -23 -56.5c0 -16 4.5 -28.333 13.5 -37s22.167 -13 39.5 -13c16.667 0 34.334 2.33301 53.001 7l-7 -65
c-20.667 -4.66699 -39.667 -7 -57 -7c-34.667 0 -62.167 9.16699 -82.5 27.5s-30.5 42.5 -30.5 72.5c0 24.667 7.5 46.667 22.5 66s36.167 35.666 63.5 48.999c-68 2 -119.833 22.667 -155.5 62s-53.5 90.333 -53.5 153v486h93v-480c0 -96.667 42 -145 126 -145
s126 48.333 126 145v480h94z" />
    <glyph glyph-name="uogonek" unicode="&#x173;" horiz-adv-x="523" 
d="M357 -55.5c-16 -17.667 -24.001 -37.168 -24.001 -58.501c0 -32.667 17.667 -49 53 -49c15.333 0 33 2 53 6l-7 -64c-22 -4.66699 -41 -7 -57 -7c-35.333 0 -63.166 9 -83.499 27s-30.5 42.333 -30.5 73c0 28.667 8.66699 53.834 26 75.501s43 41.167 77 58.5l-5 73
c-36.667 -61.333 -85.667 -92 -147 -92c-42 0 -75 13.667 -99 41s-36 64.333 -36 111v387h90v-379c0 -30.667 5.83301 -53.167 17.5 -67.5s29.167 -21.5 52.5 -21.5c44.667 0 83 29.333 115 88v380h90v-526c-40.667 -19.333 -69 -37.833 -85 -55.5z" />
    <glyph glyph-name="Wcircumflex" unicode="&#x174;" horiz-adv-x="749" 
d="M726 688l-122 -688h-120l-110 586l-112 -586h-118l-121 688h90l96 -609l115 609h101l115 -609l99 609h87zM260 761l-35 39l122 112h55l121 -112l-35 -39l-114 81z" />
    <glyph glyph-name="wcircumflex" unicode="&#x175;" horiz-adv-x="655" 
d="M636 526l-108 -526h-114l-86 444l-85 -444h-114l-110 526h89l82 -458l92 458h97l89 -459l83 459h85zM215 637l-35 39l121 117h56l121 -117l-35 -39l-114 86z" />
    <glyph glyph-name="Ycircumflex" unicode="&#x176;" horiz-adv-x="498" 
d="M494 688l-198 -423v-265h-94v264l-198 424h100l147 -344l146 344h97zM134 761l-35 39l122 112h55l121 -112l-35 -39l-114 81z" />
    <glyph glyph-name="ycircumflex" unicode="&#x177;" horiz-adv-x="446" 
d="M279 -2c-18.667 -62 -45 -110 -79 -144s-82.333 -55.667 -145 -65l-10 67c31.333 6.66699 56.333 15.667 75 27s33.667 26 45 44s22.333 42.333 33 73h-33l-156 526h93l122 -463l122 463h92zM109 637l-35 39l121 117h56l121 -117l-35 -39l-114 86z" />
    <glyph glyph-name="Ydieresis" unicode="&#x178;" horiz-adv-x="498" 
d="M494 688l-198 -423v-265h-94v264l-198 424h100l147 -344l146 344h97zM195 873c10 -10 15 -22.667 15 -38s-5 -28.166 -15 -38.499s-22.333 -15.5 -37 -15.5c-15.333 0 -28 5.16699 -38 15.5s-15 23.166 -15 38.499s5 28 15 38s22.667 15 38 15c14.667 0 27 -5 37 -15z
M382 873c10 -10 15 -22.667 15 -38s-5 -28.166 -15 -38.499s-22.333 -15.5 -37 -15.5s-27.167 5.16699 -37.5 15.5s-15.5 23.166 -15.5 38.499s5 28 15 38s22.667 15 38 15c14.667 0 27 -5 37 -15z" />
    <glyph glyph-name="Zacute" unicode="&#x179;" horiz-adv-x="472" 
d="M437 688v-74l-310 -535h309l-10 -79h-401v74l312 537h-281v77h381zM313 908l38 -73l-194 -79l-24 47z" />
    <glyph glyph-name="zacute" unicode="&#x17a;" horiz-adv-x="395" 
d="M368 526v-67l-249 -385h250l-9 -74h-340v67l249 385h-228v74h327zM267 797l38 -72l-192 -87l-26 46z" />
    <glyph glyph-name="Zdotaccent" unicode="&#x17b;" horiz-adv-x="472" 
d="M437 688v-74l-310 -535h309l-10 -79h-401v74l312 537h-281v77h381zM284.5 883c11 -11.333 16.5 -25.333 16.5 -42s-5.33301 -30.5 -16 -41.5s-25 -16.5 -43 -16.5c-17.333 0 -31.5 5.5 -42.5 16.5s-16.5 24.833 -16.5 41.5s5.5 30.667 16.5 42s25.167 17 42.5 17
s31.5 -5.66699 42.5 -17z" />
    <glyph glyph-name="zdotaccent" unicode="&#x17c;" horiz-adv-x="395" 
d="M368 526v-67l-249 -385h250l-9 -74h-340v67l249 385h-228v74h327zM243.5 757c11 -11.333 16.5 -25.333 16.5 -42s-5.33301 -30.5 -16 -41.5s-25 -16.5 -43 -16.5c-17.333 0 -31.5 5.5 -42.5 16.5s-16.5 24.833 -16.5 41.5s5.5 30.667 16.5 42s25.167 17 42.5 17
s31.5 -5.66699 42.5 -17z" />
    <glyph glyph-name="Zcaron" unicode="&#x17d;" horiz-adv-x="472" 
d="M437 688v-74l-310 -535h309l-10 -79h-401v74l312 537h-281v77h381zM356 905l35 -39l-121 -112h-56l-121 112l36 39l113 -81z" />
    <glyph glyph-name="zcaron" unicode="&#x17e;" horiz-adv-x="395" 
d="M368 526v-67l-249 -385h250l-9 -74h-340v67l249 385h-228v74h327zM315 783l35 -40l-121 -116h-56l-121 116l35 40l114 -88z" />
    <glyph glyph-name="longs" unicode="&#x17f;" horiz-adv-x="306" 
d="M362 720l-27 -62c-27.333 13.333 -54.666 20 -81.999 20c-24.667 0 -42.834 -6 -54.501 -18s-17.5 -30.667 -17.5 -56v-604h-90v458h-78v68h78v77c0 44 13.5 79.333 40.5 106s64.5 40 112.5 40c40 0 79.333 -9.66699 118 -29z" />
    <glyph glyph-name="uni0180" unicode="&#x180;" horiz-adv-x="537" 
d="M440.5 468.5c30.333 -47 45.501 -115.167 45.501 -204.5c0 -85.333 -16.5 -152.833 -49.5 -202.5s-77.833 -74.5 -134.5 -74.5c-26.667 0 -51 6.16699 -73 18.5s-41 29.833 -57 52.5l-6 -58h-80v609h-65v64h65v65l90 10v-75h135v-64h-135v-147
c16.667 24 36.5 42.833 59.5 56.5s48.5 20.5 76.5 20.5c55.333 0 98.166 -23.5 128.499 -70.5zM392.001 264c0 74 -9 126.501 -27 157.501s-43.667 46.5 -77 46.5c-23.333 0 -43.833 -7 -61.5 -21s-34.5 -33.667 -50.5 -59v-261c12.667 -20.667 28 -37.334 46 -50.001
s37.667 -19 59 -19c74 0 111 68.667 111 206z" />
    <glyph glyph-name="uni0181" unicode="&#x181;" horiz-adv-x="630" 
d="M592 194c0 -65.333 -22 -113.998 -66 -145.998s-104.667 -48 -182 -48h-176v616h-25c-36.667 0 -55 -18 -55 -54c0 -12 1.66699 -23.5 5 -34.5s8 -23.833 14 -38.5l-60 -29c-12 17.333 -21.167 34.333 -27.5 51s-9.5 36 -9.5 58c0 36 11.667 64.833 35 86.5
s57.333 32.5 102 32.5h170c79.333 0 140.333 -14.667 183 -44s64 -72.333 64 -129c0 -40.667 -11.167 -73.834 -33.5 -99.501s-51.833 -42.834 -88.5 -51.501c100 -17.333 150 -74 150 -170zM261 617.002v-222h86c38.667 0 68.834 9.83301 90.501 29.5
s32.5 47.167 32.5 82.5c0 38.667 -11.833 66.667 -35.5 84s-59.834 26 -108.501 26h-65zM457 101.502c26 19 39 50.5 39 94.5c0 86.667 -47 130 -141 130h-94v-253h84c48.667 0 86 9.5 112 28.5z" />
    <glyph glyph-name="uni0182" unicode="&#x182;" horiz-adv-x="525" 
d="M433.5 375.5c41 -35 61.5 -86.833 61.5 -155.5c0 -75.333 -21.167 -130.833 -63.5 -166.5s-101.5 -53.5 -177.5 -53.5h-169v688h344l-11 -75h-240v-185h82c74.667 0 132.5 -17.5 173.5 -52.5zM362.5 106c23 22 34.499 59.667 34.499 113c0 48 -11.667 83 -35 105
s-58.666 33 -105.999 33h-78v-284h80c46.667 0 81.5 11 104.5 33z" />
    <glyph glyph-name="uni0183" unicode="&#x183;" horiz-adv-x="532" 
d="M435.5 468.5c30.333 -47 45.501 -115.167 45.501 -204.5c0 -85.333 -16.5 -152.833 -49.5 -202.5s-77.833 -74.5 -134.5 -74.5c-26.667 0 -51 6.16699 -73 18.5s-41 29.833 -57 52.5l-6 -58h-80v739h295l-11 -69h-194v-208c16.667 24 36.5 42.833 59.5 56.5
s48.5 20.5 76.5 20.5c55.333 0 98.166 -23.5 128.499 -70.5zM387.001 264c0 74 -9 126.501 -27 157.501s-43.667 46.5 -77 46.5c-23.333 0 -43.833 -7 -61.5 -21s-34.5 -33.667 -50.5 -59v-261c12.667 -20.667 28 -37.334 46 -50.001s37.667 -19 59 -19
c74 0 111 68.667 111 206z" />
    <glyph glyph-name="uni0184" unicode="&#x184;" horiz-adv-x="524" 
d="M437 381.5c41.333 -35 62.001 -87.834 62.001 -158.501c0 -76.667 -21 -133 -63 -169s-100.667 -54 -176 -54h-172v530l-56 39c27.333 30.667 50.666 70.334 69.999 119.001h80v-254h78c76.667 0 135.667 -17.5 177 -52.5zM365.501 106.999
c23.667 22.667 35.5 61.001 35.5 115.001c0 49.333 -11.833 85.166 -35.5 107.499s-59.5 33.5 -107.5 33.5h-76v-290h80c45.333 0 79.833 11.333 103.5 34z" />
    <glyph glyph-name="uni0185" unicode="&#x185;" horiz-adv-x="468" 
d="M391.5 309c33 -30 49.501 -73.333 49.501 -130c0 -60 -17.667 -104.833 -53 -134.5s-82.333 -44.5 -141 -44.5h-161v377l-56 40c27.333 30.667 50.666 67 69.999 109h76v-172h58c72 0 124.5 -15 157.5 -45zM321.001 93c18 17.333 27.001 46.333 27.001 87
c0 37.333 -8.33301 64.833 -25 82.5s-45.334 26.5 -86.001 26.5h-61v-222h65c35.333 0 62 8.66699 80 26z" />
    <glyph glyph-name="uni0186" unicode="&#x186;" horiz-adv-x="508" 
d="M392 611c44 -60 65.9961 -148.667 65.9961 -266c0 -77.333 -11.167 -142.833 -33.5 -196.5s-53.166 -94 -92.499 -121s-84.666 -40.5 -135.999 -40.5c-69.333 0 -129.666 25.667 -180.999 77l47 54c23.333 -18 44.333 -31.333 63 -40s41.334 -13 68.001 -13
c50.667 0 91.167 22.5 121.5 67.5s45.5 115.833 45.5 212.5c0 187.333 -51.667 281 -155 281c-26 0 -49.833 -4 -71.5 -12s-43.167 -20.333 -64.5 -37l-46 56c26.667 22.667 55 39.667 85 51s63.667 17 101 17c78 0 139 -30 183 -90z" />
    <glyph glyph-name="uni0187" unicode="&#x187;" horiz-adv-x="508" 
d="M637 797l-31.999 -54.999c-12 6.66699 -22.5 11.667 -31.5 15s-19.833 5 -32.5 5c-18 0 -31.667 -5.33301 -41 -16s-14 -28.334 -14 -53.001v-60l-43 -51c-22 15.333 -42.667 26.5 -62 33.5s-40.333 10.5 -63 10.5c-52 0 -93.333 -22.167 -124 -66.5
s-46 -115.833 -46 -214.5c0 -96 15.333 -166.833 46 -212.5s72 -68.5 124 -68.5c26 0 48.333 4.66699 67 14s39 23 61 41l47 -55c-22 -22.667 -48 -41.167 -78 -55.5s-64 -21.5 -102 -21.5c-51.333 0 -96.833 13.333 -136.5 40s-70.667 66.834 -93 120.501
s-33.5 119.5 -33.5 197.5c0 77.333 11.5 142.666 34.5 195.999s54 93.333 93 120s82.5 40 130.5 40c35.333 0 66.666 -7.66699 93.999 -23v15c0 44.667 11.5 79.167 34.5 103.5s54.5 36.5 94.5 36.5s75.333 -12 106 -36z" />
    <glyph glyph-name="uni0188" unicode="&#x188;" horiz-adv-x="428" 
d="M560 713l-31.998 -56c-12 7.33301 -22.667 12.666 -32 15.999s-20.333 5 -33 5c-36.667 0 -55 -23 -55 -69v-127l-37 -49c-18.667 10.667 -35.834 18.834 -51.501 24.501s-32.834 8.5 -51.501 8.5c-39.333 0 -69.833 -16.667 -91.5 -50s-32.5 -85.333 -32.5 -156
c0 -132 41.333 -198 124 -198c18.667 0 35.667 3.16699 51 9.5s31.666 15.833 48.999 28.5l42 -55c-42.667 -38.667 -91 -58 -145 -58c-67.333 0 -120.166 23.333 -158.499 70s-57.5 114 -57.5 202c0 57.333 8.66699 107 26 149s41.833 74.333 73.5 97s68.5 34 110.5 34
c24.667 0 46.667 -4.33301 66 -13v83c0 44.667 11.5 79.167 34.5 103.5s54.167 36.5 93.5 36.5s75 -12 107 -36z" />
    <glyph glyph-name="uni0189" unicode="&#x189;" horiz-adv-x="593" 
d="M393 661c44 -18 79.833 -52.001 107.5 -102.001s41.5 -120.333 41.5 -211c0 -129.333 -27.5 -219.666 -82.5 -270.999s-124.5 -77 -208.5 -77h-155v320h-76v66h76v302h142c59.333 0 111 -9 155 -27zM394 131.499c34 39.667 51.001 111.834 51.001 216.501
c0 73.333 -8.83301 129.666 -26.5 168.999s-40.334 65.5 -68.001 78.5s-60.5 19.5 -98.5 19.5h-63v-229h134v-66h-134v-248h68c57.333 0 103 19.833 137 59.5z" />
    <glyph glyph-name="uni018A" unicode="&#x18a;" horiz-adv-x="664" 
d="M465 661c44 -18 79.833 -52.001 107.5 -102.001s41.5 -120.333 41.5 -211c0 -129.333 -27.5 -219.666 -82.5 -270.999s-124.5 -77 -208.5 -77h-155v616h-25c-36.667 0 -55 -18 -55 -54c0 -12 1.66699 -23.5 5 -34.5s8 -23.833 14 -38.5l-60 -29
c-12 17.333 -21.167 34.333 -27.5 51s-9.5 36 -9.5 58c0 36 11.667 64.833 35 86.5s57.333 32.5 102 32.5h163c59.333 0 111 -9 155 -27zM466 131.499c34 39.667 51.001 111.834 51.001 216.501c0 73.333 -8.83301 129.666 -26.5 168.999s-40.334 65.5 -68.001 78.5
s-60.5 19.5 -98.5 19.5h-63v-543h68c57.333 0 103 19.833 137 59.5z" />
    <glyph glyph-name="uni018B" unicode="&#x18b;" horiz-adv-x="525" 
d="M440 687l-0.000976562 -687h-172c-74.667 -0 -133 17.333 -175 52s-63 88 -63 160c0 70 20.833 123.5 62.5 160.5s100.834 55.5 177.501 55.5h77v185h-246v75h340zM346.999 73l-0.000976562 284h-73c-49.333 0 -86.166 -11.667 -110.499 -35s-36.5 -60 -36.5 -110
c0 -51.333 12.167 -87.333 36.5 -108s60.5 -31 108.5 -31h75z" />
    <glyph glyph-name="uni018C" unicode="&#x18c;" horiz-adv-x="536" 
d="M455 0h-80.001l-6 69c-34 -54.667 -79.667 -82 -137 -82s-101.833 24.167 -133.5 72.5s-47.5 115.166 -47.5 200.499c0 54.667 7.83301 102.834 23.5 144.501s37.834 74 66.501 97s61.667 34.5 99 34.5c50 0 91.667 -21 125 -63v197h-200v69h290v-739zM315.499 78
c17.667 13.333 34.167 33 49.5 59v261c-29.333 45.333 -64.333 68 -105 68c-35.333 0 -63.333 -17.167 -84 -51.5s-30.667 -85.5 -30 -153.5c0 -68.667 9.33301 -119.667 28 -153s45 -50 79 -50c24 0 44.833 6.66699 62.5 20z" />
    <glyph glyph-name="uni018D" unicode="&#x18d;" horiz-adv-x="521" 
d="M402.5 2c13.667 -21.333 20.5 -46.666 20.5 -75.999c0 -40 -14.667 -73.5 -44 -100.5s-70.666 -40.5 -123.999 -40.5c-58 0 -110.333 17.667 -157 53l42 51c19.333 -12.667 37.166 -21.667 53.499 -27s34.833 -8 55.5 -8c28 0 49.167 6.5 63.5 19.5s21.5 30.5 21.5 52.5
c0 15.333 -2.83301 28.333 -8.5 39s-16 21.167 -31 31.5s-37.5 22.166 -67.5 35.499c-62.667 28.667 -108 62 -136 100s-42 89.333 -42 154c0 77.333 18.833 138.833 56.5 184.5s89.5 68.5 155.5 68.5s117.667 -21.167 155 -63.5s56 -104.5 56 -186.5
c0 -53.333 -12.167 -99 -36.5 -137s-58.833 -68.333 -103.5 -91c33.333 -18 56.833 -37.667 70.5 -59zM154.5 198c7.66699 -23.333 21.167 -43.667 40.5 -61s47.333 -34.333 84 -51c32.667 22 57.334 49.333 74.001 82s25 73.334 25 122.001
c0 61.333 -9.66699 106.333 -29 135s-48.333 43 -87 43c-39.333 0 -68.833 -14.333 -88.5 -43s-29.834 -74.334 -30.501 -137.001c0 -36.667 3.83301 -66.667 11.5 -90z" />
    <glyph glyph-name="uni018E" unicode="&#x18e;" horiz-adv-x="469" 
d="M45 688h340v-688h-346v73h253v244h-208v72h208v227h-247v72z" />
    <glyph glyph-name="uni018F" unicode="&#x18f;" horiz-adv-x="586" 
d="M470 616c43.333 -56.667 64.999 -145 64.999 -265c0 -123.333 -22.167 -214.833 -66.5 -274.5s-105.166 -89.5 -182.499 -89.5c-80.667 0 -141.834 29 -183.501 87s-62.5 144.667 -62.5 260c0 16.667 1 33.334 3 50.001h397c-2.66699 87.333 -17.5 149.666 -44.5 186.999
s-65.833 56 -116.5 56c-30 0 -57.333 -5.5 -82 -16.5s-50 -26.833 -76 -47.5l-45 53c30.667 28.667 62.834 50 96.501 64s71.167 21 112.5 21c80 0 141.667 -28.333 185 -85zM396.499 119.5c26.333 39 40.8311 103.499 43.498 193.499h-309
c0.666992 -89.333 14.334 -153.666 41.001 -192.999s64.334 -59 113.001 -59c48 0 85.167 19.5 111.5 58.5z" />
    <glyph glyph-name="uni0190" unicode="&#x190;" horiz-adv-x="475" 
d="M358 679.5c32 -14.333 62 -35.833 90 -64.5l-48 -51c-45.333 42 -91.333 63 -138 63c-35.333 0 -62.333 -10 -81 -30s-28 -46.333 -28 -79c0 -36 10.833 -64.333 32.5 -85s50.834 -31 87.501 -31h58l-11 -74l-48 1c-44.667 0 -78.5 -11.167 -101.5 -33.5
s-34.5 -54.5 -34.5 -96.5c0 -43.333 11.667 -76.833 35 -100.5s55.666 -35.5 96.999 -35.5c29.333 0 55.5 5.66699 78.5 17s45.167 28 66.5 50l53 -49c-53.333 -62.667 -121 -94 -203 -94c-43.333 0 -82 8.5 -116 25.5s-60.667 41.333 -80 73s-29 68.834 -29 111.501
c0 50.667 13.5 90.5 40.5 119.5s62.167 46.5 105.5 52.5c-40 9.33301 -71.167 27.166 -93.5 53.499s-33.5 60.5 -33.5 102.5c0 33.333 8 63.333 24 90s38.667 47.667 68 63s64 23 104 23c38 0 73 -7.16699 105 -21.5z" />
    <glyph glyph-name="uni0191" unicode="&#x191;" horiz-adv-x="438" 
d="M178 616l-0.000976562 -240h200v-72h-200v-372c0 -46.667 -12.833 -82.167 -38.5 -106.5s-59.5 -36.5 -101.5 -36.5c-40.667 0 -76.667 12.333 -108 37l36 55c10.667 -6.66699 20.834 -11.5 30.501 -14.5s21.167 -4.5 34.5 -4.5c36 0 54 22.333 54 67v759h334l-10 -72
h-231z" />
    <glyph glyph-name="florin" unicode="&#x192;" horiz-adv-x="312" 
d="M201.5 660c-11.667 -12 -17.5 -30.667 -17.5 -56v-78h119l-10 -68h-109v-426c0 -48 -5.83301 -87 -17.5 -117s-28.167 -53.833 -49.5 -71.5s-50.333 -35.5 -87 -53.5l-29 66c23.333 12 41.333 24 54 36s22.334 28.5 29.001 49.5s10 49.5 10 85.5v431h-76v68h76v77
c0 44.667 13.333 80.167 40 106.5s64.334 39.5 113.001 39.5c42 0 82.333 -9.66699 121 -29l-26 -62c-28.667 13.333 -57.334 20 -86.001 20c-24.667 0 -42.834 -6 -54.501 -18z" />
    <glyph glyph-name="uni0193" unicode="&#x193;" horiz-adv-x="533" 
d="M662 797l-31.999 -55.002c-12 6.66699 -22.5 11.667 -31.5 15s-19.833 5 -32.5 5c-18 0 -31.667 -5.33301 -41 -16s-14 -28.334 -14 -53.001v-67l-45 -47c-24 16.667 -46.833 28.834 -68.5 36.501s-45.5 11.5 -71.5 11.5c-52 0 -94.667 -22.167 -128 -66.5
s-50 -116.166 -50 -215.499c0 -101.333 14 -173.833 42 -217.5s70 -65.5 126 -65.5c41.333 0 78.666 10 111.999 30v215h-105l-10 73h205v-331c-63.333 -41.333 -131 -62 -203 -62c-84.667 0 -150 29.833 -196 89.5s-69 149.5 -69 269.5c0 76.667 12.333 141.834 37 195.501
s57.334 93.667 98.001 120s85 39.5 133 39.5c41.333 0 77.666 -8.66699 108.999 -26v18c0 44.667 11.5 79.167 34.5 103.5s54.5 36.5 94.5 36.5s75.333 -12 106 -36z" />
    <glyph glyph-name="uni0194" unicode="&#x194;" horiz-adv-x="508" 
d="M307 69c20.667 -44 35.166 -78.499 43.499 -103.499s12.5 -50.5 12.5 -76.5c0 -31.333 -9.16699 -55.833 -27.5 -73.5s-45.166 -26.5 -80.499 -26.5s-62 8.66699 -80 26s-27 41.666 -27 72.999c0 23.333 4.16699 47.833 12.5 73.5s22.833 61.5 43.5 107.5l-197 619h96
l153 -555l153 555h92zM278.499 -55.999c-5 18 -12.833 40.667 -23.5 68c-10.667 -27.333 -18.5 -50 -23.5 -68s-7.5 -34.667 -7.5 -50c0 -24.667 10.333 -37 31 -37s31 12.333 31 37c0 15.333 -2.5 32 -7.5 50z" />
    <glyph glyph-name="uni0195" unicode="&#x195;" horiz-adv-x="797" 
d="M736 260c0 -63.333 -9.66699 -115.332 -29 -155.999s-44.666 -70.334 -75.999 -89.001s-66 -28 -104 -28c-48.667 0 -88.667 14.5 -120 43.5s-47 70.167 -47 123.5v218c0 34 -5.83301 58.5 -17.5 73.5s-28.834 22.5 -51.501 22.5c-44 0 -84 -31.333 -120 -94v-374h-90
v738l90 10v-297c19.333 28.667 40.666 50.5 63.999 65.5s50.333 22.5 81 22.5c42 0 74.833 -14 98.5 -42s35.5 -66 35.5 -114v-227c0 -64.667 27 -97 81 -97c32.667 0 59.834 15.333 81.501 46s32.5 83.334 32.5 158.001c0 82 -7.66699 169.667 -23 263h89
c16.667 -98.667 25 -187.334 25 -266.001z" />
    <glyph glyph-name="uni0196" unicode="&#x196;" horiz-adv-x="329" 
d="M322 25c-31.333 -24.667 -67.334 -37 -108.001 -37c-42 0 -75.833 12.167 -101.5 36.5s-38.5 59.833 -38.5 106.5v69h1v488h93v-489h-1v-71c0 -44.667 18 -67 54 -67c13.333 0 24.833 1.5 34.5 4.5s19.834 7.83301 30.501 14.5z" />
    <glyph glyph-name="uni0197" unicode="&#x197;" horiz-adv-x="289" 
d="M274 396v-72h-83v-324h-93v324h-83v72h83v292h93v-292h83z" />
    <glyph glyph-name="uni0198" unicode="&#x198;" horiz-adv-x="552" 
d="M182 368l140.998 233.001c20.667 36 41 61.667 61 77s45.333 23 76 23c34.667 0 66.334 -12.667 95.001 -38l-31 -53c-8.66699 6 -17.167 10.833 -25.5 14.5s-17.5 5.5 -27.5 5.5c-14 0 -26.167 -3.83301 -36.5 -11.5s-22.166 -22.834 -35.499 -45.501l-119 -199
l252 -374h-107zM177.998 688.001v-688h-93v688h93z" />
    <glyph glyph-name="uni0199" unicode="&#x199;" horiz-adv-x="466" 
d="M188.5 660c-11.667 -12 -17.5 -30.666 -17.5 -55.999v-604h-90v605c0 43.333 13.333 78.166 40 104.499s64.334 39.5 113.001 39.5c40 0 79.333 -9.66699 118 -29l-28 -62c-26.667 13.333 -53.667 20 -81 20c-24.667 0 -42.834 -6 -54.501 -18zM270 292.001l195 -292
h-100l-189 288l178 238h94z" />
    <glyph glyph-name="uni019A" unicode="&#x19a;" horiz-adv-x="284" 
d="M187 338l-0.00195312 -238c0 -26 10.667 -39 32 -39c8.66699 0 18.334 2 29.001 6l20 -63c-21.333 -11.333 -43.666 -17 -66.999 -17c-32 0 -57.333 9.66699 -76 29s-28 46.333 -28 81v241h-85v68h85v333l90 10v-343h84v-68h-84z" />
    <glyph glyph-name="uni019B" unicode="&#x19b;" horiz-adv-x="445" 
d="M351.5 260c16.333 -58 32.5029 -104.168 48.5029 -138.501s35.333 -68.166 58 -101.499l-84 -32c-22 36 -40.833 71.5 -56.5 106.5s-30.834 79.5 -45.501 133.5s-29.334 123.333 -44.001 208l-122 -448l-86 21l153 497h41c-8 41.333 -18.333 74.333 -31 99l-59 -66
l-52 31l74 82c-19.333 14.667 -46.666 26 -81.999 34l12 64c51.333 -10 91.666 -26.333 120.999 -49l62 67l44 -41l-64 -71c24 -36 43.667 -90.667 59 -164c19.333 -96.667 37.166 -174 53.499 -232z" />
    <glyph glyph-name="uni019C" unicode="&#x19c;" horiz-adv-x="834" 
d="M749 688l-0.000976562 -688.002h-81l-7 77c-38.667 -60 -87.667 -90 -147 -90c-32 0 -59.5 8.83301 -82.5 26.5s-40.167 41.834 -51.5 72.501c-22.667 -33.333 -46.667 -58.166 -72 -74.499s-53.333 -24.5 -84 -24.5c-46.667 0 -83.167 17 -109.5 51s-39.5 79 -39.5 135
v515h93v-513c0 -36.667 6.66699 -64.667 20 -84s32.666 -29 57.999 -29c24 0 45.333 7.33301 64 22s37.334 37.667 56.001 69c-0.666992 4.66699 -1 11.334 -1 20.001v515h93v-513c0 -35.333 6.83301 -63 20.5 -83s33.167 -30 58.5 -30c24.667 0 46.334 7.66699 65.001 23
s36.667 38.666 54 69.999v533h93z" />
    <glyph glyph-name="uni019D" unicode="&#x19d;" horiz-adv-x="607" 
d="M522 688l0.00195312 -688.001h-120l-245 591c8 -88 12 -173.667 12 -257v-402c0 -46.667 -12.333 -82.167 -37 -106.5s-57.334 -36.5 -98.001 -36.5c-39.333 0 -74.666 12.333 -105.999 37l36 53c11.333 -7.33301 21.666 -12.666 30.999 -15.999s20.666 -5 33.999 -5
c37.333 0 56 23 56 69v761h119l246 -592c-2.66699 23.333 -5.5 55.333 -8.5 96s-4.5 81 -4.5 121v375h85z" />
    <glyph glyph-name="uni019E" unicode="&#x19e;" horiz-adv-x="527" 
d="M414.5 497.5c23.667 -27.667 35.499 -65.833 35.499 -114.5v-594l-90 11v572c0 34 -5.66699 58.5 -17 73.5s-28.666 22.5 -51.999 22.5c-44 0 -84 -31.333 -120 -94v-374h-90v526h78l7 -78c40.667 60.667 90.667 91 150 91c42 0 74.833 -13.833 98.5 -41.5z" />
    <glyph glyph-name="uni019F" unicode="&#x19f;" horiz-adv-x="628" 
d="M507.5 610c47 -60.667 70.5 -149.667 70.5 -267c0 -115.333 -23.333 -203.5 -70 -264.5s-111.334 -91.5 -194.001 -91.5c-82 0 -146.5 30.167 -193.5 90.5s-70.5 148.5 -70.5 264.5c0 77.333 10.833 142.833 32.5 196.5s52.334 94.167 92.001 121.5s86.167 41 139.5 41
c82 0 146.5 -30.333 193.5 -91zM145 383h337.999c-4 84.667 -20.333 146.5 -49 185.5s-68.667 58.5 -120 58.5c-105.333 0 -161.666 -81.333 -168.999 -244zM436.499 123c29 40.667 44.833 105.667 47.5 195h-340c5.33301 -170.667 62 -256 170 -256
c52.667 0 93.5 20.333 122.5 61z" />
    <glyph glyph-name="Ohorn" unicode="&#x1a0;" horiz-adv-x="646" 
d="M524 586c36 -59.333 54 -140.003 54 -242.003c0 -115.333 -23.333 -203.666 -70 -264.999s-111.334 -92 -194.001 -92c-82 0 -146.5 30.167 -193.5 90.5s-70.5 148.833 -70.5 265.5c0 76.667 10.833 141.834 32.5 195.501s52.334 94.167 92.001 121.5s86.167 41 139.5 41
c71.333 0 129.666 -23 174.999 -69c16.667 2.66699 28.834 8.16699 36.501 16.5s11.5 20.5 11.5 36.5c0 24 -4.33301 48.333 -13 73l63 14c11.333 -25.333 17 -53.666 17 -84.999c0 -56 -26.667 -89.667 -80 -101zM438 128.997c28 44.667 42 116.333 42 215
c0 98 -14.167 169.667 -42.5 215s-69.5 68 -123.5 68c-110.667 0 -166 -94.667 -166 -284c0 -187.333 55.333 -281 166 -281c54.667 0 96 22.333 124 67z" />
    <glyph glyph-name="ohorn" unicode="&#x1a1;" horiz-adv-x="542" 
d="M449 421c18.667 -43.333 28 -95.668 28 -157.001c0 -85.333 -19 -152.833 -57 -202.5s-90.333 -74.5 -157 -74.5c-67.333 0 -119.833 24.333 -157.5 73s-56.5 116.334 -56.5 203.001c0 87.333 19 155.166 57 203.499s90.667 72.5 158 72.5c66 0 118 -23 156 -69
c16.667 2 28.667 7.16699 36 15.5s11 20.5 11 36.5c0 23.333 -4.33301 47.333 -13 72l63 14c11.333 -25.333 17 -53.666 17 -84.999c0 -57.333 -28.333 -91.333 -85 -102zM383 263.998c0 70 -10 121.333 -30 154s-49.667 49 -89 49s-69.333 -16.5 -90 -49.5
s-31 -84.5 -31 -154.5c0 -136.667 40 -205 120 -205s120 68.667 120 206z" />
    <glyph glyph-name="uni01A2" unicode="&#x1a2;" horiz-adv-x="836" 
d="M712.5 662c26.333 -26.667 39.502 -64.668 39.502 -114.001v-749h-93v753c0 52.667 -22.333 79 -67 79c-28 0 -55.333 -8 -82 -24c45.333 -62 68 -149.667 68 -263c0 -115.333 -23.333 -203.666 -70 -264.999s-111.334 -92 -194.001 -92c-82 0 -146.5 30.167 -193.5 90.5
s-70.5 148.833 -70.5 265.5c0 76.667 10.833 141.834 32.5 195.501s52.334 94.167 92.001 121.5s86.167 41 139.5 41c58.667 0 108.667 -15.667 150 -47c21.333 15.333 43.166 27.166 65.499 35.499s46.5 12.5 72.5 12.5c47.333 0 84.166 -13.333 110.499 -40z
M438.002 128.999c28 44.667 42 116.333 42 215c0 98 -14.167 169.667 -42.5 215s-69.5 68 -123.5 68c-110.667 0 -166 -94.667 -166 -284c0 -187.333 55.333 -281 166 -281c54.667 0 96 22.333 124 67z" />
    <glyph glyph-name="uni01A3" unicode="&#x1a3;" horiz-adv-x="717" 
d="M598 499.5c25.333 -26.333 38.001 -64.499 38.001 -114.499v-596l-90 11v589c0 52.667 -21.667 79 -65 79c-20 0 -38 -3.33301 -54 -10c32.667 -48.667 49 -113.334 49 -194.001c0 -85.333 -19 -152.833 -57 -202.5s-90.333 -74.5 -157 -74.5
s-118.834 24.333 -156.501 73s-56.5 116.334 -56.5 203.001c0 87.333 19 155.166 57 203.499s90.333 72.5 157 72.5c43.333 0 81.333 -10.667 114 -32c35.333 21.333 73.333 32 114 32c46 0 81.667 -13.167 107 -39.5zM381.001 264.001c0 70 -10 121.333 -30 154
s-49.333 49 -88 49c-80 0 -120 -68 -120 -204c0 -136.667 39.667 -205 119 -205s119 68.667 119 206z" />
    <glyph glyph-name="uni01A4" unicode="&#x1a4;" horiz-adv-x="606" 
d="M513 635c43.333 -35.333 65 -88.333 65 -159c0 -74.667 -22.167 -130.167 -66.5 -166.5s-105.833 -54.5 -184.5 -54.5h-66v-255h-93v616h-25c-36.667 0 -55 -18 -55 -54c0 -12 1.66699 -23.5 5 -34.5s8 -23.833 14 -38.5l-60 -29c-12 17.333 -21.167 34.333 -27.5 51
s-9.5 36 -9.5 58c0 36 11.667 64.833 35 86.5s57.333 32.5 102 32.5h177c82.667 0 145.667 -17.667 189 -53zM442 360c26 22 39.001 60.333 39.001 115c0 50 -12.833 86.167 -38.5 108.5s-64.834 33.5 -117.501 33.5h-64v-290h63c52.667 0 92 11 118 33z" />
    <glyph glyph-name="uni01A5" unicode="&#x1a5;" horiz-adv-x="532" 
d="M437.5 468c29 -47.333 43.5 -114.999 43.5 -202.999c0 -85.333 -16.167 -153 -48.5 -203s-77.5 -75 -135.5 -75c-52 0 -94 21 -126 63v-250l-90 -11v816c0 43.333 13.333 78.166 40 104.499s64.334 39.5 113.001 39.5c40 0 79.333 -9.66699 118 -29l-28 -62
c-26.667 13.333 -53.667 20 -81 20c-24.667 0 -42.834 -6 -54.501 -18s-17.5 -30.667 -17.5 -56v-141c36 50.667 81.667 76 137 76c57.333 0 100.5 -23.667 129.5 -71zM387 264.001c0 71.333 -8.5 123.167 -25.5 155.5s-42.833 48.5 -77.5 48.5c-23.333 0 -44 -7 -62 -21
s-35 -33 -51 -57v-266c27.333 -43.333 62.333 -65 105 -65c74 0 111 68.333 111 205z" />
    <glyph glyph-name="uni01A6" unicode="&#x1a6;" horiz-adv-x="547" 
d="M425 -123l-148.001 293.998h-6h-93v-171h-93v688h93v-122h70c82.667 0 144.334 -16.667 185.001 -50s61 -81.666 61 -144.999c0 -45.333 -11.167 -83.666 -33.5 -114.999s-54.833 -54 -97.5 -68l165 -311h-103zM361.999 272.498c23.333 21 35 53.832 35 98.499
c0 42 -11.667 72.833 -35 92.5s-62 29.834 -116 30.501h-68v-253h77c48 0 83.667 10.5 107 31.5z" />
    <glyph glyph-name="uni01A7" unicode="&#x1a7;" horiz-adv-x="488" 
d="M397 653.5c35.333 -31.667 52.9971 -73.501 52.9971 -125.501c0 -50 -14.167 -89.667 -42.5 -119s-75.166 -55.666 -140.499 -78.999c-50.667 -18 -85.5 -37.667 -104.5 -59s-28.5 -50.333 -28.5 -87c0 -38.667 11.333 -68.5 34 -89.5s52.334 -31.5 89.001 -31.5
c31.333 0 59.666 5.66699 84.999 17s50.333 27.666 75 48.999l49 -52c-58 -60 -129.333 -90 -214 -90c-42.667 0 -80.167 8.5 -112.5 25.5s-57.5 40.5 -75.5 70.5s-27 64.333 -27 103c0 56.667 14.833 100.334 44.5 131.001s75.5 57 137.5 79c35.333 12.667 62.5 25 81.5 37
s32.5 25.5 40.5 40.5s12 33.833 12 56.5c0 31.333 -9 55.333 -27 72s-43 25 -75 25c-28 0 -53.5 -4.66699 -76.5 -14s-46.5 -24 -70.5 -44l-47 52c28.667 26.667 58.834 46.667 90.501 60s67.834 20 108.501 20c58.667 0 105.667 -15.833 141 -47.5z" />
    <glyph glyph-name="uni01A8" unicode="&#x1a8;" horiz-adv-x="418" 
d="M337 499c30.667 -26.667 45.998 -60.9971 45.998 -102.997c0 -38.667 -11.167 -69.334 -33.5 -92.001s-58.5 -42 -108.5 -58c-31.333 -10 -55.166 -19.5 -71.499 -28.5s-27.5 -19.333 -33.5 -31s-9 -26.834 -9 -45.501c0 -26 8.5 -46.333 25.5 -61s39.5 -22 67.5 -22
c45.333 0 88.333 16.667 129 50l46 -50c-22.667 -22 -49.334 -39.333 -80.001 -52s-64.667 -19 -102 -19c-50.667 0 -93.167 13.833 -127.5 41.5s-51.5 66.167 -51.5 115.5c0 42 12.167 74.833 36.5 98.5s62.833 43.5 115.5 59.5c41.333 13.333 69.333 26.833 84 40.5
s22 32.834 22 57.501c0 21.333 -7.33301 38.166 -22 50.499s-35 18.5 -61 18.5c-22.667 0 -43.5 -3.33301 -62.5 -10s-39.167 -17.334 -60.5 -32.001l-38 52c50.667 40 106.334 60 167.001 60c50.667 0 91.334 -13.333 122.001 -40z" />
    <glyph glyph-name="uni01A9" unicode="&#x1a9;" horiz-adv-x="450" 
d="M417 688v-74h-283l180 -248v-51l-181 -240h284v-75h-384v71l200 269l-200 277v71h384z" />
    <glyph glyph-name="uni01AA" unicode="&#x1aa;" horiz-adv-x="301" 
d="M377 -174c-31.333 -24.667 -67.667 -36.9971 -109 -36.9971s-74.666 12.167 -99.999 36.5s-38 59.166 -38 104.499v556c-16 -7.33301 -33.667 -11 -53 -11c-36 0 -65.167 12 -87.5 36s-33.5 57 -33.5 99c0 42.667 12 76.5 36 101.5s55.333 37.5 94 37.5
c41.333 0 74 -12.333 98 -37s36 -58.334 36 -101.001v-685c0 -44.667 19 -67 57 -67c12.667 0 23.667 1.66699 33 5s19.666 8.66602 30.999 15.999zM129.999 551.003v65c0 42.667 -15 64 -45 64c-30.667 0 -46 -22.667 -46 -68c0 -46 17 -69 51 -69
c12.667 0 26 2.66699 40 8z" />
    <glyph glyph-name="uni01AB" unicode="&#x1ab;" horiz-adv-x="327" 
d="M330 24l-0.000976562 -94.001c0 -46 -12.5 -81 -37.5 -105s-58.5 -36 -100.5 -36c-40.667 0 -76.667 12.333 -108 37l35 54c11.333 -7.33301 22 -12.666 32 -15.999s21.667 -5 35 -5c41.333 0 62 23 62 69v64c-12 -3.33301 -24 -5 -36 -5
c-39.333 0 -70.166 12.333 -92.499 37s-33.5 59 -33.5 103v331h-75v68h75v121l90 11v-132h116l-10 -68h-106v-331c0 -46 19.333 -69 58 -69c18.667 0 41 4.66699 67 14l28 -48h1z" />
    <glyph glyph-name="uni01AC" unicode="&#x1ac;" horiz-adv-x="499" 
d="M483 611h-169.001v-611h-93v611h-79c-18 0 -31.333 -4.5 -40 -13.5s-13 -21.5 -13 -37.5c0 -22.667 6.33301 -45.667 19 -69l-64 -32c-22.667 34.667 -34 69.667 -34 105c0 38.667 12.333 69 37 91s59.334 33 104.001 33h342z" />
    <glyph glyph-name="uni01AD" unicode="&#x1ad;" horiz-adv-x="327" 
d="M297 81l33 -58.001c-33.333 -24 -70.333 -36 -111 -36c-42.667 0 -75.5 12.333 -98.5 37s-34.5 59.334 -34.5 104.001v330h-75v68h75v79c0 44.667 12.167 79.834 36.5 105.501s58.166 38.5 101.499 38.5c38 0 73.333 -12 106 -36l-32 -55
c-12 7.33301 -22.667 12.666 -32 15.999s-20.333 5 -33 5c-18 0 -32 -5.66699 -42 -17s-15 -28.333 -15 -51v-85h116l-10 -68h-106v-329c0 -45.333 19.667 -68 59 -68c18.667 0 39.334 6.66699 62.001 20z" />
    <glyph glyph-name="uni01AE" unicode="&#x1ae;" horiz-adv-x="465" 
d="M332 -138c13.333 0 24.832 1.5 34.499 4.5s19.834 7.83301 30.501 14.5l36 -55c-31.333 -24.667 -67.333 -37 -108 -37c-42 0 -75.833 12.167 -101.5 36.5s-38.5 59.833 -38.5 106.5v680h-174v76h447l-11 -76h-169v-683c0 -44.667 18 -67 54 -67z" />
    <glyph glyph-name="Uhorn" unicode="&#x1af;" horiz-adv-x="620" 
d="M514 582l-0.00195312 -380.001c0 -63.333 -19 -115 -57 -155s-92.333 -60 -163 -60c-71.333 0 -125.666 19.833 -162.999 59.5s-56 91.5 -56 155.5v486h93v-480c0 -96.667 42 -145 126 -145s126 48.333 126 145v480h94v-54c14.667 2.66699 25.334 8.16699 32.001 16.5
s10 19.833 10 34.5c0 24 -4.33301 48.333 -13 73l63 14c11.333 -25.333 17 -53.666 17 -84.999c0 -64.667 -36.333 -99.667 -109 -105z" />
    <glyph glyph-name="uhorn" unicode="&#x1b0;" horiz-adv-x="552" 
d="M552 523c0 -66 -36.667 -101 -110 -105v-418h-78l-5 79c-36.667 -61.333 -85.667 -92 -147 -92c-42 0 -75 13.667 -99 41s-36 64.333 -36 111v387h90v-379c0 -30.667 5.83301 -53.167 17.5 -67.5s29.167 -21.5 52.5 -21.5c44.667 0 83 29.333 115 88v380h90v-56
c14.667 2.66699 25.5 8.16699 32.5 16.5s10.5 20.166 10.5 35.499c0 23.333 -4.33301 47.333 -13 72l63 14c11.333 -25.333 17 -53.666 17 -84.999z" />
    <glyph glyph-name="uni01B1" unicode="&#x1b1;" horiz-adv-x="622" 
d="M170.5 25c-39.667 25.333 -70.1641 62.333 -91.4971 111s-32 106.667 -32 174c0 76 10.667 137.333 32 184s50.666 86.667 87.999 120h-100v74h185v-72c-35.333 -33.333 -62 -73.5 -80 -120.5s-27 -108.833 -27 -185.5c0 -84 14.333 -146.333 43 -187s69.667 -61 123 -61
c52.667 0 93.5 20.333 122.5 61s43.5 103 43.5 187c0 76 -9.16699 137.5 -27.5 184.5s-44.833 87.5 -79.5 121.5v72h186v-74h-101c37.333 -30 66.666 -68.667 87.999 -116s32 -110 32 -188c0 -66 -10.833 -123.333 -32.5 -172s-52.334 -86 -92.001 -112
s-86.167 -39 -139.5 -39c-54 0 -100.833 12.667 -140.5 38z" />
    <glyph glyph-name="uni01B2" unicode="&#x1b2;" horiz-adv-x="588" 
d="M485.5 670.5c19 -20.333 28.501 -50.166 28.501 -89.499v-301c0 -60.667 -10 -113 -30 -157s-48 -77.667 -84 -101s-77.667 -35 -125 -35c-61.333 0 -110 18.667 -146 56s-54 85.666 -54 144.999v500h93v-498c0 -40.667 9.5 -72 28.5 -94s45.5 -33 79.5 -33
c44.667 0 79.834 18.667 105.501 56s38.5 91.333 38.5 162v300c0 16 -2.66699 27.833 -8 35.5s-14 11.5 -26 11.5c-10.667 0 -21.334 -2.33301 -32.001 -7l-19 63c21.333 11.333 44.666 17 69.999 17c34.667 0 61.5 -10.167 80.5 -30.5z" />
    <glyph glyph-name="uni01B3" unicode="&#x1b3;" horiz-adv-x="524" 
d="M202 264l-198 423.999h100l147 -344l98 249c14 38 30.833 65.5 50.5 82.5s45.167 25.5 76.5 25.5c18.667 0 35.667 -3.33301 51 -10s30 -16 44 -28l-31 -52c-8.66699 6.66699 -17.167 11.667 -25.5 15s-17.833 5 -28.5 5c-14 0 -25.333 -4.16699 -34 -12.5
s-18 -24.166 -28 -47.499l-128 -306v-265h-94v264z" />
    <glyph glyph-name="uni01B4" unicode="&#x1b4;" horiz-adv-x="447" 
d="M45 -144c45.333 9.33301 78.667 24.667 100 46s39 54 53 98h-33l-156 526h93l122 -463l98 408c8.66699 37.333 20.834 64 36.501 80s38.167 24 67.5 24c23.333 0 44.666 -5.33301 63.999 -16l-20 -59c-8.66699 4 -18.667 6 -30 6c-10 0 -18 -3.16699 -24 -9.5
s-11.333 -16.833 -16 -31.5l-120 -465c-15.333 -61.333 -40.833 -109.5 -76.5 -144.5s-85.167 -57.167 -148.5 -66.5z" />
    <glyph glyph-name="uni01B5" unicode="&#x1b5;" horiz-adv-x="472" 
d="M437 688v-72l-138 -236h91v-69h-131l-136 -232h313l-10 -79h-401v72l140 239h-83v69h123l135 231h-284v77h381z" />
    <glyph glyph-name="uni01B6" unicode="&#x1b6;" horiz-adv-x="394" 
d="M115 72h254l-9 -72h-340v65l109 167h-72v66h115l101 156h-232v72h327v-66l-106 -162h78v-66h-121z" />
    <glyph glyph-name="uni01B7" unicode="&#x1b7;" horiz-adv-x="461" 
d="M374 343.5c36 -33 54 -82.165 54 -147.498c0 -40.667 -8.83301 -76.834 -26.5 -108.501s-43.167 -56.334 -76.5 -74.001s-72.666 -26.5 -117.999 -26.5c-44.667 0 -83 7.5 -115 22.5s-60 37.833 -84 68.5l54 47c20.667 -22 41.667 -38 63 -48s46.666 -15 75.999 -15
c42.667 0 75.167 12 97.5 36s33.5 57.333 33.5 100c0 46.667 -11.5 80.167 -34.5 100.5s-57.833 30.5 -104.5 30.5h-79v63l189 222h-267v74h367v-72l-192 -223h2c71.333 0 125 -16.5 161 -49.5z" />
    <glyph glyph-name="uni01B8" unicode="&#x1b8;" horiz-adv-x="461" 
d="M453 78c-25.333 -30.667 -54.168 -53.5 -86.501 -68.5s-71.166 -22.5 -116.499 -22.5c-66.667 0 -119.5 18.667 -158.5 56s-58.5 86.666 -58.5 147.999c0 65.333 18.5 115.333 55.5 150s90.833 52 161.5 52h1l-192 223v72h366v-74h-266l189 -222v-63h-80
c-46.667 0 -81.5 -10.833 -104.5 -32.5s-34.5 -56.167 -34.5 -103.5c0 -42 10.833 -74.333 32.5 -97s52.5 -34 92.5 -34c30.667 0 57.167 4.83301 79.5 14.5s44.5 25.834 66.5 48.501z" />
    <glyph glyph-name="uni01B9" unicode="&#x1b9;" horiz-adv-x="432" 
d="M433 -121c-24 -30 -51.668 -52.501 -83.001 -67.501s-68.333 -22.5 -111 -22.5c-43.333 0 -81.166 8.83301 -113.499 26.5s-57.333 42.334 -75 74.001s-26.5 68.167 -26.5 109.5c0 64 18 114 54 150s88.333 54.667 157 56l-187 254v67h357v-72h-259l182 -250v-62h-67
c-49.333 0 -85.5 -11.5 -108.5 -34.5s-34.5 -58.5 -34.5 -106.5c0 -45.333 10.667 -80 32 -104s52 -36 92 -36c28.667 0 53.667 5.16699 75 15.5s43 26.833 65 49.5z" />
    <glyph glyph-name="uni01BA" unicode="&#x1ba;" horiz-adv-x="429" 
d="M27 -77c0 32.667 12.334 58.3311 37.001 76.998s63 32 115 40c48.667 7.33301 83 17.833 103 31.5s30 36.167 30 67.5c0 47.333 -27.667 71 -83 71h-128v61l175 184h-252v71h354v-65l-183 -188h52c49.333 0 88.166 -11.667 116.499 -35s42.5 -56.666 42.5 -99.999
c-0.666992 -48.667 -16.5 -85.5 -47.5 -110.5s-74.5 -42.167 -130.5 -51.5c-44.667 -7.33301 -74.834 -15.166 -90.501 -23.499s-23.5 -20.833 -23.5 -37.5c0 -13.333 4.83301 -25.5 14.5 -36.5s24.834 -22.5 45.501 -34.5l-26 -57c-80.667 36 -121 81.333 -121 136z" />
    <glyph glyph-name="uni01BB" unicode="&#x1bb;" horiz-adv-x="446" 
d="M281 254c-31.333 -40 -82.334 -99.999 -153.001 -179.999h274l-11 -74h-362v70l155 184h-118v69h168c22.667 34 38.334 63.833 47.001 89.5s13 53.5 13 83.5c0 35.333 -8.83301 62.666 -26.5 81.999s-41.5 29 -71.5 29c-25.333 0 -47.333 -5.66699 -66 -17
s-38 -29.333 -58 -54l-56 43c48.667 67.333 111 101 187 101c38 0 70.833 -7.83301 98.5 -23.5s48.834 -37 63.501 -64s22 -57.5 22 -91.5c0 -31.333 -4.33301 -60.833 -13 -88.5s-23.334 -57.5 -44.001 -89.5h73v-69h-122z" />
    <glyph glyph-name="uni01BC" unicode="&#x1bc;" horiz-adv-x="466" 
d="M391 619l-241.002 -0.00292969v-210c30.667 18.667 64.667 28 102 28c52.667 0 94.834 -18.833 126.501 -56.5s47.5 -90.834 47.5 -159.501c0 -46.667 -8.83301 -87.667 -26.5 -123s-42.834 -62.666 -75.501 -81.999s-70.667 -29 -114 -29c-39.333 0 -74 7.5 -104 22.5
s-57.333 36.833 -82 65.5l52 48c19.333 -21.333 39.333 -37.166 60 -47.499s44.334 -15.5 71.001 -15.5c40 0 71.167 13.833 93.5 41.5s33.5 67.834 33.5 120.501c0 98.667 -37.333 148 -112 148c-17.333 0 -33.166 -2.16699 -47.499 -6.5s-29.5 -11.166 -45.5 -20.499h-65
v345h339z" />
    <glyph glyph-name="uni01BD" unicode="&#x1bd;" horiz-adv-x="409" 
d="M334 455l-188.997 -0.000976562v-134c24 14 51.667 21 83 21c42 0 76.667 -15.333 104 -46s41 -72 41 -124c0 -56 -17 -100.833 -51 -134.5s-79 -50.5 -135 -50.5c-34.667 0 -64.334 6 -89.001 18s-48.334 29.667 -71.001 53l50 50
c19.333 -16.667 36.833 -28.5 52.5 -35.5s34.167 -10.5 55.5 -10.5c29.333 0 52.5 9.5 69.5 28.5s25.5 46.5 25.5 82.5c0 34 -7.16699 59 -21.5 75s-33.833 24 -58.5 24c-14.667 0 -27.834 -1.66699 -39.501 -5s-24.167 -8.66602 -37.5 -15.999h-61v275h286z" />
    <glyph glyph-name="uni01BE" unicode="&#x1be;" horiz-adv-x="458" 
d="M367 356c28 -32 42.001 -80.001 42.001 -144.001c0 -68.667 -18.667 -123 -56 -163s-87.666 -60 -150.999 -60c-36.667 0 -69.5 7 -98.5 21s-57.167 35.333 -84.5 64l47 47c21.333 -20 42.166 -35 62.499 -45s43.166 -15 68.499 -15c38.667 0 68 13 88 39
s30 63.667 30 113s-10.167 86.333 -30.5 111s-49.833 42.334 -88.5 53.001l-57 15v155h-64v65h64v126l90 10v-136h97v-65h-97v-115l27 -7c46 -14 83 -37 111 -69z" />
    <glyph glyph-name="uni01BF" unicode="&#x1bf;" horiz-adv-x="530" 
d="M437 490c29.333 -32.667 43.999 -77.667 43.999 -135c0 -52.667 -10 -98.5 -30 -137.5s-47.667 -73.167 -83 -102.5s-81 -60 -137 -92l-60 -34v-189l-90 -11v737h79l5 -70c22.667 27.333 46.334 48 71.001 62s53.334 21 86.001 21c47.333 0 85.666 -16.333 114.999 -49z
M345.999 207c27.333 40 41.001 89 41.001 147c0 38 -7.66699 66.5 -23 85.5s-37 28.5 -65 28.5c-24.667 0 -47.167 -6.16699 -67.5 -18.5s-40.5 -30.5 -60.5 -54.5v-335l45 30c59.333 38 102.666 77 129.999 117z" />
    <glyph glyph-name="uni01C0" unicode="&#x1c0;" horiz-adv-x="250" 
d="M165 748v-748h-80v739z" />
    <glyph glyph-name="uni01C1" unicode="&#x1c1;" horiz-adv-x="411" 
d="M165 748v-748h-80v739zM326 748v-748h-80v739z" />
    <glyph glyph-name="uni01C2" unicode="&#x1c2;" horiz-adv-x="289" 
d="M274 410h-89v-90h89v-60h-89v-260h-80v260h-90v60h90v90h-90v60h90v269l80 9v-278h89v-60z" />
    <glyph glyph-name="uni01C3" unicode="&#x1c3;" horiz-adv-x="294" 
d="M188 748v-537h-81v528zM192.5 95.5c11.667 -12.333 17.5 -27.166 17.5 -44.499s-5.83301 -32.333 -17.5 -45s-26.834 -19 -45.501 -19c-18 0 -32.833 6.33301 -44.5 19s-17.5 27.667 -17.5 45s5.83301 32.166 17.5 44.499s26.5 18.5 44.5 18.5
c18.667 0 33.834 -6.16699 45.501 -18.5z" />
    <glyph glyph-name="uni01C4" unicode="&#x1c4;" horiz-adv-x="1028" 
d="M382 661c44 -18 79.833 -52.001 107.5 -102.001s41.5 -120.333 41.5 -211c0 -129.333 -27.5 -219.666 -82.5 -270.999s-124.5 -77 -208.5 -77h-155v688h142c59.333 0 111 -9 155 -27zM178 614.999l0.000976562 -543h68c57.333 0 103 19.833 137 59.5
s51 111.834 51 216.501c0 73.333 -8.83301 129.666 -26.5 168.999s-40.334 65.5 -68.001 78.5s-60.5 19.5 -98.5 19.5h-63zM993.001 687.999v-74l-310 -535h309l-10 -79h-401v74l312 537h-281v77h381zM912.001 904.999l35 -39l-121 -112h-56l-121 112l36 39l113 -81z" />
    <glyph glyph-name="uni01C5" unicode="&#x1c5;" horiz-adv-x="966" 
d="M382 661c44 -18 79.833 -52.001 107.5 -102.001s41.5 -120.333 41.5 -211c0 -129.333 -27.5 -219.666 -82.5 -270.999s-124.5 -77 -208.5 -77h-155v688h142c59.333 0 111 -9 155 -27zM178 614.999l0.000976562 -543h68c57.333 0 103 19.833 137 59.5
s51 111.834 51 216.501c0 73.333 -8.83301 129.666 -26.5 168.999s-40.334 65.5 -68.001 78.5s-60.5 19.5 -98.5 19.5h-63zM939.001 525.999v-67l-249 -385h250l-9 -74h-340v67l249 385h-228v74h327zM886.001 782.999l35 -40l-121 -116h-56l-121 116l35 40l114 -88z" />
    <glyph glyph-name="uni01C6" unicode="&#x1c6;" horiz-adv-x="931" 
d="M455 739l-0.000976562 -739h-80l-6 69c-34 -54.667 -79.667 -82 -137 -82s-101.833 24.333 -133.5 73s-47.5 115.667 -47.5 201c0 55.333 7.83301 104 23.5 146s37.834 74.5 66.501 97.5s61.667 34.5 99 34.5c50 0 91.667 -21 125 -63v273zM315.499 78
c17.667 13.333 34.167 33 49.5 59v264c-30 44.667 -65 67 -105 67c-35.333 0 -63.333 -17 -84 -51s-30.667 -85.333 -30 -154c0 -70 9.33301 -121.667 28 -155s45 -50 79 -50c24 0 44.833 6.66699 62.5 20zM903.999 526v-67l-249 -385h250l-9 -74h-340v67l249 385h-228v74
h327zM850.999 783l35 -40l-121 -116h-56l-121 116l35 40l114 -88z" />
    <glyph glyph-name="uni01C7" unicode="&#x1c7;" horiz-adv-x="697" 
d="M178 688v-609h251l-10 -79h-334v688h93zM617 96c0 -45.333 -6.5 -82.6689 -19.5 -112.002s-31.333 -53 -55 -71s-54.167 -34 -91.5 -48l-25 66c27.333 13.333 47.833 26.833 61.5 40.5s23.167 30.334 28.5 50.001s8 45.834 8 78.501v588h93v-592z" />
    <glyph glyph-name="uni01C8" unicode="&#x1c8;" horiz-adv-x="680" 
d="M178 688v-609h251l-10 -79h-334v688h93zM599 21c0 -44.667 -5.83203 -81.167 -17.499 -109.5s-28.334 -51.333 -50.001 -69s-50.834 -35.167 -87.501 -52.5l-28 65c23.333 12 41.333 24 54 36s22.334 28 29.001 48s10 46.667 10 80v507h90v-505zM596.501 757
c11 -11.333 16.5 -25.333 16.5 -42s-5.33301 -30.5 -16 -41.5s-25 -16.5 -43 -16.5c-17.333 0 -31.5 5.5 -42.5 16.5s-16.5 24.833 -16.5 41.5s5.5 30.667 16.5 42s25.167 17 42.5 17s31.5 -5.66699 42.5 -17z" />
    <glyph glyph-name="uni01C9" unicode="&#x1c9;" horiz-adv-x="516" 
d="M104 16c-18.667 19.333 -28.002 46.333 -28.002 81v642l90 10v-649c0 -26 10.667 -39 32 -39c8.66699 0 18.334 2 29.001 6l20 -63c-21.333 -11.333 -43.666 -17 -66.999 -17c-32 0 -57.333 9.66699 -76 29zM434.998 21c0 -44.667 -5.83203 -81.167 -17.499 -109.5
s-28.334 -51.333 -50.001 -69s-50.834 -35.167 -87.501 -52.5l-28 65c23.333 12 41.333 24 54 36s22.334 28 29.001 48s10 46.667 10 80v507h90v-505zM432.499 757c11 -11.333 16.5 -25.333 16.5 -42s-5.33301 -30.5 -16 -41.5s-25 -16.5 -43 -16.5
c-17.333 0 -31.5 5.5 -42.5 16.5s-16.5 24.833 -16.5 41.5s5.5 30.667 16.5 42s25.167 17 42.5 17s31.5 -5.66699 42.5 -17z" />
    <glyph glyph-name="uni01CA" unicode="&#x1ca;" horiz-adv-x="880" 
d="M522 0h-120l-245 591c8 -88 12 -173.667 12 -257v-334h-84v688h119l246 -592c-2.66699 23.333 -5.5 55.333 -8.5 96s-4.5 81 -4.5 121v375h85v-688zM800 96c0 -45.333 -6.5 -82.6689 -19.5 -112.002s-31.333 -53 -55 -71s-54.167 -34 -91.5 -48l-25 66
c27.333 13.333 47.833 26.833 61.5 40.5s23.167 30.334 28.5 50.001s8 45.834 8 78.501v588h93v-592z" />
    <glyph glyph-name="uni01CB" unicode="&#x1cb;" horiz-adv-x="859" 
d="M522 0h-120l-245 591c8 -88 12 -173.667 12 -257v-334h-84v688h119l246 -592c-2.66699 23.333 -5.5 55.333 -8.5 96s-4.5 81 -4.5 121v375h85v-688zM778 21c0 -44.667 -5.83203 -81.167 -17.499 -109.5s-28.334 -51.333 -50.001 -69s-50.834 -35.167 -87.501 -52.5
l-28 65c23.333 12 41.333 24 54 36s22.334 28 29.001 48s10 46.667 10 80v507h90v-505zM775.501 757c11 -11.333 16.5 -25.333 16.5 -42s-5.33301 -30.5 -16 -41.5s-25 -16.5 -43 -16.5c-17.333 0 -31.5 5.5 -42.5 16.5s-16.5 24.833 -16.5 41.5s5.5 30.667 16.5 42
s25.167 17 42.5 17s31.5 -5.66699 42.5 -17z" />
    <glyph glyph-name="uni01CC" unicode="&#x1cc;" horiz-adv-x="779" 
d="M414.5 497.5c23.667 -27.667 35.499 -65.833 35.499 -114.5v-383h-90v372c0 34 -5.66699 58.5 -17 73.5s-28.666 22.5 -51.999 22.5c-44 0 -84 -31.333 -120 -94v-374h-90v526h78l7 -78c40.667 60.667 90.667 91 150 91c42 0 74.833 -13.833 98.5 -41.5zM697.999 21.001
c0 -44.667 -5.83203 -81.167 -17.499 -109.5s-28.334 -51.333 -50.001 -69s-50.834 -35.167 -87.501 -52.5l-28 65c23.333 12 41.333 24 54 36s22.334 28 29.001 48s10 46.667 10 80v507h90v-505zM695.5 757.001c11 -11.333 16.5 -25.333 16.5 -42s-5.33301 -30.5 -16 -41.5
s-25 -16.5 -43 -16.5c-17.333 0 -31.5 5.5 -42.5 16.5s-16.5 24.833 -16.5 41.5s5.5 30.667 16.5 42s25.167 17 42.5 17s31.5 -5.66699 42.5 -17z" />
    <glyph glyph-name="uni01CD" unicode="&#x1cd;" horiz-adv-x="526" 
d="M423 0l-46 175h-231l-46 -175h-93l199 688h114l199 -688h-96zM165 248h193l-96 366zM377 905l35 -39l-121 -112h-56l-121 112l36 39l113 -81z" />
    <glyph glyph-name="uni01CE" unicode="&#x1ce;" horiz-adv-x="490" 
d="M418 72.5c6 -10.333 15.333 -18.168 28 -23.501l-19 -61c-26 4 -46.333 12 -61 24s-25 30.333 -31 55c-34 -53.333 -81.667 -80 -143 -80c-46.667 0 -83.667 14.5 -111 43.5s-41 67.833 -41 116.5c0 56 18.333 98.667 55 128s89 44 157 44h68v45
c0 36.667 -7.5 63.167 -22.5 79.5s-39.5 24.5 -73.5 24.5c-36.667 0 -79.334 -9.33301 -128.001 -28l-22 63c58.667 24 113.334 36 164.001 36c114 0 171 -57 171 -171v-248c0 -21.333 3 -37.166 9 -47.499zM320 136.998l-0.000976562 124h-58
c-86.667 0 -130 -36.333 -130 -109c0 -31.333 7 -55.333 21 -72s34 -25 60 -25c46.667 0 82.334 27.333 107.001 82zM350.999 782.998l35 -40l-121 -116h-56l-121 116l35 40l114 -88z" />
    <glyph glyph-name="uni01CF" unicode="&#x1cf;" horiz-adv-x="262" 
d="M178 688v-688h-93v688h93zM245 905l35 -39l-121 -112h-56l-121 112l36 39l113 -81z" />
    <glyph glyph-name="uni01D0" unicode="&#x1d0;" horiz-adv-x="252" 
d="M171 526v-526h-90v526h90zM240 783l35 -40l-121 -116h-56l-121 116l35 40l114 -88z" />
    <glyph glyph-name="uni01D1" unicode="&#x1d1;" horiz-adv-x="628" 
d="M507.5 610.5c47 -60.333 70.5 -149.169 70.5 -266.502c0 -115.333 -23.333 -203.666 -70 -264.999s-111.334 -92 -194.001 -92c-82 0 -146.5 30.167 -193.5 90.5s-70.5 148.833 -70.5 265.5c0 76.667 10.833 141.834 32.5 195.501s52.334 94.167 92.001 121.5
s86.167 41 139.5 41c82 0 146.5 -30.167 193.5 -90.5zM148 342.997c0 -187.333 55.333 -281.001 166 -281.001c54.667 0 96 22.333 124 67s42 116.334 42 215.001c0 98 -14.167 169.667 -42.5 215s-69.5 68 -123.5 68c-110.667 0 -166 -94.667 -166 -284zM428 904.996
l35 -39l-121 -112h-56l-121 112l36 39l113 -81z" />
    <glyph glyph-name="uni01D2" unicode="&#x1d2;" horiz-adv-x="526" 
d="M421 468c37.333 -47.333 56.001 -115.333 56.001 -204c0 -85.333 -19 -152.833 -57 -202.5s-90.333 -74.5 -157 -74.5c-67.333 0 -119.833 24.333 -157.5 73s-56.5 116.334 -56.5 203.001c0 87.333 19 155.166 57 203.499s90.667 72.5 158 72.5
s119.666 -23.667 156.999 -71zM174.001 417.5c-20.667 -33 -31 -84.5 -31 -154.5c0 -136.667 40 -205 120 -205s120 68.667 120 206c0 70 -10 121.333 -30 154s-49.667 49 -89 49s-69.333 -16.5 -90 -49.5zM377.001 783l35 -40l-121 -116h-56l-121 116l35 40l114 -88z" />
    <glyph glyph-name="uni01D3" unicode="&#x1d3;" horiz-adv-x="588" 
d="M514 202c0 -63.333 -19.001 -115 -57.001 -155s-92.333 -60 -163 -60c-71.333 0 -125.666 19.833 -162.999 59.5s-56 91.5 -56 155.5v486h93v-480c0 -96.667 42 -145 126 -145s126 48.333 126 145v480h94v-486zM407.999 905l35 -39l-121 -112h-56l-121 112l36 39l113 -81
z" />
    <glyph glyph-name="uni01D4" unicode="&#x1d4;" horiz-adv-x="523" 
d="M442 0h-78l-5 79c-36.667 -61.333 -85.667 -92 -147 -92c-42 0 -75 13.667 -99 41s-36 64.333 -36 111v387h90v-379c0 -30.667 5.83301 -53.167 17.5 -67.5s29.167 -21.5 52.5 -21.5c44.667 0 83 29.333 115 88v380h90v-526zM374 783l35 -40l-121 -116h-56l-121 116
l35 40l114 -88z" />
    <glyph glyph-name="uni01D5" unicode="&#x1d5;" horiz-adv-x="588" 
d="M514 202c0 -63.333 -19.001 -115 -57.001 -155s-92.333 -60 -163 -60c-71.333 0 -125.666 19.833 -162.999 59.5s-56 91.5 -56 155.5v486h93v-480c0 -96.667 42 -145 126 -145s126 48.333 126 145v480h94v-486zM237.999 837c10 -10 15 -22.667 15 -38
s-5 -28.166 -15 -38.499s-22.333 -15.5 -37 -15.5c-15.333 0 -28 5.16699 -38 15.5s-15 23.166 -15 38.499s5 28 15 38s22.667 15 38 15c14.667 0 27 -5 37 -15zM424.999 837c10 -10 15 -22.667 15 -38s-5 -28.166 -15 -38.499s-22.333 -15.5 -37 -15.5
s-27.167 5.16699 -37.5 15.5s-15.5 23.166 -15.5 38.499s5 28 15 38s22.667 15 38 15c14.667 0 27 -5 37 -15zM415.999 902h-242v66h242v-66z" />
    <glyph glyph-name="uni01D6" unicode="&#x1d6;" horiz-adv-x="523" 
d="M442 0h-78l-5 79c-36.667 -61.333 -85.667 -92 -147 -92c-42 0 -75 13.667 -99 41s-36 64.333 -36 111v387h90v-379c0 -30.667 5.83301 -53.167 17.5 -67.5s29.167 -21.5 52.5 -21.5c44.667 0 83 29.333 115 88v380h90v-526zM204 715c10 -10 15 -22.667 15 -38
s-5 -28.166 -15 -38.499s-22.333 -15.5 -37 -15.5c-15.333 0 -28 5.16699 -38 15.5s-15 23.166 -15 38.499s5 28 15 38s22.667 15 38 15c14.667 0 27 -5 37 -15zM391 715c10 -10 15 -22.667 15 -38s-5 -28.166 -15 -38.499s-22.333 -15.5 -37 -15.5
s-27.167 5.16699 -37.5 15.5s-15.5 23.166 -15.5 38.499s5 28 15 38s22.667 15 38 15c14.667 0 27 -5 37 -15zM381 787h-242v66h242v-66z" />
    <glyph glyph-name="uni01D7" unicode="&#x1d7;" horiz-adv-x="588" 
d="M514 202c0 -63.333 -19.001 -115 -57.001 -155s-92.333 -60 -163 -60c-71.333 0 -125.666 19.833 -162.999 59.5s-56 91.5 -56 155.5v486h93v-480c0 -96.667 42 -145 126 -145s126 48.333 126 145v480h94v-486zM366.999 1011l57 -49l-127 -129l-37 32zM235.999 837.5
c10 -10.333 15 -23.166 15 -38.499s-5 -28 -15 -38s-22.333 -15 -37 -15c-15.333 0 -28 5 -38 15s-15 22.667 -15 38s5 28.166 15 38.499s22.667 15.5 38 15.5c14.667 0 27 -5.16699 37 -15.5zM425.999 837.5c10 -10.333 15 -23.166 15 -38.499s-5 -28 -15 -38
s-22.333 -15 -37 -15s-27.167 5.16699 -37.5 15.5s-15.5 22.833 -15.5 37.5c0 15.333 5.16699 28.166 15.5 38.499s22.833 15.5 37.5 15.5s27 -5.16699 37 -15.5z" />
    <glyph glyph-name="uni01D8" unicode="&#x1d8;" horiz-adv-x="523" 
d="M442 0h-78l-5 79c-36.667 -61.333 -85.667 -92 -147 -92c-42 0 -75 13.667 -99 41s-36 64.333 -36 111v387h90v-379c0 -30.667 5.83301 -53.167 17.5 -67.5s29.167 -21.5 52.5 -21.5c44.667 0 83 29.333 115 88v380h90v-526zM333 889l57 -49l-127 -129l-37 32zM202 715
c10 -10 15 -22.667 15 -38s-5 -28.166 -15 -38.499s-22.333 -15.5 -37 -15.5c-15.333 0 -28 5.16699 -38 15.5s-15 23.166 -15 38.499s5 28 15 38s22.667 15 38 15c14.667 0 27 -5 37 -15zM392 715c10 -10 15 -22.667 15 -38s-5 -28.166 -15 -38.499
s-22.333 -15.5 -37 -15.5s-27.167 5.16699 -37.5 15.5s-15.5 23.166 -15.5 38.499s5.16699 28 15.5 38s22.833 15 37.5 15s27 -5 37 -15z" />
    <glyph glyph-name="uni01D9" unicode="&#x1d9;" horiz-adv-x="588" 
d="M514 202c0 -63.333 -19.001 -115 -57.001 -155s-92.333 -60 -163 -60c-71.333 0 -125.666 19.833 -162.999 59.5s-56 91.5 -56 155.5v486h93v-480c0 -96.667 42 -145 126 -145s126 48.333 126 145v480h94v-486zM405.999 1008l35 -39l-121 -112h-56l-121 112l36 39
l113 -81zM235.999 837.5c10 -10.333 15 -23.166 15 -38.499s-5 -28 -15 -38s-22.333 -15 -37 -15c-15.333 0 -28 5 -38 15s-15 22.667 -15 38s5 28.166 15 38.499s22.667 15.5 38 15.5c14.667 0 27 -5.16699 37 -15.5zM425.999 837.5c10 -10.333 15 -23.166 15 -38.499
s-5 -28 -15 -38s-22.667 -15 -38 -15c-14.667 0 -27 5 -37 15s-15 22.667 -15 38s5 28.166 15 38.499s22.333 15.5 37 15.5c15.333 0 28 -5.16699 38 -15.5z" />
    <glyph glyph-name="uni01DA" unicode="&#x1da;" horiz-adv-x="523" 
d="M442 0h-78l-5 79c-36.667 -61.333 -85.667 -92 -147 -92c-42 0 -75 13.667 -99 41s-36 64.333 -36 111v387h90v-379c0 -30.667 5.83301 -53.167 17.5 -67.5s29.167 -21.5 52.5 -21.5c44.667 0 83 29.333 115 88v380h90v-526zM373 886l35 -39l-121 -112h-56l-121 112
l36 39l113 -81zM202 715c10 -10 15 -22.667 15 -38s-5 -28.166 -15 -38.499s-22.667 -15.5 -38 -15.5c-14.667 0 -27 5.16699 -37 15.5s-15 23.166 -15 38.499s5 28 15 38s22.333 15 37 15c15.333 0 28 -5 38 -15zM392 715c10 -10 15 -22.667 15 -38s-5 -28.166 -15 -38.499
s-22.667 -15.5 -38 -15.5c-14.667 0 -27 5.16699 -37 15.5s-15 23.166 -15 38.499s5 28 15 38s22.333 15 37 15c15.333 0 28 -5 38 -15z" />
    <glyph glyph-name="uni01DB" unicode="&#x1db;" horiz-adv-x="588" 
d="M514 202c0 -63.333 -19.001 -115 -57.001 -155s-92.333 -60 -163 -60c-71.333 0 -125.666 19.833 -162.999 59.5s-56 91.5 -56 155.5v486h93v-480c0 -96.667 42 -145 126 -145s126 48.333 126 145v480h94v-486zM227.999 1011l108 -146l-38 -32l-127 129zM235.999 837.5
c10 -10.333 15 -23.166 15 -38.499s-5 -28 -15 -38s-22.333 -15 -37 -15c-15.333 0 -28 5 -38 15s-15 22.667 -15 38s5 28.166 15 38.499s22.667 15.5 38 15.5c14.667 0 27 -5.16699 37 -15.5zM425.999 837.5c10 -10.333 15 -23.166 15 -38.499s-5 -28 -15 -38
s-22.333 -15 -37 -15s-27.167 5.16699 -37.5 15.5s-15.5 22.833 -15.5 37.5c0 15.333 5.16699 28.166 15.5 38.499s22.833 15.5 37.5 15.5s27 -5.16699 37 -15.5z" />
    <glyph glyph-name="uni01DC" unicode="&#x1dc;" horiz-adv-x="523" 
d="M442 0h-78l-5 79c-36.667 -61.333 -85.667 -92 -147 -92c-42 0 -75 13.667 -99 41s-36 64.333 -36 111v387h90v-379c0 -30.667 5.83301 -53.167 17.5 -67.5s29.167 -21.5 52.5 -21.5c44.667 0 83 29.333 115 88v380h90v-526zM191 889l108 -146l-38 -32l-127 129zM202 715
c10 -10 15 -22.667 15 -38s-5 -28.166 -15 -38.499s-22.333 -15.5 -37 -15.5c-15.333 0 -28 5.16699 -38 15.5s-15 23.166 -15 38.499s5 28 15 38s22.667 15 38 15c14.667 0 27 -5 37 -15zM392 715c10 -10 15 -22.667 15 -38s-5 -28.166 -15 -38.499
s-22.333 -15.5 -37 -15.5s-27.167 5.16699 -37.5 15.5s-15.5 23.166 -15.5 38.499s5.16699 28 15.5 38s22.833 15 37.5 15s27 -5 37 -15z" />
    <glyph glyph-name="uni01DD" unicode="&#x1dd;" horiz-adv-x="500" 
d="M399 469c34.667 -46.667 52 -114.666 52 -203.999c0 -90 -18.167 -158.833 -54.5 -206.5s-87.166 -71.5 -152.499 -71.5c-62 0 -110.833 22.5 -146.5 67.5s-53.5 109.833 -53.5 194.5c0 12.667 0.666992 27.667 2 45h315c-2.66699 61.333 -14 105.666 -34 132.999
s-48.333 41 -85 41c-24 0 -45.833 -3.5 -65.5 -10.5s-39.834 -18.833 -60.501 -35.5l-40 54c49.333 42 105 63 167 63c69.333 0 121.333 -23.333 156 -70zM329 96.501c19.333 26.333 30 70.833 32 133.5h-231v-7c0 -56 10 -97.667 30 -125s48.333 -41 85 -41
s64.667 13.167 84 39.5z" />
    <glyph glyph-name="uni01DE" unicode="&#x1de;" horiz-adv-x="526" 
d="M423 0l-46 175h-231l-46 -175h-93l199 688h114l199 -688h-96zM165 248h193l-96 366zM207 837c10 -10 15 -22.667 15 -38s-5 -28.166 -15 -38.499s-22.333 -15.5 -37 -15.5c-15.333 0 -28 5.16699 -38 15.5s-15 23.166 -15 38.499s5 28 15 38s22.667 15 38 15
c14.667 0 27 -5 37 -15zM394 837c10 -10 15 -22.667 15 -38s-5 -28.166 -15 -38.499s-22.333 -15.5 -37 -15.5s-27.167 5.16699 -37.5 15.5s-15.5 23.166 -15.5 38.499s5 28 15 38s22.667 15 38 15c14.667 0 27 -5 37 -15zM385 902h-242v66h242v-66z" />
    <glyph glyph-name="uni01DF" unicode="&#x1df;" horiz-adv-x="490" 
d="M418 72.5c6 -10.333 15.333 -18.168 28 -23.501l-19 -61c-26 4 -46.333 12 -61 24s-25 30.333 -31 55c-34 -53.333 -81.667 -80 -143 -80c-46.667 0 -83.667 14.5 -111 43.5s-41 67.833 -41 116.5c0 56 18.333 98.667 55 128s89 44 157 44h68v45
c0 36.667 -7.5 63.167 -22.5 79.5s-39.5 24.5 -73.5 24.5c-36.667 0 -79.334 -9.33301 -128.001 -28l-22 63c58.667 24 113.334 36 164.001 36c114 0 171 -57 171 -171v-248c0 -21.333 3 -37.166 9 -47.499zM320 136.998l-0.000976562 124h-58
c-86.667 0 -130 -36.333 -130 -109c0 -31.333 7 -55.333 21 -72s34 -25 60 -25c46.667 0 82.334 27.333 107.001 82zM180.999 714.998c10 -10 15 -22.667 15 -38s-5 -28.166 -15 -38.499s-22.333 -15.5 -37 -15.5c-15.333 0 -28 5.16699 -38 15.5s-15 23.166 -15 38.499
s5 28 15 38s22.667 15 38 15c14.667 0 27 -5 37 -15zM367.999 714.998c10 -10 15 -22.667 15 -38s-5 -28.166 -15 -38.499s-22.333 -15.5 -37 -15.5s-27.167 5.16699 -37.5 15.5s-15.5 23.166 -15.5 38.499s5 28 15 38s22.667 15 38 15c14.667 0 27 -5 37 -15z
M357.999 786.998h-242v66h242v-66z" />
    <glyph glyph-name="uni01E0" unicode="&#x1e0;" horiz-adv-x="526" 
d="M423 0l-46 175h-231l-46 -175h-93l199 688h114l199 -688h-96zM165 248h193l-96 366zM306.5 841c11 -11.333 16.5 -25.333 16.5 -42s-5.33301 -30.5 -16 -41.5s-25 -16.5 -43 -16.5c-17.333 0 -31.5 5.5 -42.5 16.5s-16.5 24.833 -16.5 41.5s5.5 30.667 16.5 42
s25.167 17 42.5 17s31.5 -5.66699 42.5 -17zM385 902h-242v66h242v-66z" />
    </font>
</defs>
</svg>
